{
.formatVersion = 3;
axes = (
{
name = Weight;
tag = wght;
}
);
classes = (
{
code = "zero zero.zero one two three four five six seven eight nine";
name = Digit;
},
{
code = "a b c d e f A B C D E F";
name = DigitHex;
},
{
code = "braceleft braceright bracketleft bracketright parenleft parenright bar slash backslash";
name = NormalSeparator;
},
{
code = "space nbspace";
name = Space;
},
{
code = "space nbspace bullet periodcentered period";
name = SpaceExlusion;
},
{

glyphs = (
{
color = (153, 254, 255, 255);
glyphname = .notdef;
layers = (
{
layerId = "7B80DEB9-A0FA-491E-8DCF-B8BAEA8A01AC";
shapes = (
{
closed = 1;
nodes = (
(125,650,ls),
(134,704,o),
(175,730,o),
(229,730,cs),
(469,730,ls),
(523,730,o),
(554,704,o),
(545,650,cs),
(444,80,ls),
(435,26,o),
(394,0,o),
(340,0,cs),
(100,0,ls),
(46,0,o),
(15,26,o),
(24,80,cs)
);
},
{
closed = 1;
nodes = (
(311,120,ls),
(338,120,o),
(342,123,o),
(346,150,cs),
(422,580,ls),
(427,607,o),
(425,610,o),
(398,610,cs),
(258,610,ls),
(231,610,o),
(227,607,o),
(222,580,cs),
(146,150,ls),
(142,123,o),
(144,120,o),
(171,120,cs)
);
},
{
closed = 1;
nodes = (
(64,52,l),
(405,680,l),
(505,680,l),
(164,52,l)
);
},
{
closed = 1;
nodes = (
(294,52,l),
(175,680,l),
(275,680,l),
(394,52,l)
);
}
);
width = 600;
},
{
layerId = "DDB6E94A-FF9F-44FE-9E50-A37C641AA6D0";
shapes = (
{
closed = 1;
nodes = (
(135,650,ls),
(144,704,o),
(175,730,o),
(229,730,cs),
(469,730,ls),
(523,730,o),
(544,704,o),
(535,650,cs),
(434,80,ls),
(425,26,o),
(394,0,o),
(340,0,cs),
(100,0,ls),
(46,0,o),
(25,26,o),
(34,80,cs)
);
},
{
closed = 1;
nodes = (
(306,90,ls),
(333,90,o),
(348,103,o),
(353,130,cs),
(436,600,ls),
(441,627,o),
(430,640,o),
(403,640,cs),
(263,640,ls),
(236,640,o),
(221,627,o),
(216,600,cs),
(133,130,ls),
(128,103,o),
(139,90,o),
(166,90,cs)
);
},
{
closed = 1;
nodes = (
(74,52,l),
(415,680,l),
(495,680,l),
(154,52,l)
);
},
{
closed = 1;
nodes = (
(304,52,l),
(185,680,l),
(265,680,l),
(384,52,l)
);
}
);
width = 600;
},
{
layerId = "888E2163-DF89-49B9-A98A-97103207B079";
shapes = (
{
closed = 1;
nodes = (
(146,660,ls),
(154,704,o),
(185,730,o),
(229,730,cs),
(469,730,ls),
(513,730,o),
(534,704,o),
(526,660,cs),
(422,70,ls),
(415,26,o),
(384,0,o),
(340,0,cs),
(100,0,ls),
(56,0,o),
(35,26,o),
(42,70,cs)
);
},
{
closed = 1;
nodes = (
(301,60,ls),
(338,60,o),
(365,83,o),
(371,120,cs),
(458,610,ls),
(464,647,o),
(445,670,o),
(408,670,cs),
(268,670,ls),
(231,670,o),
(204,647,o),
(198,610,cs),
(111,120,ls),
(105,83,o),
(124,60,o),
(161,60,cs)
);
},
{
closed = 1;
nodes = (
(72,42,l),
(437,690,l),
(497,690,l),
(132,42,l)
);
},
{
closed = 1;
nodes = (
(322,42,l),
(187,690,l),
(247,690,l),
(382,42,l)
);
}
);
width = 600;
}
);
},
{
color = (153, 254, 255, 255);
glyphname = A;
layers = (
{
anchors = (
{
name = bottom;
position = "{220, 0}";
},
{
name = ogonek;
position = "{402, 0}";
},
{
name = top;
position = "{349, 730}";
}
);
layerId = "7B80DEB9-A0FA-491E-8DCF-B8BAEA8A01AC";
shapes = (
{
closed = 1;
nodes = (
(411.253,285,l),
(416.094,165,l),
(82.094,165,l),
(129.253,285,l)
);
},
{
closed = 1;
nodes = (
(319.511,536,ls),
(319.098,545,o),
(313.098,545,o),
(309.511,536,cs),
(105.877,39,ls),
(91.705,4,o),
(68.237,-10,o),
(27.237,-10,cs),
(-33.763,-10,o),
(-54.121,22,o),
(-25.66,87,cs),
(215.084,647,ls),
(242.192,710,o),
(286.482,740,o),
(350.482,740,cs),
(414.482,740,o),
(448.192,710,o),
(453.084,647,cs),
(496.34,87,ls),
(501.879,22,o),
(467.237,-10,o),
(408.237,-10,cs),
(367.237,-10,o),
(350.058,6,o),
(347.877,39,cs)
);
}
);
width = 600;
},
{
anchors = (
{
name = bottom;
position = "{220, 0}";
},
{
name = ogonek;
position = "{420, 0}";
},
{
name = top;
position = "{349, 730}";
}
);
layerId = "DDB6E94A-FF9F-44FE-9E50-A37C641AA6D0";
shapes = (
{
closed = 1;
nodes = (
(415,270,l),
(420,194,l),
(88,194,l),
(121,270,l)
);
},
{
closed = 1;
nodes = (
(333,611,ls),
(332,619,o),
(326,619,o),
(323,611,cs),
(60,19,ls),
(52,0,o),
(38,-10,o),
(13,-10,cs),
(-22,-10,o),
(-34,9,o),
(-17,48,cs),
(265,681,ls),
(283,720,o),
(309,740,o),
(350,740,cs),
(391,740,o),
(411,720,o),
(415,681,cs),
(473,48,ls),
(478,9,o),
(458,-10,o),
(423,-10,cs),
(398,-10,o),
(388,0,o),
(386,19,cs)
);
}
);
width = 600;
},
{
anchors = (
{
name = bottom;
position = "{220, 0}";
},
{
name = ogonek;
position = "{425, 0}";
},
{
name = top;
position = "{349, 730}";
}
);
layerId = "888E2163-DF89-49B9-A98A-97103207B079";
shapes = (
{
closed = 1;
nodes = (
(407,250,l),
(411,200,l),
(100,200,l),
(122,250,l)
);
},
{
closed = 1;
nodes = (
(340,660,ls),
(339,666,o),
(335,666,o),
(332,660,cs),
(37,7,ls),
(32,-4,o),
(25,-10,o),
(10,-10,cs),
(-10,-10,o),
(-17,1,o),
(-7,23,cs),
(307,711,ls),
(316,730,o),
(330,740,o),
(350,740,cs),
(370,740,o),
(382,730,o),
(383,711,cs),
(455,23,ls),
(457,1,o),
(446,-10,o),
(426,-10,cs),
(411,-10,o),
(406,-4,o),
(405,7,cs)
);
}
);
width = 600;
}
);
unicode = 65;
},
{
color = (153, 254, 255, 255);
glyphname = AE;
layers = (
{
layerId = "7B80DEB9-A0FA-491E-8DCF-B8BAEA8A01AC";
shapes = (
{
closed = 1;
nodes = (
(313,581,ls),
(316,597,o),
(310,605,o),
(294,605,cs),
(278,605,o),
(266,597,o),
(260,581,cs),
(83,61,ls),
(66,14,o),
(36,-10,o),
(-12,-10,cs),
(-60,-10,o),
(-76,13,o),
(-58,60,cs),
(150,632,ls),
(174,698,o),
(219,730,o),
(286,730,cs),
(567,730,ls),
(609,730,o),
(625,710,o),
(618,668,cs),
(610,626,o),
(587,605,o),
(545,605,cs),
(468,605,ls),
(451,605,o),
(441,597,o),
(438,580,cs),
(413,436,l),
(486,436,ls),
(530,436,o),
(548,415,o),
(540,371,cs),
(533,327,o),
(507,305,o),
(463,305,cs),
(390,305,l),
(367,176,ls),
(361,142,o),
(375,126,o),
(408,126,cs),
(459,126,ls),
(501,126,o),
(519,105,o),
(511,63,cs),
(504,21,o),
(479,0,o),
(437,0,cs),
(311,0,ls),
(244,0,o),
(217,33,o),
(229,100,cs)
);
},
{
closed = 1;
nodes = (
(331,285,l),
(310,165,l),
(32,165,l),
(79,285,l)
);
}
);
width = 600;
},
{
anchors = (
{
name = m.uni0308;
position = "{349, 730}";
},
{
name = m.uni0325_2;
position = "{220, 0}";
}
);
layerId = "DDB6E94A-FF9F-44FE-9E50-A37C641AA6D0";
shapes = (
{
closed = 1;
nodes = (
(331,620,ls),
(335,639,o),
(327,648,o),
(308,648,cs),
(289,648,o),
(278,639,o),
(270,621,c),
(54,35,ls),
(43,5,o),
(22,-10,o),
(-8,-10,cs),
(-38,-10,o),
(-48,5,o),
(-37,35,cs),
(194,652,ls),
(213,705,o),
(250,730,o),
(304,730,cs),
(579,730,ls),
(606,730,o),
(616,717,o),
(612,690,cs),
(607,663,o),
(591,648,o),
(564,648,cs),
(442,648,ls),
(429,648,o),
(421,641,o),
(419,628,cs),
(382,420,l),
(499,420,ls),
(526,420,o),
(537,407,o),
(532,380,cs),
(527,353,o),
(512,338,o),
(485,338,cs),
(368,338,l),
(330,122,ls),
(325,95,o),
(335,82,o),
(362,82,cs),
(464,82,ls),
(491,82,o),
(502,69,o),
(497,42,cs),
(493,15,o),
(477,0,o),
(450,0,cs),
(302,0,ls),
(248,0,o),
(227,26,o),
(236,80,cs)
);
},
{
closed = 1;
nodes = (
(315,270,l),
(301,194,l),
(58,194,l),
(91,270,l)
);
}
);
width = 600;
},
{
layerId = "888E2163-DF89-49B9-A98A-97103207B079";
shapes = (
{
closed = 1;
nodes = (
(346,659,ls),
(349,676,o),
(343,685,o),
(326,685,cs),
(309,685,o),
(296,677,o),
(289,660,cs),
(9,14,ls),
(3,-2,o),
(-9,-10,o),
(-26,-10,cs),
(-43,-10,o),
(-47,-2,o),
(-41,14,cs),
(245,672,ls),
(262,711,o),
(291,730,o),
(331,730,cs),
(595,730,ls),
(610,730,o),
(616,723,o),
(614,708,cs),
(611,693,o),
(603,685,o),
(588,685,cs),
(416,685,ls),
(406,685,o),
(400,680,o),
(398,670,cs),
(351,402,l),
(502,402,ls),
(517,402,o),
(523,395,o),
(520,380,cs),
(517,365,o),
(509,357,o),
(494,357,cs),
(343,357,l),
(293,75,ls),
(290,55,o),
(298,45,o),
(318,45,cs),
(475,45,ls),
(490,45,o),
(496,38,o),
(493,23,cs),
(490,8,o),
(481,0,o),
(466,0,cs),
(290,0,ls),
(250,0,o),
(234,20,o),
(241,60,cs)
);
},
{
closed = 1;
nodes = (
(297,250,l),
(288,200,l),
(60,200,l),
(82,250,l)
);
}
);
width = 600;
}
);
unicode = 198;
},
{
color = (153, 254, 255, 255);
glyphname = B;
layers = (
{
anchors = (
{
name = bottom;
position = "{220, 0}";
},
{
name = top;
position = "{349, 730}";
}
);
layerId = "7B80DEB9-A0FA-491E-8DCF-B8BAEA8A01AC";
shapes = (
{
closed = 1;
nodes = (
(350,730,ls),
(496,730,o),
(579,655,o),
(559,541,cs),
(545,459,o),
(484,397,o),
(410,387,c),
(491,378,o),
(535,304,o),
(518,210,cs),
(496,84,o),
(380,0,o),
(230,0,cs),
(86,0,ls),
(19,0,o),
(-8,33,o),
(4,100,cs),
(97,630,ls),
(109,697,o),
(148,730,o),
(215,730,cs)
);
},
{
closed = 1;
nodes = (
(186,310,l),
(164,185,l),
(158,152,o),
(171,135,o),
(205,135,cs),
(249,135,ls),
(314,135,o),
(360,168,o),
(369,224,cs),
(379,280,o),
(345,310,o),
(280,310,cs)
);
},
{
closed = 1;
nodes = (
(210,450,l),
(298,450,ls),
(354,450,o),
(396,469,o),
(405,523,cs),
(415,577,o),
(380,595,o),
(324,595,cs),
(286,595,ls),
(252,595,o),
(233,578,o),
(227,545,cs)
);
}
);
width = 600;
},
{
anchors = (
{
name = bottom;
position = "{220, 0}";
},
{
name = top;
position = "{349, 730}";
}
);
layerId = "DDB6E94A-FF9F-44FE-9E50-A37C641AA6D0";
shapes = (
{
closed = 1;
nodes = (
(350,730,ls),
(482,730,o),
(549,659,o),
(529,547,cs),
(513,456,o),
(451,396,o),
(372,381,c),
(456,370,o),
(504,305,o),
(485,201,cs),
(464,78,o),
(368,0,o),
(235,0,cs),
(94,0,ls),
(39,0,o),
(18,26,o),
(27,80,cs),
(128,650,ls),
(137,704,o),
(168,730,o),
(223,730,cs)
);
},
{
closed = 1;
nodes = (
(161,335,l),
(125,130,l),
(120,103,o),
(131,90,o),
(158,90,cs),
(241,90,ls),
(325,90,o),
(384,130,o),
(398,208,cs),
(412,287,o),
(368,335,o),
(284,335,cs)
);
},
{
closed = 1;
nodes = (
(177,425,l),
(295,425,ls),
(372,425,o),
(426,463,o),
(438,534,cs),
(451,605,o),
(411,640,o),
(334,640,cs),
(255,640,ls),
(228,640,o),
(213,627,o),
(208,600,cs)
);
}
);
width = 600;
},
{
anchors = (
{
name = bottom;
position = "{220, 0}";
},
{
name = top;
position = "{349, 730}";
}
);
layerId = "888E2163-DF89-49B9-A98A-97103207B079";
shapes = (
{
closed = 1;
nodes = (
(347,730,ls),
(468,730,o),
(534,656,o),
(514,547,cs),
(499,457,o),
(432,382,o),
(361,377,c),
(446,367,o),
(488,298,o),
(470,200,cs),
(449,78,o),
(353,0,o),
(221,0,cs),
(90,0,ls),
(50,0,o),
(34,20,o),
(41,60,cs),
(148,670,ls),
(155,710,o),
(179,730,o),
(219,730,cs)
);
},
{
closed = 1;
nodes = (
(142,353,l),
(94,80,l),
(91,60,o),
(99,50,o),
(119,50,cs),
(230,50,ls),
(332,50,o),
(403,104,o),
(420,199,cs),
(437,294,o),
(385,353,o),
(283,353,cs)
);
},
{
closed = 1;
nodes = (
(150,398,l),
(288,398,ls),
(382,398,o),
(448,452,o),
(463,541,cs),
(479,630,o),
(431,680,o),
(338,680,cs),
(230,680,ls),
(210,680,o),
(198,670,o),
(195,650,cs)
);
}
);
width = 600;
}
);
unicode = 66;
},
{
color = (153, 254, 255, 255);
glyphname = C;
layers = (
{
layerId = "7B80DEB9-A0FA-491E-8DCF-B8BAEA8A01AC";
shapes = (
{
closed = 1;
nodes = (
(70,567,o),
(184,740,o),
(407,740,cs),
(525,740,o),
(568,691,o),
(579,636,cs),
(588,593,o),
(576,553,o),
(541,537,cs),
(511,524,o),
(472,533,o),
(458,567,cs),
(449,589,o),
(425,608,o),
(380,608,cs),
(260,608,o),
(204,476,o),
(184,361,cs),
(166,260,o),
(167,125,o),
(296,125,cs),
(340,125,o),
(372,141,o),
(390,156,cs),
(420,182,o),
(456,180,o),
(475,157,cs),
(494,135,o),
(497,93,o),
(463,54,cs),
(419,6,o),
(343,-10,o),
(270,-10,cs),
(28,-10,o),
(0,169,o),
(32,351,cs)
);
}
);
width = 600;
},
{
layerId = "DDB6E94A-FF9F-44FE-9E50-A37C641AA6D0";
shapes = (
{
closed = 1;
nodes = (
(80,569,o),
(193,740,o),
(406,740,cs),
(517,740,o),
(562,694,o),
(573,646,cs),
(579,614,o),
(568,594,o),
(548,583,cs),
(528,573,o),
(503,573,o),
(490,600,cs),
(477,625,o),
(444,650,o),
(386,650,cs),
(251,650,o),
(161,516,o),
(135,367,cs),
(112,238,o),
(134,80,o),
(292,80,cs),
(330,80,o),
(378,89,o),
(406,108,cs),
(432,126,o),
(458,123,o),
(472,106,cs),
(486,89,o),
(483,63,o),
(453,37,cs),
(405,-3,o),
(333,-10,o),
(272,-10,cs),
(59,-10,o),
(10,168,o),
(45,367,cs)
);
}
);
width = 600;
},
{
layerId = "888E2163-DF89-49B9-A98A-97103207B079";
shapes = (
{
closed = 1;
nodes = (
(90,569,o),
(201,740,o),
(403,740,cs),
(497,740,o),
(549,703,o),
(560,669,cs),
(565,653,o),
(563,634,o),
(547,627,cs),
(536,622,o),
(522,625,o),
(517,639,cs),
(509,662,o),
(467,690,o),
(416,690,cs),
(229,690,o),
(132,522,o),
(105,366,cs),
(79,220,o),
(106,40,o),
(285,40,cs),
(318,40,o),
(380,46,o),
(412,67,cs),
(432,81,o),
(449,78,o),
(455,68,cs),
(460,59,o),
(459,43,o),
(448,36,cs),
(395,-3,o),
(333,-10,o),
(276,-10,cs),
(67,-10,o),
(20,168,o),
(55,367,cs)
);
}
);
width = 600;
}
);
unicode = 67;
},
{
color = (153, 254, 255, 255);
glyphname = D;
layers = (
{
layerId = "7B80DEB9-A0FA-491E-8DCF-B8BAEA8A01AC";
shapes = (
{
closed = 1;
nodes = (
(73,0,ls),
(13,0,o),
(-12,30,o),
(-1,90,cs),
(96,640,ls),
(106,700,o),
(142,730,o),
(202,730,cs),
(319,730,ls),
(549,730,o),
(585,572,o),
(548,364,cs),
(512,161,o),
(423,0,o),
(190,0,cs)
);
},
{
closed = 1;
nodes = (
(164,175,ls),
(159,148,o),
(170,135,o),
(197,135,cs),
(214,135,ls),
(343,135,o),
(386,257,o),
(406,370,cs),
(425,475,o),
(427,595,o),
(295,595,cs),
(278,595,ls),
(251,595,o),
(236,582,o),
(231,555,cs)
);
}
);
width = 600;
},
{
layerId = "DDB6E94A-FF9F-44FE-9E50-A37C641AA6D0";
shapes = (
{
closed = 1;
nodes = (
(92,0,ls),
(38,0,o),
(17,26,o),
(26,80,cs),
(127,650,ls),
(136,704,o),
(167,730,o),
(221,730,cs),
(310,730,ls),
(522,730,o),
(547,559,o),
(512,361,cs),
(480,182,o),
(403,0,o),
(181,0,cs)
);
},
{
closed = 1;
nodes = (
(125,130,ls),
(120,103,o),
(131,90,o),
(158,90,cs),
(197,90,ls),
(352,90,o),
(409,243,o),
(430,365,cs),
(452,489,o),
(448,640,o),
(294,640,cs),
(255,640,ls),
(228,640,o),
(213,627,o),
(208,600,cs)
);
}
);
width = 600;
},
{
layerId = "888E2163-DF89-49B9-A98A-97103207B079";
shapes = (
{
closed = 1;
nodes = (
(101,0,ls),
(53,0,o),
(34,23,o),
(42,70,cs),
(146,660,ls),
(155,707,o),
(182,730,o),
(230,730,cs),
(280,730,ls),
(513,730,o),
(525,572,o),
(487,356,cs),
(453,166,o),
(393,0,o),
(151,0,cs)
);
},
{
closed = 1;
nodes = (
(96,85,ls),
(92,62,o),
(102,50,o),
(125,50,cs),
(160,50,ls),
(364,50,o),
(407,191,o),
(437,362,cs),
(468,537,o),
(474,680,o),
(271,680,cs),
(236,680,ls),
(213,680,o),
(199,668,o),
(195,645,cs)
);
}
);
width = 600;
}
);
unicode = 68;
},
{
color = (153, 254, 255, 255);
glyphname = E;
layers = (
{
layerId = "7B80DEB9-A0FA-491E-8DCF-B8BAEA8A01AC";
shapes = (
{
closed = 1;
nodes = (
(228,440,l),
(431,440,ls),
(473,440,o),
(494,417,o),
(486,375,cs),
(479,333,o),
(450,310,o),
(408,310,cs),
(205,310,l),
(180,170,ls),
(175,143,o),
(186,130,o),
(213,130,cs),
(408,130,ls),
(452,130,o),
(469,109,o),
(461,65,cs),
(454,21,o),
(429,0,o),
(385,0,cs),
(100,0,ls),
(33,0,o),
(6,33,o),
(18,100,cs),
(111,630,ls),
(123,697,o),
(162,730,o),
(229,730,cs),
(514,730,ls),
(558,730,o),
(575,709,o),
(567,665,cs),
(559,621,o),
(535,600,o),
(491,600,cs),
(296,600,ls),
(267,600,o),
(254,588,o),
(249,560,cs)
);
}
);
width = 600;
},
{
layerId = "DDB6E94A-FF9F-44FE-9E50-A37C641AA6D0";
shapes = (
{
closed = 1;
nodes = (
(185,427,l),
(440,427,ls),
(467,427,o),
(482,409,o),
(477,382,cs),
(473,355,o),
(451,337,o),
(424,337,cs),
(169,337,l),
(133,130,ls),
(128,103,o),
(139,90,o),
(166,90,cs),
(415,90,ls),
(442,90,o),
(453,72,o),
(448,45,cs),
(443,18,o),
(426,0,o),
(399,0,cs),
(100,0,ls),
(46,0,o),
(25,26,o),
(34,80,cs),
(135,650,ls),
(144,704,o),
(175,730,o),
(229,730,cs),
(528,730,ls),
(555,730,o),
(566,712,o),
(561,685,cs),
(556,658,o),
(539,640,o),
(512,640,cs),
(263,640,ls),
(236,640,o),
(221,627,o),
(216,600,cs)
);
}
);
width = 600;
},
{
layerId = "888E2163-DF89-49B9-A98A-97103207B079";
shapes = (
{
closed = 1;
nodes = (
(162,406,l),
(445,406,ls),
(460,406,o),
(465,396,o),
(462,381,cs),
(460,366,o),
(451,356,o),
(436,356,cs),
(153,356,l),
(105,85,ls),
(101,62,o),
(111,50,o),
(134,50,cs),
(416,50,ls),
(431,50,o),
(437,40,o),
(434,25,cs),
(432,10,o),
(422,0,o),
(407,0,cs),
(110,0,ls),
(63,0,o),
(44,23,o),
(52,70,cs),
(156,660,ls),
(165,707,o),
(192,730,o),
(239,730,cs),
(536,730,ls),
(551,730,o),
(557,720,o),
(554,705,cs),
(552,690,o),
(542,680,o),
(527,680,cs),
(245,680,ls),
(222,680,o),
(208,668,o),
(204,645,cs)
);
}
);
width = 600;
}
);
unicode = 69;
},
{
color = (153, 254, 255, 255);
glyphname = Eopen;
layers = (
{
layerId = "7B80DEB9-A0FA-491E-8DCF-B8BAEA8A01AC";
shapes = (
{
closed = 1;
nodes = (
(574,561,o),
(535,520,o),
(464,520,cs),
(437,520,o),
(424,531,o),
(412,568,cs),
(402,598,o),
(375,616,o),
(336,616,cs),
(284,616,o),
(238,583,o),
(228,529,cs),
(217,465,o),
(253,440,o),
(300,440,cs),
(328,440,ls),
(370,440,o),
(385,420,o),
(378,378,cs),
(370,336,o),
(347,316,o),
(305,316,cs),
(277,316,ls),
(222,316,o),
(167,288,o),
(154,217,cs),
(143,152,o),
(190,118,o),
(250,118,cs),
(289,118,o),
(332,132,o),
(358,163,cs),
(387,198,o),
(406,210,o),
(429,210,cs),
(500,210,o),
(525,168,o),
(487,114,cs),
(431,31,o),
(327,-10,o),
(227,-10,cs),
(95,-10,o),
(-25,59,o),
(1,207,cs),
(16,291,o),
(80,368,o),
(168,386,c),
(96,399,o),
(68,469,o),
(80,541,cs),
(104,676,o),
(235,740,o),
(356,740,cs),
(454,740,o),
(535,696,o),
(558,616,cs)
);
}
);
width = 600;
},
{
anchors = (
{
name = m.uni0308;
position = "{350, 730}";
},
{
name = m.uni0325_2;
position = "{220, 0}";
}
);
layerId = "DDB6E94A-FF9F-44FE-9E50-A37C641AA6D0";
shapes = (
{
closed = 1;
nodes = (
(550,553,o),
(524,530,o),
(482,530,cs),
(463,530,o),
(455,539,o),
(454,560,cs),
(453,622,o),
(410,660,o),
(342,660,cs),
(271,660,o),
(208,616,o),
(195,542,cs),
(178,448,o),
(244,420,o),
(302,420,cs),
(348,420,ls),
(375,420,o),
(387,407,o),
(382,380,cs),
(377,353,o),
(361,340,o),
(334,340,cs),
(288,340,ls),
(206,340,o),
(130,292,o),
(115,205,cs),
(99,118,o),
(159,70,o),
(241,70,cs),
(310,70,o),
(378,104,o),
(405,170,cs),
(414,191,o),
(425,200,o),
(444,200,cs),
(486,200,o),
(502,178,o),
(484,141,cs),
(438,43,o),
(334,-10,o),
(227,-10,cs),
(101,-10,o),
(-3,61,o),
(21,199,cs),
(37,286,o),
(101,368,o),
(195,384,c),
(123,403,o),
(93,477,o),
(107,551,cs),
(128,674,o),
(242,740,o),
(356,740,cs),
(462,740,o),
(538,685,o),
(545,590,cs)
);
}
);
width = 600;
},
{
layerId = "888E2163-DF89-49B9-A98A-97103207B079";
shapes = (
{
closed = 1;
nodes = (
(535,541,o),
(522,530,o),
(499,530,cs),
(488,530,o),
(483,536,o),
(484,547,cs),
(493,635,o),
(442,696,o),
(350,696,cs),
(262,696,o),
(187,639,o),
(171,549,cs),
(154,458,o),
(208,401,o),
(297,401,cs),
(344,401,ls),
(359,401,o),
(365,394,o),
(363,379,cs),
(359,364,o),
(351,356,o),
(336,356,cs),
(294,356,ls),
(197,356,o),
(107,299,o),
(88,196,cs),
(70,93,o),
(139,35,o),
(236,35,cs),
(328,35,o),
(413,86,o),
(438,179,cs),
(440,190,o),
(448,196,o),
(459,196,cs),
(482,196,o),
(491,184,o),
(484,163,cs),
(448,52,o),
(342,-10,o),
(228,-10,cs),
(105,-10,o),
(14,63,o),
(37,194,cs),
(53,282,o),
(121,360,o),
(212,381,c),
(137,397,o),
(107,471,o),
(120,547,cs),
(141,665,o),
(242,740,o),
(357,740,cs),
(472,740,o),
(541,670,o),
(536,563,cs)
);
}
);
width = 600;
}
);
unicode = 400;
},
{
color = (153, 254, 255, 255);
glyphname = Schwa;
layers = (
{
layerId = "7B80DEB9-A0FA-491E-8DCF-B8BAEA8A01AC";
shapes = (
{
closed = 1;
nodes = (
(160,310,ls),
(151,310,o),
(146,305,o),
(145,296,cs),
(134,158,o),
(163,115,o),
(235,115,cs),
(345,115,o),
(390,227,o),
(401,310,c)
);
},
{
closed = 1;
nodes = (
(526,740,o),
(593,593,o),
(554,373,cs),
(513,143,o),
(395,-10,o),
(213,-10,cs),
(22,-10,o),
(-20,131,o),
(21,365,cs),
(29,409,o),
(53,430,o),
(94,430,cs),
(426,430,l),
(447,550,o),
(389,620,o),
(314,620,cs),
(243,620,o),
(204,592,o),
(171,558,cs),
(155,541,o),
(145,537,o),
(128,537,cs),
(94,537,o),
(72,567,o),
(77,598,cs),
(80,615,o),
(90,632,o),
(105,645,cs),
(163,698,o),
(235,740,o),
(345,740,cs)
);
}
);
width = 600;
},
{
layerId = "DDB6E94A-FF9F-44FE-9E50-A37C641AA6D0";
shapes = (
{
closed = 1;
nodes = (
(149,330,ls),
(138,330,o),
(133,327,o),
(130,314,cs),
(103,160,o),
(139,80,o),
(234,80,cs),
(364,80,o),
(421,230,o),
(438,330,c)
);
},
{
closed = 1;
nodes = (
(503,740,o),
(578,612,o),
(536,373,cs),
(496,145,o),
(393,-10,o),
(218,-10,cs),
(44,-10,o),
(0,127,o),
(44,373,cs),
(48,397,o),
(71,420,o),
(99,420,cs),
(454,420,l),
(473,527,o),
(454,650,o),
(325,650,cs),
(244,650,o),
(185,607,o),
(156,577,cs),
(147,568,o),
(144,568,o),
(134,568,cs),
(109,568,o),
(94,590,o),
(98,612,cs),
(100,624,o),
(109,634,o),
(116,642,cs),
(177,701,o),
(243,740,o),
(343,740,cs)
);
}
);
width = 600;
},
{
layerId = "888E2163-DF89-49B9-A98A-97103207B079";
shapes = (
{
closed = 1;
nodes = (
(106.304,342,ls),
(100.304,342,o),
(97.775,339,o),
(96.541,332,cs),
(64.625,151,o),
(97.053,40,o),
(227.053,40,cs),
(388.053,40,o),
(442.968,221,o),
(464.304,342,c)
);
},
{
closed = 1;
nodes = (
(518.482,740,o),
(562.738,594,o),
(523.77,373,cs),
(483.038,142,o),
(398.237,-10,o),
(218.237,-10,cs),
(38.237,-10,o),
(10.57,128,o),
(51.83,362,cs),
(54.475,377,o),
(68.12,392,o),
(84.12,392,cs),
(476.12,392,l),
(497.279,512,o),
(488.666,690,o),
(336.666,690,cs),
(250.666,690,o),
(198.084,647,o),
(157.736,611,cs),
(146.973,601,o),
(141.091,596,o),
(133.091,596,cs),
(118.091,596,o),
(109.265,614,o),
(111.733,628,cs),
(112.968,635,o),
(117.026,641,o),
(122.907,646,cs),
(183.429,700,o),
(240.482,740,o),
(345.482,740,cs)
);
}
);
width = 600;
}
);
unicode = 399;
},
{
color = (153, 254, 255, 255);
glyphname = F;
layers = (
{
layerId = "7B80DEB9-A0FA-491E-8DCF-B8BAEA8A01AC";
shapes = (
{
closed = 1;
nodes = (
(217,436,l),
(449,436,ls),
(491,436,o),
(507,416,o),
(500,374,cs),
(493,332,o),
(469,312,o),
(427,312,cs),
(195,312,l),
(153,75,ls),
(144,25,o),
(115,0,o),
(65,0,cs),
(15,0,o),
(-6,25,o),
(3,75,cs),
(103,640,ls),
(113,700,o),
(149,730,o),
(209,730,cs),
(524,730,ls),
(568,730,o),
(585,709,o),
(577,665,cs),
(569,621,o),
(545,600,o),
(501,600,cs),
(286,600,ls),
(259,600,o),
(244,588,o),
(239,560,cs)
);
}
);
width = 600;
},
{
layerId = "DDB6E94A-FF9F-44FE-9E50-A37C641AA6D0";
shapes = (
{
closed = 1;
nodes = (
(180,427,l),
(454,427,ls),
(481,427,o),
(492,414,o),
(487,387,cs),
(482,360,o),
(467,347,o),
(440,347,cs),
(166,347,l),
(113,45,ls),
(108,15,o),
(90,0,o),
(60,0,cs),
(30,0,o),
(18,15,o),
(23,45,cs),
(130,650,ls),
(139,704,o),
(170,730,o),
(224,730,cs),
(529,730,ls),
(559,730,o),
(571,715,o),
(566,685,cs),
(560,655,o),
(543,640,o),
(513,640,cs),
(258,640,ls),
(231,640,o),
(216,627,o),
(211,600,cs)
);
}
);
width = 600;
},
{
layerId = "888E2163-DF89-49B9-A98A-97103207B079";
shapes = (
{
closed = 1;
nodes = (
(157,406,l),
(457,406,ls),
(474,406,o),
(480,398,o),
(477,381,cs),
(474,364,o),
(465,356,o),
(448,356,cs),
(148,356,l),
(89,25,ls),
(86,8,o),
(77,0,o),
(60,0,cs),
(43,0,o),
(36,8,o),
(39,25,cs),
(151,660,ls),
(160,707,o),
(187,730,o),
(234,730,cs),
(549,730,ls),
(566,730,o),
(572,722,o),
(569,705,cs),
(566,688,o),
(557,680,o),
(540,680,cs),
(240,680,ls),
(217,680,o),
(203,668,o),
(199,645,cs)
);
}
);
width = 600;
}
);
unicode = 70;
},
{
color = (153, 254, 255, 255);
glyphname = G;
layers = (
{
layerId = "7B80DEB9-A0FA-491E-8DCF-B8BAEA8A01AC";
shapes = (
{
closed = 1;
nodes = (
(382,248,ls),
(386,275,o),
(376,288,o),
(349,288,cs),
(311,288,ls),
(271,288,o),
(254,308,o),
(261,348,cs),
(268,388,o),
(292,408,o),
(332,408,cs),
(420,408,ls),
(500,408,o),
(533,368,o),
(519,288,cs),
(504,206,ls),
(484,88,o),
(386,-10,o),
(227,-10,cs),
(1,-10,o),
(-27,186,o),
(8,365,cs),
(47,558,o),
(131,740,o),
(343,740,cs),
(439,740,o),
(526,703,o),
(547,621,cs),
(565,559,o),
(531,520,o),
(464,520,cs),
(432,520,o),
(418,529,o),
(415,546,cs),
(410,573,o),
(376,605,o),
(327,605,cs),
(218,605,o),
(173,443,o),
(157,365,cs),
(140,278,o),
(124,125,o),
(242,125,cs),
(320,125,o),
(366,160,o),
(375,210,cs)
);
}
);
width = 600;
},
{
layerId = "DDB6E94A-FF9F-44FE-9E50-A37C641AA6D0";
shapes = (
{
closed = 1;
nodes = (
(396,270,ls),
(400,297,o),
(388,300,o),
(361,300,cs),
(298,300,ls),
(268,300,o),
(256,315,o),
(261,345,cs),
(266,375,o),
(284,390,o),
(314,390,cs),
(427,390,ls),
(481,390,o),
(502,364,o),
(493,310,cs),
(473,200,ls),
(448,54,o),
(332,-10,o),
(218,-10,cs),
(10,-10,o),
(4,200,o),
(36,365,cs),
(70,535,o),
(138,741,o),
(352,741,cs),
(461,741,o),
(515,689,o),
(529,589,cs),
(533,552,o),
(513,531,o),
(476,531,cs),
(453,531,o),
(442,539,o),
(439,568,cs),
(434,624,o),
(395,651,o),
(338,651,cs),
(190,651,o),
(147,471,o),
(126,365,cs),
(105,255,o),
(86,80,o),
(242,80,cs),
(309,80,o),
(368,113,o),
(383,200,cs)
);
}
);
width = 600;
},
{
layerId = "888E2163-DF89-49B9-A98A-97103207B079";
shapes = (
{
closed = 1;
nodes = (
(431,288,ls),
(434,308,o),
(426,318,o),
(406,318,cs),
(281,318,ls),
(264,318,o),
(257,326,o),
(260,343,cs),
(263,360,o),
(273,368,o),
(290,368,cs),
(435,368,ls),
(475,368,o),
(491,348,o),
(484,308,cs),
(465,200,ls),
(441,63,o),
(368,-10,o),
(218,-10,cs),
(28,-10,o),
(36,213,o),
(62,361,cs),
(89,514,o),
(148,741,o),
(357,741,cs),
(474,741,o),
(514,670,o),
(523,564,cs),
(526,543,o),
(514,531,o),
(493,531,cs),
(480,531,o),
(475,536,o),
(473,547,cs),
(468,635,o),
(426,691,o),
(342,691,cs),
(181,691,o),
(132,479,o),
(113,368,cs),
(91,242,o),
(69,40,o),
(227,40,cs),
(340,40,o),
(396,93,o),
(415,200,cs)
);
}
);
width = 600;
}
);
unicode = 71;
},
{
color = (153, 254, 255, 255);
glyphname = H;
layers = (
{
layerId = "7B80DEB9-A0FA-491E-8DCF-B8BAEA8A01AC";
shapes = (
{
closed = 1;
nodes = (
(358,309,l),
(190,309,l),
(147,65,ls),
(139,15,o),
(109,-10,o),
(59,-10,cs),
(9,-10,o),
(-11,15,o),
(-3,65,cs),
(103,665,ls),
(112,715,o),
(141,740,o),
(191,740,cs),
(241,740,o),
(262,715,o),
(253,665,cs),
(215,449,l),
(383,449,l),
(421,665,ls),
(430,715,o),
(459,740,o),
(509,740,cs),
(559,740,o),
(580,715,o),
(571,665,cs),
(465,65,ls),
(457,15,o),
(427,-10,o),
(377,-10,cs),
(327,-10,o),
(307,15,o),
(315,65,cs)
);
}
);
width = 600;
},
{
layerId = "DDB6E94A-FF9F-44FE-9E50-A37C641AA6D0";
shapes = (
{
closed = 1;
nodes = (
(396,332,l),
(162,332,l),
(109,35,ls),
(104,5,o),
(86,-10,o),
(56,-10,cs),
(26,-10,o),
(14,5,o),
(19,35,cs),
(136,695,ls),
(141,725,o),
(158,740,o),
(188,740,cs),
(218,740,o),
(231,725,o),
(226,695,cs),
(177,422,l),
(411,422,l),
(460,695,ls),
(465,725,o),
(482,740,o),
(512,740,cs),
(542,740,o),
(555,725,o),
(550,695,cs),
(433,35,ls),
(428,5,o),
(410,-10,o),
(380,-10,cs),
(350,-10,o),
(338,5,o),
(343,35,cs)
);
}
);
width = 600;
},
{
layerId = "888E2163-DF89-49B9-A98A-97103207B079";
shapes = (
{
closed = 1;
nodes = (
(423,355,l),
(143,355,l),
(83,15,ls),
(80,-2,o),
(70,-10,o),
(53,-10,cs),
(36,-10,o),
(30,-2,o),
(33,15,cs),
(154,705,ls),
(157,722,o),
(167,730,o),
(184,730,cs),
(201,730,o),
(207,722,o),
(204,705,cs),
(151,405,l),
(431,405,l),
(484,705,ls),
(487,722,o),
(497,730,o),
(514,730,cs),
(531,730,o),
(537,722,o),
(534,705,cs),
(413,15,ls),
(410,-2,o),
(400,-10,o),
(383,-10,cs),
(366,-10,o),
(360,-2,o),
(363,15,cs)
);
}
);
width = 600;
}
);
unicode = 72;
},
{
color = (153, 254, 255, 255);
glyphname = I;
layers = (
{
layerId = "7B80DEB9-A0FA-491E-8DCF-B8BAEA8A01AC";
shapes = (
{
closed = 1;
nodes = (
(319,135,l),
(396,135,ls),
(441,135,o),
(460,113,o),
(452,68,cs),
(444,23,o),
(417,0,o),
(372,0,cs),
(68,0,ls),
(23,0,o),
(4,23,o),
(12,68,cs),
(20,113,o),
(47,135,o),
(92,135,cs),
(169,135,l),
(250,595,l),
(173,595,ls),
(128,595,o),
(109,618,o),
(117,663,cs),
(125,708,o),
(152,730,o),
(197,730,cs),
(501,730,ls),
(546,730,o),
(565,708,o),
(557,663,cs),
(549,618,o),
(522,595,o),
(477,595,cs),
(400,595,l)
);
}
);
width = 600;
},
{
layerId = "DDB6E94A-FF9F-44FE-9E50-A37C641AA6D0";
shapes = (
{
closed = 1;
nodes = (
(282,90,l),
(386,90,ls),
(413,90,o),
(428,72,o),
(423,45,cs),
(418,18,o),
(397,0,o),
(370,0,cs),
(70,0,ls),
(43,0,o),
(28,18,o),
(33,45,cs),
(38,72,o),
(59,90,o),
(86,90,cs),
(190,90,l),
(287,640,l),
(183,640,ls),
(156,640,o),
(141,658,o),
(146,685,cs),
(151,712,o),
(172,730,o),
(199,730,cs),
(499,730,ls),
(526,730,o),
(541,712,o),
(536,685,cs),
(531,658,o),
(510,640,o),
(483,640,cs),
(379,640,l)
);
}
);
width = 600;
},
{
layerId = "888E2163-DF89-49B9-A98A-97103207B079";
shapes = (
{
closed = 1;
nodes = (
(253,50,l),
(384,50,ls),
(399,50,o),
(407,40,o),
(404,25,cs),
(402,10,o),
(390,0,o),
(375,0,cs),
(65,0,ls),
(50,0,o),
(42,10,o),
(44,25,cs),
(47,40,o),
(59,50,o),
(74,50,cs),
(205,50,l),
(316,680,l),
(185,680,ls),
(170,680,o),
(162,690,o),
(164,705,cs),
(167,720,o),
(179,730,o),
(194,730,cs),
(504,730,ls),
(519,730,o),
(527,720,o),
(524,705,cs),
(522,690,o),
(510,680,o),
(495,680,cs),
(364,680,l)
);
}
);
width = 600;
}
);
unicode = 73;
},
{
color = (153, 254, 255, 255);
glyphname = IJ;
layers = (
{
layerId = "7B80DEB9-A0FA-491E-8DCF-B8BAEA8A01AC";
shapes = (
{
closed = 1;
nodes = (
(123,595,ls),
(78,595,o),
(59,618,o),
(67,663,cs),
(75,708,o),
(102,730,o),
(147,730,cs),
(489,730,ls),
(569,730,o),
(602,690,o),
(588,610,cs),
(506,149,ls),
(488,43,o),
(332,-80,o),
(216,-80,qs),
(102,-80,o),
(45,-17,qs),
(14,17,o),
(5,64,qs),
(-5,116,o),
(32,151,o),
(95,151,cs),
(124,151,o),
(141,135,o),
(162,91,c),
(166,84,o),
(171,78,qs),
(193,51,o),
(239,50,q),
(285,50,o),
(348,103,o),
(356,149,qs),
(426,545,ls),
(432,579,o),
(418,595,o),
(385,595,cs),
(300,595,l),
(254,335,l),
(281,335,ls),
(326,335,o),
(345,313,o),
(337,268,cs),
(329,223,o),
(302,200,o),
(257,200,cs),
(53,200,ls),
(8,200,o),
(-11,223,o),
(-3,268,cs),
(5,313,o),
(32,335,o),
(77,335,cs),
(104,335,l),
(150,595,l)
);
}
);
width = 600;
},
{
layerId = "DDB6E94A-FF9F-44FE-9E50-A37C641AA6D0";
shapes = (
{
closed = 1;
nodes = (
(135.849,640,ls),
(108.849,640,o),
(94.023,658,o),
(98.784,685,cs),
(103.545,712,o),
(124.719,730,o),
(151.719,730,cs),
(513.719,730,ls),
(567.719,730,o),
(589.134,704,o),
(579.613,650,cs),
(489.686,140,ls),
(471.7,38,o),
(329.894,-80,o),
(225.894,-80,qs),
(120.894,-80,o),
(71.297,-21,qs),
(33.232,24,o),
(34.751,95,qs),
(35.865,124,o),
(53.686,140,o),
(84.686,140,cs),
(112.686,140,o),
(124.394,127,o),
(126.751,95,cs),
(129.932,62,o),
(148.406,42,qs),
(178.763,10,o),
(241.763,10,qs),
(305.587,9,o),
(387.872,73,o),
(399.686,140,qs),
(480.796,600,ls),
(485.557,627,o),
(474.849,640,o),
(447.849,640,cs),
(281.849,640,l),
(220.135,290,l),
(274.135,290,ls),
(301.135,290,o),
(315.961,272,o),
(311.2,245,cs),
(306.439,218,o),
(285.265,200,o),
(258.265,200,cs),
(58.265,200,ls),
(31.265,200,o),
(16.439,218,o),
(21.2,245,cs),
(25.961,272,o),
(47.135,290,o),
(74.135,290,cs),
(128.135,290,l),
(189.849,640,l)
);
}
);
width = 600;
},
{
layerId = "888E2163-DF89-49B9-A98A-97103207B079";
shapes = (
{
closed = 1;
nodes = (
(114.902,680,ls),
(99.902,680,o),
(91.666,690,o),
(94.311,705,cs),
(96.955,720,o),
(108.719,730,o),
(123.719,730,cs),
(518.719,730,ls),
(558.719,730,o),
(575.192,710,o),
(568.139,670,cs),
(472.746,129,ls),
(455.642,32,o),
(325.894,-80,o),
(230.894,-80,qs),
(135.894,-80,o),
(90.768,-24,qs),
(52.408,25,o),
(59.514,105,qs),
(61.336,121,o),
(70.923,130,o),
(87.923,130,cs),
(103.923,130,o),
(110.512,122,o),
(109.514,105,cs),
(105.111,46,o),
(134.116,12,qs),
(168.71,-30,o),
(239.71,-30,qs),
(311.534,-31,o),
(409.345,53,o),
(422.746,129,qs),
(514.613,650,ls),
(518.139,670,o),
(509.902,680,o),
(489.902,680,cs),
(263.902,680,l),
(188.082,250,l),
(289.082,250,ls),
(304.082,250,o),
(312.318,240,o),
(309.674,225,cs),
(307.029,210,o),
(295.265,200,o),
(280.265,200,cs),
(30.265,200,ls),
(15.265,200,o),
(7.029,210,o),
(9.674,225,cs),
(12.318,240,o),
(24.082,250,o),
(39.082,250,cs),
(140.082,250,l),
(215.902,680,l)
);
}
);
width = 600;
}
);
unicode = 306;
},
{
color = (153, 254, 255, 255);
glyphname = J;
layers = (
{
layerId = "7B80DEB9-A0FA-491E-8DCF-B8BAEA8A01AC";
shapes = (
{
closed = 1;
nodes = (
(-27,209,o),
(7,241,o),
(65,241,cs),
(105,241,o),
(121,226,o),
(132,178,cs),
(141,141,o),
(169,125,o),
(212,125,cs),
(273,125,o),
(318,158,o),
(329,219,cs),
(383,530,ls),
(389,564,o),
(375,580,o),
(342,580,cs),
(252,580,ls),
(202,580,o),
(182,605,o),
(190,655,cs),
(199,705,o),
(229,730,o),
(279,730,cs),
(449,730,ls),
(529,730,o),
(562,690,o),
(548,610,cs),
(479,219,ls),
(454,78,o),
(342,-10,o),
(188,-10,cs),
(64,-10,o),
(-13,48,o),
(-22,156,cs)
);
}
);
width = 600;
},
{
layerId = "DDB6E94A-FF9F-44FE-9E50-A37C641AA6D0";
shapes = (
{
closed = 1;
nodes = (
(-3,192,o),
(17,210,o),
(51,210,cs),
(77,210,o),
(89,199,o),
(89,166,cs),
(91,107,o),
(130,70,o),
(202,70,cs),
(287,70,o),
(346,121,o),
(362,210,cs),
(431,600,ls),
(436,627,o),
(425,640,o),
(398,640,cs),
(248,640,ls),
(218,640,o),
(205,655,o),
(211,685,cs),
(216,715,o),
(234,730,o),
(264,730,cs),
(464,730,ls),
(518,730,o),
(539,704,o),
(530,650,cs),
(452,210,ls),
(428,74,o),
(327,-10,o),
(188,-10,cs),
(67,-10,o),
(-3,53,o),
(-3,159,cs)
);
}
);
width = 600;
},
{
layerId = "888E2163-DF89-49B9-A98A-97103207B079";
shapes = (
{
closed = 1;
nodes = (
(20,169,o),
(31,180,o),
(51,180,cs),
(65,180,o),
(70,174,o),
(69,153,cs),
(65,87,o),
(113,35,o),
(201,35,cs),
(297,35,o),
(367,98,o),
(385,199,cs),
(465,650,ls),
(468,670,o),
(460,680,o),
(440,680,cs),
(260,680,ls),
(243,680,o),
(236,688,o),
(239,705,cs),
(242,722,o),
(252,730,o),
(269,730,cs),
(469,730,ls),
(509,730,o),
(525,710,o),
(518,670,cs),
(435,199,ls),
(412,69,o),
(320,-10,o),
(193,-10,cs),
(76,-10,o),
(14,55,o),
(19,151,cs)
);
}
);
width = 600;
}
);
unicode = 74;
},
{
color = (153, 254, 255, 255);
glyphname = K;
layers = (
{
layerId = "7B80DEB9-A0FA-491E-8DCF-B8BAEA8A01AC";
shapes = (
{
closed = 1;
nodes = (
(146,65,ls),
(138,15,o),
(108,-10,o),
(58,-10,cs),
(8,-10,o),
(-12,15,o),
(-4,65,cs),
(102,665,ls),
(111,715,o),
(140,740,o),
(190,740,cs),
(240,740,o),
(261,715,o),
(252,665,cs)
);
},
{
closed = 1;
nodes = (
(176,460,l),
(399,695,ls),
(427,725,o),
(458,740,o),
(492,740,cs),
(541,740,o),
(583,708,o),
(528,648,cs),
(123,201,l)
);
},
{
closed = 1;
nodes = (
(307,444,l),
(460,88,ls),
(487,23,o),
(441,-10,o),
(386,-10,cs),
(347,-10,o),
(323,7,o),
(309,39,cs),
(185,321,l)
);
}
);
width = 600;
},
{
layerId = "DDB6E94A-FF9F-44FE-9E50-A37C641AA6D0";
shapes = (
{
closed = 1;
nodes = (
(108,35,ls),
(103,5,o),
(85,-10,o),
(55,-10,cs),
(25,-10,o),
(13,5,o),
(18,35,cs),
(135,695,ls),
(140,725,o),
(157,740,o),
(187,740,cs),
(217,740,o),
(230,725,o),
(225,695,cs)
);
},
{
closed = 1;
nodes = (
(156,394,l),
(450,712,ls),
(467,731,o),
(487,740,o),
(505,740,cs),
(530,740,o),
(564,722,o),
(530,684,cs),
(131,248,l)
);
},
{
closed = 1;
nodes = (
(273,442,l),
(443,51,ls),
(461,10,o),
(434,-10,o),
(398,-10,cs),
(373,-10,o),
(358,0,o),
(350,20,cs),
(198,357,l)
);
}
);
width = 600;
},
{
layerId = "888E2163-DF89-49B9-A98A-97103207B079";
shapes = (
{
closed = 1;
nodes = (
(83,15,ls),
(80,-2,o),
(70,-10,o),
(53,-10,cs),
(36,-10,o),
(30,-2,o),
(33,15,cs),
(156,715,ls),
(159,732,o),
(168,740,o),
(185,740,cs),
(202,740,o),
(209,732,o),
(206,715,cs)
);
},
{
closed = 1;
nodes = (
(121,328,l),
(489,723,ls),
(503,737,o),
(513,740,o),
(523,740,cs),
(544,740,o),
(560,728,o),
(538,705,cs),
(107,247,l)
);
},
{
closed = 1;
nodes = (
(266,444,l),
(444,25,ls),
(454,2,o),
(435,-10,o),
(417,-10,cs),
(405,-10,o),
(396,-5,o),
(391,7,cs),
(223,399,l)
);
}
);
width = 600;
}
);
unicode = 75;
},
{
color = (153, 254, 255, 255);
glyphname = L;
layers = (
{
layerId = "7B80DEB9-A0FA-491E-8DCF-B8BAEA8A01AC";
shapes = (
{
closed = 1;
nodes = (
(155,0,ls),
(75,0,o),
(42,40,o),
(56,120,cs),
(152,665,ls),
(161,715,o),
(190,740,o),
(240,740,cs),
(290,740,o),
(311,715,o),
(302,665,cs),
(219,195,ls),
(212,155,o),
(229,135,o),
(269,135,cs),
(437,135,ls),
(482,135,o),
(500,113,o),
(492,68,cs),
(484,23,o),
(457,0,o),
(412,0,cs)
);
}
);
width = 600;
},
{
layerId = "DDB6E94A-FF9F-44FE-9E50-A37C641AA6D0";
shapes = (
{
closed = 1;
nodes = (
(130,0,ls),
(76,0,o),
(55,26,o),
(64,80,cs),
(173,695,ls),
(178,725,o),
(195,740,o),
(225,740,cs),
(255,740,o),
(268,725,o),
(263,695,cs),
(163,130,ls),
(158,103,o),
(169,90,o),
(196,90,cs),
(441,90,ls),
(468,90,o),
(483,72,o),
(478,45,cs),
(473,18,o),
(452,0,o),
(425,0,cs)
);
}
);
width = 600;
},
{
layerId = "888E2163-DF89-49B9-A98A-97103207B079";
shapes = (
{
closed = 1;
nodes = (
(120,0,ls),
(80,0,o),
(64,20,o),
(71,60,cs),
(186,715,ls),
(189,732,o),
(198,740,o),
(215,740,cs),
(232,740,o),
(239,732,o),
(236,715,cs),
(124,80,ls),
(121,60,o),
(129,50,o),
(149,50,cs),
(449,50,ls),
(464,50,o),
(472,40,o),
(469,25,cs),
(467,10,o),
(455,0,o),
(440,0,cs)
);
}
);
width = 600;
}
);
unicode = 76;
},
{
color = (153, 254, 255, 255);
glyphname = M;
layers = (
{
layerId = "7B80DEB9-A0FA-491E-8DCF-B8BAEA8A01AC";
shapes = (
{
closed = 1;
nodes = (
(491,60,ls),
(482,13,o),
(455,-10,o),
(408,-10,cs),
(361,-10,o),
(342,13,o),
(351,60,cs),
(430,510,ls),
(431,517,o),
(423,517,o),
(421,510,cs),
(345,298,ls),
(331,259,o),
(302,240,o),
(262,240,cs),
(222,240,o),
(201,259,o),
(201,298,cs),
(199,510,ls),
(199,516,o),
(191,517,o),
(190,510,cs),
(111,60,ls),
(102,13,o),
(75,-10,o),
(28,-10,cs),
(-19,-10,o),
(-38,13,o),
(-29,60,cs),
(67,608,ls),
(83,696,o),
(125,740,o),
(204,740,cs),
(266,740,o),
(293,713,o),
(292,658,cs),
(291,460,ls),
(291,440,o),
(305,439,o),
(312,460,cs),
(380,658,ls),
(399,713,o),
(444,740,o),
(502,740,cs),
(575,740,o),
(603,696,o),
(588,614,cs)
);
}
);
width = 600;
},
{
layerId = "DDB6E94A-FF9F-44FE-9E50-A37C641AA6D0";
shapes = (
{
closed = 1;
nodes = (
(466,35,ls),
(461,5,o),
(443,-10,o),
(413,-10,cs),
(383,-10,o),
(371,5,o),
(376,35,cs),
(474,590,ls),
(476,602,o),
(467,602,o),
(461,590,cs),
(323,297,ls),
(312,272,o),
(292,260,o),
(266,260,cs),
(240,260,o),
(224,272,o),
(221,297,cs),
(187,590,ls),
(185,603,o),
(176,602,o),
(174,590,cs),
(76,35,ls),
(71,5,o),
(53,-10,o),
(23,-10,cs),
(-7,-10,o),
(-19,5,o),
(-14,35,cs),
(95,655,ls),
(106,712,o),
(138,740,o),
(190,740,cs),
(231,740,o),
(254,722,o),
(258,685,cs),
(281,410,ls),
(283,392,o),
(295,392,o),
(303,410,cs),
(424,685,ls),
(440,722,o),
(469,740,o),
(510,740,cs),
(562,740,o),
(586,712,o),
(575,655,cs)
);
}
);
width = 600;
},
{
layerId = "888E2163-DF89-49B9-A98A-97103207B079";
shapes = (
{
closed = 1;
nodes = (
(433,15,ls),
(430,-2,o),
(420,-10,o),
(403,-10,cs),
(386,-10,o),
(380,-2,o),
(383,15,cs),
(493,640,ls),
(495,650,o),
(486,651,o),
(480,640,cs),
(311,306,ls),
(302,288,o),
(288,280,o),
(269,280,cs),
(250,280,o),
(240,288,o),
(237,306,cs),
(186,640,ls),
(184,652,o),
(174,649,o),
(173,640,cs),
(63,15,ls),
(60,-2,o),
(50,-10,o),
(33,-10,cs),
(16,-10,o),
(10,-2,o),
(13,15,cs),
(132,692,ls),
(138,724,o),
(156,740,o),
(187,740,cs),
(212,740,o),
(227,729,o),
(229,706,cs),
(278,380,ls),
(280,368,o),
(290,368,o),
(296,380,cs),
(459,706,ls),
(471,729,o),
(488,740,o),
(513,740,cs),
(544,740,o),
(558,724,o),
(552,692,cs)
);
}
);
width = 600;
}
);
unicode = 77;
},
{
color = (153, 254, 255, 255);
glyphname = N;
layers = (
{
layerId = "7B80DEB9-A0FA-491E-8DCF-B8BAEA8A01AC";
shapes = (
{
closed = 1;
nodes = (
(81,629,ls),
(94,703,o),
(137,740,o),
(206,740,cs),
(261,740,o),
(287,716,o),
(295,669,cs),
(362,240,ls),
(363,236,o),
(364,234,o),
(367,234,cs),
(370,234,o),
(372,236,o),
(372,240,cs),
(448,670,ls),
(456,717,o),
(483,740,o),
(530,740,cs),
(577,740,o),
(596,717,o),
(588,670,cs),
(488,101,ls),
(475,27,o),
(431,-10,o),
(362,-10,cs),
(307,-10,o),
(281,14,o),
(274,61,cs),
(206,490,ls),
(206,494,o),
(204,496,o),
(201,496,cs),
(198,496,o),
(197,494,o),
(196,490,cs),
(121,60,ls),
(112,13,o),
(85,-10,o),
(38,-10,cs),
(-9,-10,o),
(-28,13,o),
(-19,60,cs)
);
}
);
width = 600;
},
{
layerId = "DDB6E94A-FF9F-44FE-9E50-A37C641AA6D0";
shapes = (
{
closed = 1;
nodes = (
(117,662,ls),
(126,714,o),
(156,740,o),
(204,740,cs),
(243,740,o),
(261,723,o),
(268,690,cs),
(367,150,ls),
(368,146,o),
(368,144,o),
(371,144,cs),
(374,144,o),
(376,146,o),
(376,150,cs),
(473,695,ls),
(478,725,o),
(495,740,o),
(525,740,cs),
(555,740,o),
(568,725,o),
(563,695,cs),
(452,68,ls),
(443,16,o),
(412,-10,o),
(364,-10,cs),
(325,-10,o),
(307,7,o),
(301,40,cs),
(201,580,ls),
(201,584,o),
(200,586,o),
(197,586,cs),
(194,586,o),
(193,584,o),
(192,580,cs),
(96,35,ls),
(91,5,o),
(73,-10,o),
(43,-10,cs),
(13,-10,o),
(1,5,o),
(6,35,cs)
);
}
);
width = 600;
},
{
layerId = "888E2163-DF89-49B9-A98A-97103207B079";
shapes = (
{
closed = 1;
nodes = (
(152,693,ls),
(158,724,o),
(176,740,o),
(207,740,cs),
(231,740,o),
(245,729,o),
(249,707,cs),
(364,80,ls),
(364,76,o),
(366,74,o),
(369,74,cs),
(372,74,o),
(373,76,o),
(374,80,cs),
(486,715,ls),
(489,732,o),
(498,740,o),
(515,740,cs),
(532,740,o),
(539,732,o),
(536,715,cs),
(417,37,ls),
(411,6,o),
(392,-10,o),
(361,-10,cs),
(337,-10,o),
(324,1,o),
(320,23,cs),
(205,650,ls),
(204,654,o),
(203,656,o),
(200,656,cs),
(197,656,o),
(195,654,o),
(195,650,cs),
(83,15,ls),
(80,-2,o),
(70,-10,o),
(53,-10,cs),
(36,-10,o),
(30,-2,o),
(33,15,cs)
);
}
);
width = 600;
}
);
unicode = 78;
},
{
color = (153, 254, 255, 255);
glyphname = O;
layers = (
{
layerId = "7B80DEB9-A0FA-491E-8DCF-B8BAEA8A01AC";
shapes = (
{
closed = 1;
nodes = (
(337,125,o),
(375,283,o),
(389,365,cs),
(404,448,o),
(422,605,o),
(327,605,cs),
(233,605,o),
(194,447,o),
(179,365,cs),
(165,283,o),
(148,125,o),
(242,125,cs)
);
},
{
closed = 1;
nodes = (
(3,-10,o),
(2,208,o),
(29,365,cs),
(57,522,o),
(132,740,o),
(350,740,cs),
(566,740,o),
(567,524,o),
(540,371,cs),
(512,208,o),
(432,-10,o),
(218,-10,cs)
);
}
);
width = 600;
},
{
layerId = "DDB6E94A-FF9F-44FE-9E50-A37C641AA6D0";
shapes = (
{
closed = 1;
nodes = (
(362,80,o),
(415,271,o),
(432,367,cs),
(448,460,o),
(464,650,o),
(335,650,cs),
(206,650,o),
(154,459,o),
(138,366,cs),
(121,271,o),
(106,80,o),
(234,80,cs)
);
},
{
closed = 1;
nodes = (
(18,-10,o),
(20,208,o),
(48,367,cs),
(75,522,o),
(148,740,o),
(350,740,cs),
(551,740,o),
(549,524,o),
(522,368,cs),
(494,208,o),
(417,-10,o),
(218,-10,cs)
);
}
);
width = 600;
},
{
layerId = "888E2163-DF89-49B9-A98A-97103207B079";
shapes = (
{
closed = 1;
nodes = (
(380,40,o),
(446,260,o),
(465,367,cs),
(483,472,o),
(496,690,o),
(342,690,cs),
(188,690,o),
(123,470,o),
(104,365,cs),
(86,260,o),
(74,40,o),
(227,40,cs)
);
},
{
closed = 1;
nodes = (
(24,-10,o),
(27,208,o),
(55,367,cs),
(82,522,o),
(154,740,o),
(350,740,cs),
(546,740,o),
(542,524,o),
(515,369,cs),
(487,208,o),
(411,-10,o),
(218,-10,cs)
);
}
);
width = 600;
}
);
unicode = 79;
},
{
color = (153, 254, 255, 255);
glyphname = OE;
layers = (
{
layerId = "7B80DEB9-A0FA-491E-8DCF-B8BAEA8A01AC";
shapes = (
{
closed = 1;
nodes = (
(235,115,o),
(275,283,o),
(290,365,cs),
(304,448,o),
(325,615,o),
(250,615,cs),
(176,615,o),
(134,447,o),
(120,365,cs),
(105,283,o),
(86,115,o),
(160,115,cs)
);
},
{
closed = 1;
nodes = (
(-57,-10,o),
(-58,208,o),
(-30,365,cs),
(-2,522,o),
(76,740,o),
(271,740,cs),
(470,740,o),
(468,524,o),
(440,365,cs),
(412,208,o),
(332,-10,o),
(138,-10,cs)
);
},
{
closed = 1;
nodes = (
(185,0,l),
(298,130,l),
(493,130,ls),
(537,130,o),
(554,109,o),
(547,65,cs),
(538,21,o),
(514,0,o),
(470,0,cs)
);
},
{
closed = 1;
nodes = (
(319,308,l),
(344,440,l),
(517,440,ls),
(559,440,o),
(578,417,o),
(571,375,cs),
(563,333,o),
(534,308,o),
(492,308,cs)
);
},
{
closed = 1;
nodes = (
(382,600,l),
(315,730,l),
(600,730,ls),
(644,730,o),
(661,709,o),
(653,665,cs),
(645,621,o),
(621,600,o),
(577,600,cs)
);
}
);
width = 600;
},
{
layerId = "DDB6E94A-FF9F-44FE-9E50-A37C641AA6D0";
shapes = (
{
closed = 1;
nodes = (
(262,80,o),
(316,271,o),
(332,365,cs),
(349,460,o),
(364,650,o),
(255,650,cs),
(146,650,o),
(95,459,o),
(78,365,cs),
(62,271,o),
(46,80,o),
(154,80,cs)
);
},
{
closed = 1;
nodes = (
(-42,-10,o),
(-40,208,o),
(-12,365,cs),
(16,522,o),
(91,740,o),
(271,740,cs),
(454,740,o),
(450,524,o),
(422,365,cs),
(394,208,o),
(317,-10,o),
(138,-10,cs)
);
},
{
closed = 1;
nodes = (
(180,0,l),
(246,90,l),
(495,90,ls),
(522,90,o),
(532,72,o),
(528,45,cs),
(523,18,o),
(506,0,o),
(479,0,cs)
);
},
{
closed = 1;
nodes = (
(365,337,l),
(381,427,l),
(521,427,ls),
(548,427,o),
(563,409,o),
(558,382,cs),
(553,355,o),
(532,337,o),
(505,337,cs)
);
},
{
closed = 1;
nodes = (
(344,640,l),
(310,730,l),
(609,730,ls),
(636,730,o),
(646,712,o),
(642,685,cs),
(637,658,o),
(620,640,o),
(593,640,cs)
);
}
);
width = 600;
},
{
layerId = "888E2163-DF89-49B9-A98A-97103207B079";
shapes = (
{
closed = 1;
nodes = (
(281,40,o),
(340,260,o),
(359,365,cs),
(378,472,o),
(397,690,o),
(263,690,cs),
(129,690,o),
(70,470,o),
(51,365,cs),
(32,260,o),
(15,40,o),
(148,40,cs)
);
},
{
closed = 1;
nodes = (
(-36,-10,o),
(-27,208,o),
(1,365,cs),
(29,522,o),
(97,740,o),
(271,740,cs),
(449,740,o),
(437,524,o),
(409,365,cs),
(381,208,o),
(311,-10,o),
(138,-10,cs)
);
},
{
closed = 1;
nodes = (
(190,0,l),
(214,50,l),
(496,50,ls),
(511,50,o),
(518,40,o),
(514,25,cs),
(512,10,o),
(502,0,o),
(487,0,cs)
);
},
{
closed = 1;
nodes = (
(384,356,l),
(392,406,l),
(525,406,ls),
(540,406,o),
(545,396,o),
(543,381,cs),
(540,366,o),
(532,356,o),
(517,356,cs)
);
},
{
closed = 1;
nodes = (
(326,680,l),
(320,730,l),
(617,730,ls),
(632,730,o),
(638,720,o),
(635,705,cs),
(633,690,o),
(623,680,o),
(608,680,cs)
);
}
);
width = 600;
}
);
unicode = 338;
},
{
color = (153, 254, 255, 255);
glyphname = P;
layers = (
{
layerId = "7B80DEB9-A0FA-491E-8DCF-B8BAEA8A01AC";
shapes = (
{
closed = 1;
nodes = (
(186.19,286,l),
(147,65,ls),
(139,15,o),
(108,-10,o),
(58,-10,cs),
(8,-10,o),
(-11,15,o),
(-3,65,cs),
(97,630,ls),
(109,697,o),
(148,730,o),
(215,730,cs),
(364,730,ls),
(500,730,o),
(605,654,o),
(580,508,cs),
(554,363,o),
(420,286,o),
(285,286,cs)
);
},
{
closed = 1;
nodes = (
(209.24,416,l),
(308,416,ls),
(367,416,o),
(418,445,o),
(430,508,cs),
(441,571,o),
(400,600,o),
(341,600,cs),
(292,600,ls),
(259,600,o),
(239,583,o),
(233,550,cs)
);
}
);
width = 600;
},
{
layerId = "DDB6E94A-FF9F-44FE-9E50-A37C641AA6D0";
shapes = (
{
closed = 1;
nodes = (
(158.44,320,l),
(108,35,ls),
(103,5,o),
(85,-10,o),
(55,-10,cs),
(25,-10,o),
(13,5,o),
(18,35,cs),
(127,650,ls),
(136,704,o),
(167,730,o),
(221,730,cs),
(376,730,ls),
(502,730,o),
(586,656,o),
(563,525,cs),
(539,394,o),
(428,320,o),
(303,320,cs)
);
},
{
closed = 1;
nodes = (
(174.37,410,l),
(319,410,ls),
(390,410,o),
(456,449,o),
(470,525,cs),
(483,602,o),
(432,640,o),
(360,640,cs),
(255,640,ls),
(228,640,o),
(213,627,o),
(208,600,cs)
);
}
);
width = 600;
},
{
layerId = "888E2163-DF89-49B9-A98A-97103207B079";
shapes = (
{
closed = 1;
nodes = (
(141.03,344,l),
(83,15,ls),
(80,-2,o),
(70,-10,o),
(53,-10,cs),
(36,-10,o),
(30,-2,o),
(33,15,cs),
(148,670,ls),
(155,710,o),
(179,730,o),
(219,730,cs),
(374,730,ls),
(492,730,o),
(571,660,o),
(550,537,cs),
(528,414,o),
(424,344,o),
(306,344,cs)
);
},
{
closed = 1;
nodes = (
(149.85,394,l),
(314,394,ls),
(405,394,o),
(483,440,o),
(500,537,cs),
(517,635,o),
(457,680,o),
(365,680,cs),
(230,680,ls),
(210,680,o),
(198,670,o),
(195,650,cs)
);
}
);
width = 600;
}
);
unicode = 80;
},
{
color = (153, 254, 255, 255);
glyphname = Thorn;
layers = (
{
layerId = "7B80DEB9-A0FA-491E-8DCF-B8BAEA8A01AC";
shapes = (
{
closed = 1;
nodes = (
(191,290,l),
(286,290,ls),
(337,290,o),
(399,337,o),
(407,380,qs),
(415,424,o),
(369,470,o),
(318,470,qs),
(223,470,l)
);
},
{
closed = 1;
nodes = (
(153,75,ls),
(144,25,o),
(115,0,o),
(65,0,cs),
(15,0,o),
(-6,25,o),
(3,75,cs),
(105,655,ls),
(114,705,o),
(144,730,o),
(194,730,cs),
(244,730,o),
(264,705,o),
(255,655,cs),
(245,595,l),
(365,595,ls),
(437,595,o),
(531,544,o),
(569,448,o),
(557,380,qs),
(539,280,o),
(396,165,o),
(289,165,qs),
(169,165,l)
);
}
);
width = 600;
},
{
layerId = "DDB6E94A-FF9F-44FE-9E50-A37C641AA6D0";
shapes = (
{
closed = 1;
nodes = (
(146,260,l),
(299,260,ls),
(357,260,o),
(434,325,o),
(444,380,qs),
(454,436,o),
(398,500,o),
(341,500,qs),
(188,500,l)
);
},
{
closed = 1;
nodes = (
(108,45,ls),
(103,15,o),
(85,0,o),
(55,0,cs),
(25,0,o),
(13,15,o),
(18,45,cs),
(131,685,ls),
(136,715,o),
(154,730,o),
(184,730,cs),
(214,730,o),
(226,715,o),
(221,685,cs),
(202,580,l),
(355,580,ls),
(421,580,o),
(509,530,o),
(548,440,o),
(537,380,qs),
(521,289,o),
(384,180,o),
(285,180,qs),
(132,180,l)
);
}
);
width = 600;
},
{
layerId = "888E2163-DF89-49B9-A98A-97103207B079";
shapes = (
{
closed = 1;
nodes = (
(117,241,l),
(295,241,ls),
(363,241,o),
(456,316,o),
(467,380,qs),
(478,445,o),
(413,520,o),
(345,520,qs),
(167,520,l)
);
},
{
closed = 1;
nodes = (
(79,25,ls),
(76,8,o),
(67,0,o),
(50,0,cs),
(33,0,o),
(26,8,o),
(29,25,cs),
(149,705,ls),
(152,722,o),
(162,730,o),
(179,730,cs),
(196,730,o),
(202,722,o),
(199,705,cs),
(175,565,l),
(353,565,ls),
(414,565,o),
(494,520,o),
(527,437,o),
(517,380,qs),
(502,295,o),
(378,195,o),
(287,195,qs),
(109,195,l)
);
}
);
width = 600;
}
);
unicode = 222;
},
{
color = (153, 254, 255, 255);
glyphname = Q;
layers = (
{
layerId = "7B80DEB9-A0FA-491E-8DCF-B8BAEA8A01AC";
shapes = (
{
closed = 1;
nodes = (
(335,115,o),
(375,283,o),
(389,365,cs),
(404,448,o),
(423,615,o),
(328,615,cs),
(234,615,o),
(194,447,o),
(179,365,cs),
(165,283,o),
(146,115,o),
(240,115,cs)
);
},
{
closed = 1;
nodes = (
(3,-10,o),
(2,208,o),
(30,368,cs),
(57,522,o),
(132,740,o),
(350,740,cs),
(566,740,o),
(567,524,o),
(540,368,cs),
(512,208,o),
(432,-10,o),
(218,-10,cs)
);
},
{
closed = 1;
nodes = (
(197,-177,ls),
(160,-165,o),
(148,-138,o),
(167,-97,cs),
(186,-59,o),
(214,-45,o),
(250,-56,cs),
(403,-102,ls),
(441,-114,o),
(453,-141,o),
(433,-183,cs),
(414,-224,o),
(385,-233,o),
(349,-223,cs)
);
}
);
width = 600;
},
{
layerId = "DDB6E94A-FF9F-44FE-9E50-A37C641AA6D0";
shapes = (
{
closed = 1;
nodes = (
(362,80,o),
(415,271,o),
(432,367,cs),
(448,460,o),
(464,650,o),
(335,650,cs),
(206,650,o),
(154,459,o),
(138,366,cs),
(121,271,o),
(106,80,o),
(234,80,cs)
);
},
{
closed = 1;
nodes = (
(18,-10,o),
(20,208,o),
(48,367,cs),
(75,522,o),
(148,740,o),
(350,740,cs),
(551,740,o),
(549,524,o),
(522,368,cs),
(494,208,o),
(417,-10,o),
(218,-10,cs)
);
},
{
closed = 1;
nodes = (
(193,-154,ls),
(164,-146,o),
(159,-127,o),
(172,-99,cs),
(183,-76,o),
(200,-61,o),
(224,-67,cs),
(396,-113,ls),
(424,-121,o),
(432,-141,o),
(419,-168,cs),
(406,-196,o),
(382,-207,o),
(358,-200,cs)
);
}
);
width = 600;
},
{
layerId = "888E2163-DF89-49B9-A98A-97103207B079";
shapes = (
{
closed = 1;
nodes = (
(380,40,o),
(446,260,o),
(465,367,cs),
(483,472,o),
(496,690,o),
(342,690,cs),
(188,690,o),
(123,470,o),
(104,365,cs),
(86,260,o),
(74,40,o),
(227,40,cs)
);
},
{
closed = 1;
nodes = (
(24,-10,o),
(27,208,o),
(55,367,cs),
(82,522,o),
(154,740,o),
(350,740,cs),
(546,740,o),
(542,524,o),
(515,369,cs),
(487,208,o),
(411,-10,o),
(218,-10,cs)
);
},
{
closed = 1;
nodes = (
(189,-124,ls),
(172,-119,o),
(172,-107,o),
(177,-95,cs),
(184,-78,o),
(198,-73,o),
(211,-76,cs),
(395,-127,ls),
(411,-131,o),
(413,-145,o),
(407,-159,cs),
(400,-175,o),
(386,-180,o),
(373,-176,cs)
);
}
);
width = 600;
}
);
unicode = 81;
},
{
color = (153, 254, 255, 255);
glyphname = R;
layers = (
{
anchors = (
{
name = bottom;
position = "{220, 0}";
},
{
name = top;
position = "{349, 730}";
}
);
layerId = "7B80DEB9-A0FA-491E-8DCF-B8BAEA8A01AC";
shapes = (
{
closed = 1;
nodes = (
(209.24,416,l),
(308,416,ls),
(367,416,o),
(418,445,o),
(430,508,cs),
(441,571,o),
(400,600,o),
(341,600,cs),
(292,600,ls),
(259,600,o),
(239,583,o),
(233,550,cs)
);
},
{
closed = 1;
nodes = (
(186.19,286,l),
(147,65,ls),
(139,15,o),
(108,-10,o),
(58,-10,cs),
(8,-10,o),
(-11,15,o),
(-3,65,cs),
(97,630,ls),
(109,697,o),
(148,730,o),
(215,730,cs),
(364,730,ls),
(500,730,o),
(605,654,o),
(580,508,cs),
(561.61,405.45,o),
(489.2,336.93,o),
(400.62,305.58,c),
(474,79,ls),
(493,19,o),
(470,-10,o),
(397,-10,cs),
(364,-10,o),
(338,-4,o),
(326,35,cs),
(250.29,286,l)
);
}
);
width = 600;
},
{
anchors = (
{
name = bottom;
position = "{220, 0}";
},
{
name = top;
position = "{349, 730}";
}
);
layerId = "DDB6E94A-FF9F-44FE-9E50-A37C641AA6D0";
shapes = (
{
closed = 1;
nodes = (
(174.37,410,l),
(319,410,ls),
(390,410,o),
(456,449,o),
(470,525,cs),
(483,602,o),
(432,640,o),
(360,640,cs),
(255,640,ls),
(228,640,o),
(213,627,o),
(208,600,cs)
);
},
{
closed = 1;
nodes = (
(158.44,320,l),
(108,35,ls),
(103,5,o),
(85,-10,o),
(55,-10,cs),
(25,-10,o),
(13,5,o),
(18,35,cs),
(127,650,ls),
(136,704,o),
(167,730,o),
(221,730,cs),
(376,730,ls),
(502,730,o),
(586,656,o),
(563,525,cs),
(543.51,418.64,o),
(466.68,349.88,o),
(371.57,327.76,c),
(460,49,ls),
(473,9,o),
(456,-10,o),
(418,-10,cs),
(390,-10,o),
(376,0,o),
(370,20,cs),
(276.52,320,l)
);
}
);
width = 600;
},
{
anchors = (
{
name = bottom;
position = "{220, 0}";
},
{
name = top;
position = "{349, 730}";
}
);
layerId = "888E2163-DF89-49B9-A98A-97103207B079";
shapes = (
{
closed = 1;
nodes = (
(149.85,394,l),
(314,394,ls),
(405,394,o),
(483,440,o),
(500,537,cs),
(517,635,o),
(457,680,o),
(365,680,cs),
(230,680,ls),
(210,680,o),
(198,670,o),
(195,650,cs)
);
},
{
closed = 1;
nodes = (
(141.03,344,l),
(83,15,ls),
(80,-2,o),
(70,-10,o),
(53,-10,cs),
(36,-10,o),
(30,-2,o),
(33,15,cs),
(148,670,ls),
(155,710,o),
(179,730,o),
(219,730,cs),
(374,730,ls),
(492,730,o),
(571,660,o),
(550,537,cs),
(529.73,423.69,o),
(439.87,355.37,o),
(333.59,345.31,c),
(445,25,ls),
(453,1,o),
(445,-10,o),
(422,-10,cs),
(405,-10,o),
(396,-4,o),
(392,8,cs),
(279.38,344,l)
);
}
);
width = 600;
}
);
unicode = 82;
},
{
color = (153, 254, 255, 255);
glyphname = S;
layers = (
{
anchors = (
{
name = bottom;
position = "{220, 0}";
},
{
name = top;
position = "{349, 730}";
}
);
layerId = "7B80DEB9-A0FA-491E-8DCF-B8BAEA8A01AC";
shapes = (
{
closed = 1;
nodes = (
(418,538,o),
(440,529,o),
(472,529,cs),
(533,529,o),
(563,570,o),
(543,632,cs),
(523,697,o),
(456,740,o),
(350,740,cs),
(204,740,o),
(100,659,o),
(78,533,cs),
(57,412,o),
(102,350,o),
(223,320,cs),
(308,299,ls),
(353,288,o),
(370,247,o),
(362,206,cs),
(353,154,o),
(307,125,o),
(242,125,cs),
(197,125,o),
(165,143,o),
(153,170,cs),
(137,204,o),
(114,210,o),
(91,210,cs),
(25,210,o),
(-8,165,o),
(10,106,cs),
(31,37,o),
(94,-10,o),
(218,-10,cs),
(391,-10,o),
(486,75,o),
(510,208,cs),
(530,323,o),
(472,404,o),
(362,431,cs),
(275,452,ls),
(232,462,o),
(216,484,o),
(225,533,cs),
(233,580,o),
(270,605,o),
(327,605,cs),
(364,605,o),
(388,592,o),
(401,570,cs)
);
}
);
width = 600;
},
{
anchors = (
{
name = bottom;
position = "{220, 0}";
},
{
name = top;
position = "{349, 730}";
}
);
layerId = "DDB6E94A-FF9F-44FE-9E50-A37C641AA6D0";
shapes = (
{
closed = 1;
nodes = (
(441,558,o),
(453,547,o),
(479,547,cs),
(511,547,o),
(528,564,o),
(527,592,cs),
(523,681,o),
(454,740,o),
(347,740,cs),
(224,740,o),
(127,661,o),
(106,545,cs),
(90,451,o),
(133,378,o),
(220,352,cs),
(326,321,ls),
(381,305,o),
(404,259,o),
(393,199,cs),
(380,122,o),
(321,80,o),
(235,80,cs),
(169,80,o),
(129,108,o),
(121,162,cs),
(116,191,o),
(96,200,o),
(69,200,cs),
(41,200,o),
(24,180,o),
(23,155,cs),
(23,51,o),
(98,-10,o),
(218,-10,cs),
(358,-10,o),
(461,72,o),
(483,199,cs),
(501,301,o),
(458,380,o),
(366,407,cs),
(257,439,ls),
(208,454,o),
(187,493,o),
(196,547,cs),
(207,604,o),
(261,650,o),
(332,650,cs),
(386,650,o),
(425,633,o),
(435,585,cs)
);
}
);
width = 600;
},
{
anchors = (
{
name = bottom;
position = "{220, 0}";
},
{
name = top;
position = "{349, 730}";
}
);
layerId = "888E2163-DF89-49B9-A98A-97103207B079";
shapes = (
{
closed = 1;
nodes = (
(469,557,o),
(479,550,o),
(495,550,cs),
(512,550,o),
(522,558,o),
(523,574,cs),
(529,672,o),
(461,740,o),
(350,740,cs),
(236,740,o),
(142,666,o),
(124,559,cs),
(108,471,o),
(151,399,o),
(235,372,cs),
(331,341,ls),
(398,319,o),
(430,257,o),
(417,184,cs),
(402,94,o),
(322,40,o),
(227,40,cs),
(135,40,o),
(89,94,o),
(92,173,cs),
(92,199,o),
(83,205,o),
(67,205,cs),
(50,205,o),
(38,192,o),
(37,176,cs),
(28,65,o),
(97,-10,o),
(218,-10,cs),
(343,-10,o),
(447,69,o),
(467,183,cs),
(484,279,o),
(439,357,o),
(351,386,cs),
(255,418,ls),
(192,439,o),
(162,495,o),
(174,561,cs),
(188,642,o),
(257,690,o),
(343,690,cs),
(426,690,o),
(464,638,o),
(468,574,cs)
);
}
);
width = 600;
}
);
unicode = 83;
},
{
color = (153, 254, 255, 255);
glyphname = Germandbls;
layers = (
{
layerId = "7B80DEB9-A0FA-491E-8DCF-B8BAEA8A01AC";
shapes = (
{
closed = 1;
nodes = (
(3,0,o),
(-16,23,o),
(-8,68,cs),
(70,511,ls),
(95,652,o),
(210,730,o),
(345,730,cs),
(501,730,ls),
(564,730,o),
(589,699,o),
(578,636,cs),
(573,605,o),
(557,577,o),
(532,554,cs),
(426,458,ls),
(400,434,o),
(401,420,o),
(431,407,cs),
(503,375,o),
(533,305,o),
(517,215,cs),
(492,74,o),
(371,4,o),
(241,0,cs),
(200,-1,o),
(183,21,o),
(190,63,cs),
(197,103,o),
(219,122,o),
(264,128,cs),
(314,135,o),
(356,157,o),
(368,227,cs),
(379,291,o),
(351,314,o),
(309,323,cs),
(259,333,o),
(242,355,o),
(250,401,cs),
(254,426,o),
(266,447,o),
(286,465,cs),
(398,568,ls),
(426,593,o),
(423,605,o),
(389,605,cs),
(322,605,ls),
(264,605,o),
(216,571,o),
(205,511,cs),
(127,68,ls),
(119,23,o),
(93,0,o),
(48,0,cs)
);
}
);
width = 600;
},
{
layerId = "DDB6E94A-FF9F-44FE-9E50-A37C641AA6D0";
shapes = (
{
closed = 1;
nodes = (
(27,0,o),
(14.645,15,o),
(19.935,45,cs),
(104.395,524,ls),
(126.613,650,o),
(225.719,730,o),
(350.719,730,cs),
(518.719,730,ls),
(557.719,730,o),
(574.192,710,o),
(567.315,671,cs),
(563.789,651,o),
(555.791,634,o),
(540.97,618,cs),
(391.229,455,ls),
(372.526,434,o),
(374.763,424,o),
(400.528,417,cs),
(485.297,393,o),
(514.661,310,o),
(497.91,215,cs),
(471.109,63,o),
(359,0,o),
(219,0,cs),
(192,0,o),
(180.469,14,o),
(185.229,41,cs),
(189.99,68,o),
(205.459,82,o),
(233.635,83,cs),
(314.34,87,o),
(383.867,107,o),
(402.91,215,cs),
(419.661,310,o),
(371.246,336,o),
(302.48,343,cs),
(267.009,346,o),
(254.007,363,o),
(260.002,397,cs),
(262.999,414,o),
(270.821,430,o),
(283.289,444,cs),
(438.617,616,ls),
(458.497,638,o),
(455.26,648,o),
(428.26,648,cs),
(336.26,648,ls),
(260.26,648,o),
(207.62,599,o),
(194.395,524,cs),
(109.935,45,ls),
(104.645,15,o),
(87,0,o),
(57,0,cs)
);
}
);
width = 600;
},
{
layerId = "888E2163-DF89-49B9-A98A-97103207B079";
shapes = (
{
closed = 1;
nodes = (
(38,0,o),
(31,8,o),
(34,25,cs),
(126,543,ls),
(146,660,o),
(239,730,o),
(354,730,cs),
(535,730,ls),
(556,730,o),
(564,720,o),
(560,699,cs),
(558,689,o),
(554,680,o),
(546,672,cs),
(330,431,ls),
(315,415,o),
(318,408,o),
(337,405,cs),
(438,392,o),
(497,322,o),
(477,210,cs),
(448,48,o),
(332,0,o),
(190,0,cs),
(175,0,o),
(169,8,o),
(172,23,cs),
(175,38,o),
(183,45,o),
(198,45,cs),
(306,47,o),
(402,69,o),
(427,208,cs),
(448,329,o),
(381,362,o),
(284,367,cs),
(265,368,o),
(257,378,o),
(260,397,cs),
(262,407,o),
(265,415,o),
(273,423,cs),
(486,661,ls),
(500,677,o),
(497,685,o),
(477,685,cs),
(346,685,ls),
(259,685,o),
(191,631,o),
(176,543,cs),
(84,25,ls),
(81,8,o),
(72,0,o),
(55,0,cs)
);
}
);
width = 600;
}
);
unicode = 7838;
},
{
color = (153, 254, 255, 255);
glyphname = T;
layers = (
{
layerId = "7B80DEB9-A0FA-491E-8DCF-B8BAEA8A01AC";
shapes = (
{
closed = 1;
nodes = (
(250,595,l),
(133,595,ls),
(88,595,o),
(69,618,o),
(77,663,cs),
(85,708,o),
(111,730,o),
(156,730,cs),
(542,730,ls),
(587,730,o),
(605,708,o),
(597,663,cs),
(589,618,o),
(562,595,o),
(517,595,cs),
(400,595,l),
(308,75,ls),
(299,25,o),
(270,0,o),
(220,0,cs),
(170,0,o),
(149,25,o),
(158,75,cs)
);
}
);
width = 600;
},
{
layerId = "DDB6E94A-FF9F-44FE-9E50-A37C641AA6D0";
shapes = (
{
closed = 1;
nodes = (
(288,640,l),
(133,640,ls),
(106,640,o),
(91,658,o),
(96,685,cs),
(101,712,o),
(122,730,o),
(149,730,cs),
(549,730,ls),
(576,730,o),
(591,712,o),
(586,685,cs),
(581,658,o),
(560,640,o),
(533,640,cs),
(378,640,l),
(271,35,ls),
(266,5,o),
(248,-10,o),
(218,-10,cs),
(188,-10,o),
(176,5,o),
(181,35,cs)
);
}
);
width = 600;
},
{
layerId = "888E2163-DF89-49B9-A98A-97103207B079";
shapes = (
{
closed = 1;
nodes = (
(316,680,l),
(125,680,ls),
(110,680,o),
(102,690,o),
(104,705,cs),
(107,720,o),
(119,730,o),
(134,730,cs),
(564,730,ls),
(579,730,o),
(587,720,o),
(584,705,cs),
(582,690,o),
(569,680,o),
(554,680,cs),
(365,680,l),
(249,15,ls),
(246,-2,o),
(236,-10,o),
(219,-10,cs),
(202,-10,o),
(196,-2,o),
(199,15,cs)
);
}
);
width = 600;
}
);
unicode = 84;
},
{
color = (153, 254, 255, 255);
glyphname = U;
layers = (
{
layerId = "7B80DEB9-A0FA-491E-8DCF-B8BAEA8A01AC";
shapes = (
{
closed = 1;
nodes = (
(95,655,ls),
(104,705,o),
(134,730,o),
(184,730,cs),
(234,730,o),
(254,705,o),
(245,655,cs),
(170,225,ls),
(160,169,o),
(179,120,o),
(241,120,cs),
(302,120,o),
(340,169,o),
(350,225,cs),
(425,655,ls),
(434,705,o),
(464,730,o),
(514,730,cs),
(564,730,o),
(584,705,o),
(575,655,cs),
(499,224,ls),
(474,80,o),
(360,-10,o),
(218,-10,cs),
(75,-10,o),
(-6,79,o),
(19,224,cs)
);
}
);
width = 600;
},
{
layerId = "DDB6E94A-FF9F-44FE-9E50-A37C641AA6D0";
shapes = (
{
closed = 1;
nodes = (
(131,685,ls),
(136,715,o),
(154,730,o),
(184,730,cs),
(214,730,o),
(226,715,o),
(221,685,cs),
(137,210,ls),
(123,131,o),
(152,80,o),
(234,80,cs),
(316,80,o),
(363,132,o),
(377,210,cs),
(461,685,ls),
(466,715,o),
(484,730,o),
(514,730,cs),
(544,730,o),
(556,715,o),
(551,685,cs),
(467,210,ls),
(444,77,o),
(354,-10,o),
(218,-10,cs),
(83,-10,o),
(24,78,o),
(47,210,cs)
);
}
);
width = 600;
},
{
layerId = "888E2163-DF89-49B9-A98A-97103207B079";
shapes = (
{
closed = 1;
nodes = (
(152,705,ls),
(155,722,o),
(165,730,o),
(182,730,cs),
(199,730,o),
(205,722,o),
(202,705,cs),
(113,200,ls),
(97,110,o),
(131,40,o),
(227,40,cs),
(323,40,o),
(381,110,o),
(397,200,cs),
(486,705,ls),
(489,722,o),
(499,730,o),
(516,730,cs),
(533,730,o),
(539,722,o),
(536,705,cs),
(447,200,ls),
(427,84,o),
(340,-10,o),
(218,-10,cs),
(95,-10,o),
(43,84,o),
(63,200,cs)
);
}
);
width = 600;
}
);
unicode = 85;
},
{
color = (153, 254, 255, 255);
glyphname = V;
layers = (
{
layerId = "7B80DEB9-A0FA-491E-8DCF-B8BAEA8A01AC";
shapes = (
{
closed = 1;
nodes = (
(83,662,ls),
(78,714,o),
(112,740,o),
(156,740,cs),
(192,740,o),
(217,723,o),
(219,688,cs),
(247,263,ls),
(250,230,o),
(272,230,o),
(285,263,cs),
(463,688,ls),
(477,723,o),
(508,740,o),
(544,740,cs),
(588,740,o),
(614,714,o),
(591,662,cs),
(325,62,ls),
(303,13,o),
(268,-10,o),
(218,-10,cs),
(168,-10,o),
(141,13,o),
(137,62,cs)
);
}
);
width = 600;
},
{
layerId = "DDB6E94A-FF9F-44FE-9E50-A37C641AA6D0";
shapes = (
{
closed = 1;
nodes = (
(105,688,ls),
(103,714,o),
(113,740,o),
(152,740,cs),
(178,740,o),
(196,728,o),
(198,705,cs),
(238,185,ls),
(240,155,o),
(254,155,o),
(268,185,cs),
(490,705,ls),
(500,728,o),
(522,740,o),
(548,740,cs),
(587,740,o),
(589,714,o),
(577,688,cs),
(290,38,ls),
(275,6,o),
(252,-10,o),
(218,-10,cs),
(185,-10,o),
(167,6,o),
(164,38,cs)
);
}
);
width = 600;
},
{
layerId = "888E2163-DF89-49B9-A98A-97103207B079";
shapes = (
{
closed = 1;
nodes = (
(123,711,ls),
(122,727,o),
(130,740,o),
(150,740,cs),
(163,740,o),
(176,734,o),
(177,721,cs),
(228,100,ls),
(229,80,o),
(239,80,o),
(248,100,cs),
(517,721,ls),
(522,734,o),
(537,740,o),
(550,740,cs),
(570,740,o),
(574,727,o),
(567,711,cs),
(261,19,ls),
(253,0,o),
(238,-10,o),
(218,-10,cs),
(198,-10,o),
(187,0,o),
(185,19,cs)
);
}
);
width = 600;
}
);
unicode = 86;
},
{
color = (153, 254, 255, 255);
glyphname = W;
layers = (
{
layerId = "7B80DEB9-A0FA-491E-8DCF-B8BAEA8A01AC";
shapes = (
{
closed = 1;
nodes = (
(65,670,ls),
(70,717,o),
(93,740,o),
(138,740,cs),
(180,740,o),
(199,720,o),
(194,680,cs),
(140,245,ls),
(139,231,o),
(146,229,o),
(151,244,cs),
(241,515,ls),
(253,552,o),
(283,570,o),
(321,570,cs),
(359,570,o),
(381,552,o),
(381,515,cs),
(375,244,ls),
(374,229,o),
(383,230,o),
(386,245,cs),
(487,688,ls),
(495,723,o),
(517,740,o),
(559,740,cs),
(607,740,o),
(621,717,o),
(609,670,cs),
(459,71,ls),
(445,17,o),
(408,-10,o),
(354,-10,cs),
(300,-10,o),
(274,16,o),
(275,70,cs),
(280,291,ls),
(281,305,o),
(267,306,o),
(262,291,cs),
(190,73,ls),
(171,18,o),
(136,-10,o),
(80,-10,cs),
(24,-10,o),
(-4,17,o),
(2,73,cs)
);
}
);
width = 600;
},
{
layerId = "DDB6E94A-FF9F-44FE-9E50-A37C641AA6D0";
shapes = (
{
closed = 1;
nodes = (
(78,685,ls),
(81,722,o),
(99,740,o),
(133,740,cs),
(161,740,o),
(173,728,o),
(171,703,cs),
(113,145,ls),
(111,133,o),
(119,132,o),
(123,144,cs),
(256,523,ls),
(268,555,o),
(289,570,o),
(321,570,cs),
(353,570,o),
(368,555,o),
(368,523,cs),
(368,145,ls),
(368,134,o),
(376,134,o),
(379,146,cs),
(517,703,ls),
(523,728,o),
(539,740,o),
(567,740,cs),
(601,740,o),
(613,722,o),
(604,685,cs),
(433,50,ls),
(422,10,o),
(395,-10,o),
(354,-10,cs),
(313,-10,o),
(294,10,o),
(294,50,cs),
(298,401,ls),
(298,412,o),
(288,412,o),
(284,401,cs),
(164,51,ls),
(150,10,o),
(123,-10,o),
(82,-10,cs),
(41,-10,o),
(21,10,o),
(24,51,cs)
);
}
);
width = 600;
},
{
layerId = "888E2163-DF89-49B9-A98A-97103207B079";
shapes = (
{
closed = 1;
nodes = (
(104,710,ls),
(106,730,o),
(115,740,o),
(135,740,cs),
(150,740,o),
(156,734,o),
(155,720,cs),
(99,55,l),
(99,50,o),
(103,49,o),
(105,55,cs),
(277,539,ls),
(285,560,o),
(300,570,o),
(321,570,cs),
(342,570,o),
(353,560,o),
(353,539,cs),
(357,55,ls),
(357,50,o),
(361,50,o),
(363,55,c),
(539,720,ls),
(542,734,o),
(550,740,o),
(565,740,cs),
(585,740,o),
(592,730,o),
(586,710,cs),
(400,27,ls),
(393,2,o),
(376,-10,o),
(351,-10,cs),
(326,-10,o),
(313,2,o),
(313,27,cs),
(310,485,ls),
(309,490,o),
(303,490,o),
(302,485,cs),
(137,27,ls),
(127,2,o),
(111,-10,o),
(86,-10,cs),
(61,-10,o),
(47,2,o),
(50,27,cs)
);
}
);
width = 600;
}
);
unicode = 87;
},
{
color = (153, 254, 255, 255);
glyphname = X;
layers = (
{
layerId = "7B80DEB9-A0FA-491E-8DCF-B8BAEA8A01AC";
shapes = (
{
closed = 1;
nodes = (
(135,40,ls),
(112,7,o),
(85,-10,o),
(47,-10,cs),
(-6,-10,o),
(-40,23,o),
(6,88,cs),
(422,690,ls),
(444,723,o),
(470,740,o),
(508,740,cs),
(561,740,o),
(595,708,o),
(550,642,cs)
);
},
{
closed = 1;
nodes = (
(466,88,ls),
(487,22,o),
(442,-10,o),
(389,-10,cs),
(351,-10,o),
(329,7,o),
(319,40,cs),
(116,642,ls),
(94,707,o),
(139,740,o),
(192,740,cs),
(230,740,o),
(250,723,o),
(262,690,cs)
);
}
);
width = 600;
},
{
layerId = "DDB6E94A-FF9F-44FE-9E50-A37C641AA6D0";
shapes = (
{
closed = 1;
nodes = (
(79,20,ls),
(64,0,o),
(47,-10,o),
(25,-10,cs),
(-5,-10,o),
(-28,9,o),
(0,48,cs),
(480,711,ls),
(495,731,o),
(511,740,o),
(532,740,cs),
(562,740,o),
(586,721,o),
(557,682,cs)
);
},
{
closed = 1;
nodes = (
(457,49,ls),
(472,10,o),
(441,-10,o),
(411,-10,cs),
(389,-10,o),
(376,0,o),
(369,20,cs),
(122,682,ls),
(107,720,o),
(138,740,o),
(169,740,cs),
(189,740,o),
(203,731,o),
(210,711,cs)
);
}
);
width = 600;
},
{
layerId = "888E2163-DF89-49B9-A98A-97103207B079";
shapes = (
{
closed = 1;
nodes = (
(38,6,ls),
(30,-5,o),
(20,-10,o),
(9,-10,cs),
(-7,-10,o),
(-21,1,o),
(-5,22,cs),
(515,724,ls),
(523,735,o),
(532,740,o),
(543,740,cs),
(560,740,o),
(576,729,o),
(559,707,cs)
);
},
{
closed = 1;
nodes = (
(453,22,ls),
(461,1,o),
(443,-10,o),
(427,-10,cs),
(416,-10,o),
(408,-5,o),
(404,6,cs),
(131,707,ls),
(122,729,o),
(140,740,o),
(157,740,cs),
(168,740,o),
(177,735,o),
(181,724,cs)
);
}
);
width = 600;
}
);
unicode = 88;
},
{
color = (153, 254, 255, 255);
glyphname = Y;
layers = (
{
layerId = "7B80DEB9-A0FA-491E-8DCF-B8BAEA8A01AC";
shapes = (
{
closed = 1;
nodes = (
(168,-10,o),
(148,15,o),
(156,65,cs),
(186,230,ls),
(189,250,o),
(188,269,o),
(184,287,cs),
(87,655,ls),
(75,704,o),
(116,740,o),
(165,740,cs),
(200,740,o),
(224,721,o),
(233,683,cs),
(288,448,ls),
(293,429,o),
(299,429,o),
(310,448,cs),
(447,683,ls),
(470,721,o),
(500,740,o),
(535,740,cs),
(584,740,o),
(613,704,o),
(583,655,cs),
(358,287,ls),
(346,269,o),
(339,250,o),
(336,230,cs),
(306,65,ls),
(298,15,o),
(268,-10,o),
(218,-10,cs)
);
}
);
width = 600;
},
{
layerId = "DDB6E94A-FF9F-44FE-9E50-A37C641AA6D0";
shapes = (
{
closed = 1;
nodes = (
(188,-10,o),
(176,5,o),
(181,35,cs),
(219,248,ls),
(222,265,o),
(221,281,o),
(216,296,cs),
(101,690,ls),
(93,716,o),
(119,740,o),
(141,740,cs),
(166,740,o),
(179,735,o),
(187,706,cs),
(279,390,ls),
(283,375,o),
(289,375,o),
(299,390,cs),
(501,706,ls),
(521,735,o),
(534,740,o),
(559,740,cs),
(581,740,o),
(599,716,o),
(583,690,cs),
(328,296,ls),
(319,281,o),
(312,265,o),
(309,248,cs),
(271,35,ls),
(266,5,o),
(248,-10,o),
(218,-10,cs)
);
}
);
width = 600;
},
{
layerId = "888E2163-DF89-49B9-A98A-97103207B079";
shapes = (
{
closed = 1;
nodes = (
(201,-10,o),
(195,-2,o),
(198,15,cs),
(241,260,ls),
(243,273,o),
(242,286,o),
(239,298,cs),
(109,711,ls),
(104,727,o),
(121,740,o),
(136,740,cs),
(146,740,o),
(158,734,o),
(162,721,cs),
(274,356,ls),
(278,344,o),
(284,344,o),
(292,356,cs),
(532,721,ls),
(540,734,o),
(554,740,o),
(564,740,cs),
(579,740,o),
(592,727,o),
(581,711,cs),
(307,298,ls),
(298,286,o),
(293,273,o),
(291,260,cs),
(248,15,ls),
(245,-2,o),
(235,-10,o),
(218,-10,cs)
);
}
);
width = 600;
}
);
unicode = 89;
},
{
color = (153, 254, 255, 255);
glyphname = Z;
layers = (
{
layerId = "7B80DEB9-A0FA-491E-8DCF-B8BAEA8A01AC";
shapes = (
{
closed = 1;
nodes = (
(96,0,ls),
(28,0,o),
(1,33,o),
(12,97,cs),
(17,124,o),
(26,144,o),
(41,164,cs),
(348,569,ls),
(361,586,o),
(358,595,o),
(338,595,cs),
(175,595,ls),
(130,595,o),
(112,618,o),
(120,663,cs),
(128,708,o),
(155,730,o),
(200,730,cs),
(462,730,ls),
(530,730,o),
(557,697,o),
(545,631,cs),
(541,606,o),
(532,586,o),
(517,566,cs),
(208,161,ls),
(195,144,o),
(199,135,o),
(219,135,cs),
(402,135,ls),
(447,135,o),
(465,113,o),
(457,68,cs),
(449,23,o),
(423,0,o),
(378,0,cs)
);
}
);
width = 600;
},
{
layerId = "DDB6E94A-FF9F-44FE-9E50-A37C641AA6D0";
shapes = (
{
closed = 1;
nodes = (
(73,0,ls),
(28,0,o),
(9,23,o),
(17,68,cs),
(20,83,o),
(25,96,o),
(35,109,cs),
(420,618,ls),
(430,632,o),
(429,640,o),
(412,640,cs),
(168,640,ls),
(141,640,o),
(126,658,o),
(131,685,cs),
(136,712,o),
(157,730,o),
(184,730,cs),
(486,730,ls),
(531,730,o),
(550,708,o),
(542,663,cs),
(539,648,o),
(534,634,o),
(523,621,cs),
(139,112,ls),
(128,98,o),
(130,90,o),
(147,90,cs),
(406,90,ls),
(433,90,o),
(448,72,o),
(443,45,cs),
(438,18,o),
(417,0,o),
(390,0,cs)
);
}
);
width = 600;
},
{
layerId = "888E2163-DF89-49B9-A98A-97103207B079";
shapes = (
{
closed = 1;
nodes = (
(47,0,ls),
(22,0,o),
(12,13,o),
(16,36,cs),
(18,46,o),
(22,54,o),
(27,61,cs),
(470,663,ls),
(479,675,o),
(476,680,o),
(463,680,cs),
(161,680,ls),
(146,680,o),
(136,690,o),
(138,705,cs),
(141,720,o),
(155,730,o),
(170,730,cs),
(503,730,ls),
(532,730,o),
(543,716,o),
(538,687,cs),
(536,677,o),
(533,669,o),
(527,661,cs),
(89,67,ls),
(80,55,o),
(83,50,o),
(96,50,cs),
(414,50,ls),
(429,50,o),
(437,40,o),
(434,25,cs),
(432,10,o),
(420,0,o),
(405,0,cs)
);
}
);
width = 600;
}
);
unicode = 90;
},
{
color = (153, 254, 255, 255);
glyphname = a;
layers = (
{
layerId = "7B80DEB9-A0FA-491E-8DCF-B8BAEA8A01AC";
shapes = (
{
closed = 1;
nodes = (
(53,-10,o),
(-29,63,o),
(2,238,cs),
(34,417,o),
(139,560,o),
(289,560,cs),
(414,560,o),
(411,432,o),
(388,298,cs),
(354,106,o),
(283,-10,o),
(148,-10,cs)
);
},
{
closed = 1;
nodes = (
(254,125,o),
(320,176,o),
(341,295,cs),
(355,372,o),
(350,425,o),
(299,425,cs),
(225,425,o),
(170,340,o),
(153,242,cs),
(141,175,o),
(155,125,o),
(204,125,cs)
);
},
{
closed = 1;
nodes = (
(407,538,o),
(440,560,o),
(486,560,cs),
(531,560,o),
(543,539,o),
(529,494,cs),
(484,352,o),
(453,222,o),
(459,54,cs),
(460,9,o),
(445,-10,o),
(400,-10,cs),
(354,-10,o),
(324,10,o),
(323,54,cs),
(317,222,o),
(348,352,o),
(393,494,cs)
);
}
);
width = 600;
},
{
layerId = "DDB6E94A-FF9F-44FE-9E50-A37C641AA6D0";
shapes = (
{
closed = 1;
nodes = (
(64,-10,o),
(-1,49,o),
(29,224,cs),
(62,409,o),
(163,560,o),
(319,560,cs),
(446,560,o),
(428,412,o),
(409,308,cs),
(384,162,o),
(313,-10,o),
(160,-10,cs)
);
},
{
closed = 1;
nodes = (
(268,80,o),
(345,172,o),
(369,308,cs),
(381,372,o),
(398,470,o),
(311,470,cs),
(228,470,o),
(143,360,o),
(118,215,cs),
(103,130,o),
(124,80,o),
(185,80,cs)
);
},
{
closed = 1;
nodes = (
(436,549,o),
(456,560,o),
(484,560,cs),
(516,560,o),
(525,546,o),
(515,516,cs),
(461,358,o),
(434,214,o),
(446,34,cs),
(448,5,o),
(434,-10,o),
(404,-10,cs),
(374,-10,o),
(358,5,o),
(356,34,cs),
(342,214,o),
(373,358,o),
(425,516,cs)
);
}
);
width = 600;
},
{
layerId = "888E2163-DF89-49B9-A98A-97103207B079";
shapes = (
{
closed = 1;
nodes = (
(54,-10,o),
(24,82,o),
(46,205,cs),
(79,392,o),
(181,560,o),
(339,560,cs),
(464,560,o),
(438,418,o),
(414,298,cs),
(388,168,o),
(311,-10,o),
(166,-10,cs)
);
},
{
closed = 1;
nodes = (
(278,40,o),
(366,190,o),
(389,301,cs),
(408,390,o),
(434,510,o),
(328,510,cs),
(210,510,o),
(124,361,o),
(96,205,cs),
(78,103,o),
(105,40,o),
(173,40,cs)
);
},
{
closed = 1;
nodes = (
(456,552,o),
(468,560,o),
(485,560,cs),
(502,560,o),
(506,552,o),
(501,535,cs),
(444,350,o),
(409,208,o),
(418,14,cs),
(420,-2,o),
(412,-10,o),
(395,-10,cs),
(378,-10,o),
(370,-2,o),
(368,14,cs),
(357,208,o),
(394,350,o),
(451,535,cs)
);
}
);
width = 600;
}
);
unicode = 97;
},
{
color = (153, 254, 255, 255);
glyphname = ae;
layers = (
{
layerId = "7B80DEB9-A0FA-491E-8DCF-B8BAEA8A01AC";
shapes = (
{
closed = 1;
nodes = (
(221,330,l),
(234,400,ls),
(238,428,o),
(234,463,o),
(200,463,cs),
(182,463,o),
(168,453,o),
(158,439,cs),
(138,409,o),
(126,400,o),
(104,400,cs),
(47,400,o),
(25,433,o),
(54,478,cs),
(85,527,o),
(137,560,o),
(200,560,cs),
(258,560,o),
(307,530,o),
(304,468,c),
(321,530,o),
(383,560,o),
(440,560,cs),
(533,560,o),
(576,489,o),
(561,400,cs),
(552,350,ls),
(540,283,o),
(501,250,o),
(434,250,cs),
(325,250,l),
(307,150,ls),
(303,122,o),
(307,87,o),
(341,87,cs),
(359,87,o),
(373,97,o),
(383,111,cs),
(403,141,o),
(415,150,o),
(437,150,cs),
(494,150,o),
(515,117,o),
(487,72,cs),
(456,23,o),
(405,-10,o),
(342,-10,cs),
(286,-10,o),
(232,20,o),
(235,81,c),
(217,18,o),
(154,-10,o),
(96,-10,cs),
(-2,-10,o),
(-40,68,o),
(-24,159,cs),
(-6,261,o),
(74,330,o),
(176,330,cs)
);
},
{
closed = 1;
nodes = (
(207,250,l),
(162,250,ls),
(120,250,o),
(102,201,o),
(97,168,cs),
(91,136,o),
(91,87,o),
(132,87,cs),
(166,87,o),
(184,121,o),
(189,150,cs)
);
},
{
closed = 1;
nodes = (
(339,330,l),
(404,330,ls),
(421,330,o),
(431,338,o),
(434,355,cs),
(442,400,ls),
(446,428,o),
(442,463,o),
(408,463,cs),
(374,463,o),
(356,428,o),
(352,400,cs)
);
}
);
width = 600;
},
{
anchors = (
{
name = m.uni0308;
position = "{317, 550}";
}
);
layerId = "DDB6E94A-FF9F-44FE-9E50-A37C641AA6D0";
shapes = (
{
closed = 1;
nodes = (
(240,324,l),
(253,399,ls),
(261,443,o),
(251,485,o),
(201,485,cs),
(168,485,o),
(141,467,o),
(128,440,cs),
(118,421,o),
(109,414,o),
(93,414,cs),
(56,414,o),
(41,434,o),
(56,466,cs),
(83,521,o),
(135,560,o),
(201,560,cs),
(257,560,o),
(310,532,o),
(307,471,c),
(324,530,o),
(384,560,o),
(439,560,cs),
(532,560,o),
(571,488,o),
(556,400,cs),
(544,336,ls),
(535,282,o),
(504,256,o),
(450,256,cs),
(308,256,l),
(289,150,ls),
(282,106,o),
(293,65,o),
(343,65,cs),
(376,65,o),
(402,82,o),
(416,109,cs),
(427,129,o),
(436,137,o),
(453,137,cs),
(493,137,o),
(508,115,o),
(490,82,cs),
(462,26,o),
(405,-10,o),
(338,-10,cs),
(283,-10,o),
(239,24,o),
(238,80,c),
(216,21,o),
(153,-10,o),
(96,-10,cs),
(0,-10,o),
(-37,70,o),
(-21,159,cs),
(-5,250,o),
(63,324,o),
(159,324,cs)
);
},
{
closed = 1;
nodes = (
(228,256,l),
(149,256,ls),
(97,256,o),
(71,203,o),
(63,160,cs),
(55,112,o),
(68,65,o),
(122,65,cs),
(172,65,o),
(202,105,o),
(209,150,cs)
);
},
{
closed = 1;
nodes = (
(320,324,l),
(438,324,ls),
(451,324,o),
(459,331,o),
(462,344,cs),
(472,400,ls),
(479,443,o),
(467,485,o),
(418,485,cs),
(369,485,o),
(341,443,o),
(334,400,cs)
);
}
);
width = 600;
},
{
layerId = "888E2163-DF89-49B9-A98A-97103207B079";
shapes = (
{
closed = 1;
nodes = (
(254,312,l),
(271,410,ls),
(280,462,o),
(264,517,o),
(205,517,cs),
(152,517,o),
(116,477,o),
(103,430,cs),
(100,419,o),
(93,414,o),
(83,414,cs),
(61,414,o),
(53,426,o),
(60,446,cs),
(82,510,o),
(134,560,o),
(206,560,cs),
(260,560,o),
(308,531,o),
(307,474,c),
(328,530,o),
(387,560,o),
(441,560,cs),
(529,560,o),
(567,494,o),
(552,410,cs),
(538,329,ls),
(531,289,o),
(507,269,o),
(467,269,cs),
(294,269,l),
(272,140,ls),
(261,82,o),
(287,34,o),
(349,34,cs),
(402,34,o),
(440,73,o),
(453,121,cs),
(456,132,o),
(463,137,o),
(473,137,cs),
(495,137,o),
(504,125,o),
(497,105,cs),
(474,39,o),
(418,-10,o),
(344,-10,cs),
(291,-10,o),
(238,19,o),
(236,75,c),
(215,16,o),
(146,-10,o),
(92,-10,cs),
(1,-10,o),
(-27,74,o),
(-13,155,cs),
(1,235,o),
(56,312,o),
(145,312,cs)
);
},
{
closed = 1;
nodes = (
(246,269,l),
(137,269,ls),
(76,269,o),
(44,206,o),
(35,155,cs),
(25,97,o),
(41,31,o),
(108,31,cs),
(171,31,o),
(213,81,o),
(224,140,cs)
);
},
{
closed = 1;
nodes = (
(302,312,l),
(472,312,ls),
(482,312,o),
(488,317,o),
(490,327,cs),
(504,410,ls),
(514,466,o),
(491,517,o),
(430,517,cs),
(369,517,o),
(329,466,o),
(319,410,cs)
);
}
);
width = 600;
}
);
unicode = 230;
},
{
color = (153, 254, 255, 255);
glyphname = b;
layers = (
{
layerId = "7B80DEB9-A0FA-491E-8DCF-B8BAEA8A01AC";
shapes = (
{
closed = 1;
nodes = (
(1,-10,o),
(-18,14,o),
(-9,63,cs),
(97,665,ls),
(106,715,o),
(135,740,o),
(185,740,cs),
(235,740,o),
(256,715,o),
(247,665,cs),
(211,459,l),
(242,523,o),
(292,560,o),
(356,560,cs),
(531,560,o),
(547,406,o),
(523,274,cs),
(494,108,o),
(433,-10,o),
(283,-10,cs),
(186,-10,o),
(159,44,o),
(149,109,c),
(141,63,ls),
(132,14,o),
(101,-10,o),
(51,-10,cs)
);
},
{
closed = 1;
nodes = (
(332,125,o),
(361,207,o),
(373,273,cs),
(385,341,o),
(387,425,o),
(306,425,cs),
(244,425,o),
(194,365,o),
(182,295,cs),
(175,255,ls),
(161,175,o),
(199,125,o),
(259,125,cs)
);
}
);
width = 600;
},
{
layerId = "DDB6E94A-FF9F-44FE-9E50-A37C641AA6D0";
shapes = (
{
closed = 1;
nodes = (
(23,-10,o),
(11,5,o),
(16,36,cs),
(133,695,ls),
(138,725,o),
(155,740,o),
(185,740,cs),
(215,740,o),
(228,725,o),
(223,695,cs),
(180,456,l),
(213,515,o),
(263,560,o),
(336,560,cs),
(505,560,o),
(511,400,o),
(485,256,cs),
(463,132,o),
(408,-10,o),
(245,-10,cs),
(168,-10,o),
(131,34,o),
(118,100,c),
(106,36,ls),
(101,5,o),
(83,-10,o),
(53,-10,cs)
);
},
{
closed = 1;
nodes = (
(341,80,o),
(378,157,o),
(396,262,cs),
(414,364,o),
(419,470,o),
(305,470,cs),
(233,470,o),
(167,380,o),
(156,316,cs),
(136,206,ls),
(125,143,o),
(179,80,o),
(252,80,cs)
);
}
);
width = 600;
},
{
layerId = "888E2163-DF89-49B9-A98A-97103207B079";
shapes = (
{
closed = 1;
nodes = (
(36,-10,o),
(30,-2,o),
(33,15,cs),
(156,715,ls),
(159,732,o),
(168,740,o),
(185,740,cs),
(202,740,o),
(209,732,o),
(206,715,cs),
(159,449,l),
(199,521,o),
(256,560,o),
(329,560,cs),
(480,560,o),
(496,404,o),
(470,255,cs),
(447,125,o),
(379,-10,o),
(231,-10,cs),
(133,-10,o),
(104,49,o),
(96,88,c),
(83,15,ls),
(80,-2,o),
(70,-10,o),
(53,-10,cs)
);
},
{
closed = 1;
nodes = (
(348,38,o),
(401,147,o),
(420,255,cs),
(443,383,o),
(438,512,o),
(313,512,cs),
(239,512,o),
(155,425,o),
(143,355,cs),
(114,194,ls),
(101,119,o),
(151,38,o),
(239,38,cs)
);
}
);
width = 600;
}
);
unicode = 98;
},
{
color = (153, 254, 255, 255);
glyphname = c;
layers = (
{
layerId = "7B80DEB9-A0FA-491E-8DCF-B8BAEA8A01AC";
shapes = (
{
closed = 1;
nodes = (
(59,479,o),
(183,560,o),
(325,560,cs),
(444,560,o),
(506,503,o),
(514,450,cs),
(521,412,o),
(499,371,o),
(464,357,cs),
(440,348,o),
(407,349,o),
(397,372,cs),
(382,407,o),
(352,425,o),
(314,425,cs),
(258,425,o),
(193,387,o),
(173,274,cs),
(155,169,o),
(197,125,o),
(257,125,cs),
(294,125,o),
(324,130,o),
(357,153,cs),
(388,174,o),
(424,180,o),
(448,160,cs),
(471,141,o),
(471,94,o),
(445,69,cs),
(375,0,o),
(313,-10,o),
(235,-10,cs),
(81,-10,o),
(-11,78,o),
(24,278,cs)
);
}
);
width = 600;
},
{
layerId = "DDB6E94A-FF9F-44FE-9E50-A37C641AA6D0";
shapes = (
{
closed = 1;
nodes = (
(84,479,o),
(212,560,o),
(346,560,cs),
(446,560,o),
(499,522,o),
(516,482,cs),
(529,452,o),
(518,428,o),
(494,415,cs),
(468,401,o),
(445,405,o),
(437,425,cs),
(427,447,o),
(394,470,o),
(336,470,cs),
(239,470,o),
(162,406,o),
(139,279,cs),
(116,148,o),
(174,80,o),
(266,80,cs),
(301,80,o),
(345,88,o),
(368,108,cs),
(387,124,o),
(414,129,o),
(432,110,cs),
(447,95,o),
(445,69,o),
(413,38,cs),
(369,-4,o),
(307,-10,o),
(248,-10,cs),
(102,-10,o),
(14,78,o),
(48,274,cs)
);
}
);
width = 600;
},
{
layerId = "888E2163-DF89-49B9-A98A-97103207B079";
shapes = (
{
closed = 1;
nodes = (
(104,479,o),
(220,560,o),
(360,560,cs),
(446,560,o),
(481,530,o),
(494,500,cs),
(507,470,o),
(492,454,o),
(478,448,cs),
(464,443,o),
(451,448,o),
(443,466,cs),
(432,491,o),
(394,510,o),
(349,510,cs),
(257,510,o),
(146,432,o),
(118,273,cs),
(93,130,o),
(156,40,o),
(278,40,cs),
(324,40,o),
(359,53,o),
(387,71,cs),
(403,82,o),
(421,85,o),
(429,75,cs),
(437,64,o),
(433,46,o),
(417,33,cs),
(379,3,o),
(333,-10,o),
(257,-10,cs),
(118,-10,o),
(34,78,o),
(69,278,cs)
);
}
);
width = 600;
}
);
unicode = 99;
},
{
color = (153, 254, 255, 255);
glyphname = d;
layers = (
{
layerId = "7B80DEB9-A0FA-491E-8DCF-B8BAEA8A01AC";
shapes = (
{
closed = 1;
nodes = (
(475,101,ls),
(473,88,o),
(474,76,o),
(476,63,cs),
(483,14,o),
(464,-10,o),
(415,-10,cs),
(366,-10,o),
(339,15,o),
(331,63,cs),
(329,75,o),
(329,94,o),
(332,110,c),
(300,45,o),
(250,-10,o),
(153,-10,cs),
(3,-10,o),
(-16,108,o),
(13,274,cs),
(37,406,o),
(107,560,o),
(282,560,cs),
(346,560,o),
(382,523,o),
(391,459,c),
(427,665,ls),
(436,715,o),
(465,740,o),
(515,740,cs),
(565,740,o),
(586,715,o),
(577,665,cs)
);
},
{
closed = 1;
nodes = (
(285,125,o),
(341,175,o),
(355,255,cs),
(362,295,ls),
(374,365,o),
(346,425,o),
(284,425,cs),
(203,425,o),
(175,341,o),
(163,273,cs),
(151,207,o),
(152,125,o),
(225,125,cs)
);
}
);
width = 600;
},
{
layerId = "DDB6E94A-FF9F-44FE-9E50-A37C641AA6D0";
shapes = (
{
closed = 1;
nodes = (
(442,95,ls),
(438,75,o),
(440,55,o),
(445,35,cs),
(452,5,o),
(438,-10,o),
(408,-10,cs),
(378,-10,o),
(363,5,o),
(355,35,cs),
(350,54,o),
(349,75,o),
(352,94,c),
(315,28,o),
(268,-10,o),
(191,-10,cs),
(28,-10,o),
(23,132,o),
(45,256,cs),
(71,400,o),
(133,560,o),
(302,560,cs),
(375,560,o),
(409,515,o),
(420,456,c),
(463,695,ls),
(468,725,o),
(485,740,o),
(515,740,cs),
(545,740,o),
(559,725,o),
(553,695,cs)
);
},
{
closed = 1;
nodes = (
(289,80,o),
(365,143,o),
(376,206,cs),
(396,316,ls),
(407,380,o),
(373,470,o),
(301,470,cs),
(187,470,o),
(154,364,o),
(136,262,cs),
(118,157,o),
(127,80,o),
(216,80,cs)
);
}
);
width = 600;
},
{
layerId = "888E2163-DF89-49B9-A98A-97103207B079";
shapes = (
{
closed = 1;
nodes = (
(426,88,ls),
(421,60,o),
(425,42,o),
(432,15,cs),
(436,-1,o),
(429,-10,o),
(412,-10,cs),
(395,-10,o),
(386,-1,o),
(382,15,cs),
(375,43,o),
(376,55,o),
(378,88,c),
(356,49,o),
(303,-10,o),
(205,-10,cs),
(57,-10,o),
(37,125,o),
(60,255,cs),
(86,404,o),
(158,560,o),
(309,560,cs),
(382,560,o),
(425,521,o),
(439,449,c),
(486,715,ls),
(489,732,o),
(498,740,o),
(515,740,cs),
(532,740,o),
(539,732,o),
(536,715,cs)
);
},
{
closed = 1;
nodes = (
(303,38,o),
(381,119,o),
(394,194,cs),
(423,355,ls),
(435,425,o),
(381,512,o),
(307,512,cs),
(182,512,o),
(133,383,o),
(110,255,cs),
(91,147,o),
(106,38,o),
(215,38,cs)
);
}
);
width = 600;
}
);
unicode = 100;
},
{
color = (153, 254, 255, 255);
glyphname = eth;
layers = (
{
layerId = "7B80DEB9-A0FA-491E-8DCF-B8BAEA8A01AC";
shapes = (
{
closed = 1;
nodes = (
(206,632,ls),
(224,638,o),
(227,646,o),
(221,660,cs),
(220,663,ls),
(197,708,o),
(217,730,o),
(279,730,cs),
(321,730,o),
(353,717,o),
(359,707,cs),
(362,702,ls),
(368,693,o),
(377,690,o),
(389,694,cs),
(476,723,ls),
(522,739,o),
(542,724,o),
(533,677,cs),
(529,654,o),
(516,638,o),
(492,630,cs),
(447,614,ls),
(429,608,o),
(424,599,o),
(433,586,cs),
(461,537,ls),
(524,430,o),
(540,337,o),
(524,251,cs),
(497,96,o),
(379,0,o),
(220,0,cs),
(63,0,o),
(-23,94,o),
(2,236,cs),
(25,368,o),
(123,456,o),
(244,456,cs),
(313,456,o),
(358,410,o),
(372,375,c),
(378,375,l),
(380,380,o),
(366,414,o),
(321,489,cs),
(291,538,ls),
(284,551,o),
(272,556,o),
(255,550,cs),
(186,526,ls),
(138,510,o),
(120,525,o),
(128,572,cs),
(131,595,o),
(146,611,o),
(169,619,cs)
);
},
{
closed = 1;
nodes = (
(310,125,o),
(360,168,o),
(372,235,cs),
(383,301,o),
(347,345,o),
(281,345,cs),
(214,345,o),
(163,302,o),
(152,235,cs),
(140,168,o),
(176,125,o),
(243,125,cs)
);
}
);
width = 600;
},
{
layerId = "DDB6E94A-FF9F-44FE-9E50-A37C641AA6D0";
shapes = (
{
closed = 1;
nodes = (
(249,623,ls),
(263,629,o),
(266,636,o),
(260,647,cs),
(245,674,ls),
(225,712,o),
(238,730,o),
(284,730,cs),
(307,730,o),
(324,720,o),
(334,701,cs),
(343,682,ls),
(350,671,o),
(358,668,o),
(370,674,cs),
(459,712,ls),
(495,727,o),
(509,718,o),
(502,682,cs),
(499,664,o),
(488,651,o),
(472,644,cs),
(403,614,ls),
(389,608,o),
(385,601,o),
(390,590,cs),
(441,493,ls),
(485,408,o),
(504,308,o),
(489,223,cs),
(465,83,o),
(356,-10,o),
(217,-10,cs),
(80,-10,o),
(4,80,o),
(28,215,cs),
(52,348,o),
(152,436,o),
(279,436,cs),
(337,436,o),
(372,404,o),
(383,380,c),
(397,380,l),
(393,393,o),
(377,429,o),
(350,480,cs),
(311,555,ls),
(304,566,o),
(295,569,o),
(282,563,cs),
(177,518,ls),
(142,503,o),
(128,512,o),
(134,548,cs),
(137,566,o),
(148,578,o),
(166,586,cs)
);
},
{
closed = 1;
nodes = (
(317,70,o),
(383,128,o),
(398,215,cs),
(413,302,o),
(368,360,o),
(283,360,cs),
(200,360,o),
(133,302,o),
(118,215,cs),
(103,128,o),
(149,70,o),
(232,70,cs)
);
}
);
width = 600;
},
{
layerId = "888E2163-DF89-49B9-A98A-97103207B079";
shapes = (
{
closed = 1;
nodes = (
(277,617,ls),
(287,621,o),
(290,627,o),
(286,635,cs),
(254,694,ls),
(241,718,o),
(249,730,o),
(278,730,cs),
(293,730,o),
(303,724,o),
(309,712,c),
(338,657,ls),
(342,649,o),
(350,647,o),
(359,651,cs),
(482,704,l),
(499,712,o),
(506,706,o),
(503,688,cs),
(501,679,o),
(496,673,o),
(488,669,c),
(376,621,ls),
(366,617,o),
(364,611,o),
(368,603,cs),
(413,517,ls),
(473,402,o),
(493,302,o),
(478,213,cs),
(454,78,o),
(352,-10,o),
(218,-10,cs),
(85,-10,o),
(14,79,o),
(38,215,cs),
(62,350,o),
(159,436,o),
(288,436,cs),
(361,436,o),
(409,385,o),
(424,347,c),
(427,347,l),
(424,366,o),
(405,419,o),
(365,491,cs),
(316,581,ls),
(311,589,o),
(304,591,o),
(295,587,cs),
(155,526,ls),
(137,518,o),
(130,524,o),
(133,542,cs),
(135,551,o),
(140,557,o),
(148,561,c)
);
},
{
closed = 1;
nodes = (
(328,40,o),
(404,109,o),
(423,216,cs),
(442,318,o),
(384,390,o),
(289,390,cs),
(188,390,o),
(112,322,o),
(93,215,cs),
(74,108,o),
(127,40,o),
(228,40,cs)
);
}
);
width = 600;
}
);
unicode = 240;
},
{
color = (153, 254, 255, 255);
glyphname = dcaron;
layers = (
{
layerId = "7B80DEB9-A0FA-491E-8DCF-B8BAEA8A01AC";
shapes = (
{
closed = 1;
nodes = (
(534,550,o),
(519,569,o),
(529,607,cs),
(545,669,ls),
(555,710,o),
(581,730,o),
(622,730,cs),
(663,730,o),
(677,710,o),
(665,669,cs),
(647,607,ls),
(636,569,o),
(612,550,o),
(573,550,cs)
);
},
{
closed = 1;
nodes = (
(431,101,ls),
(429,88,o),
(430,76,o),
(432,63,cs),
(439,14,o),
(420,-10,o),
(371,-10,cs),
(322,-10,o),
(295,15,o),
(287,63,cs),
(285,75,o),
(284,88,o),
(286,100,c),
(254,35,o),
(211,-10,o),
(129,-10,cs),
(-11,-10,o),
(-41,108,o),
(-11,274,cs),
(12,406,o),
(93,560,o),
(258,560,cs),
(312,560,o),
(338,523,o),
(347,459,c),
(383,665,ls),
(392,715,o),
(421,740,o),
(471,740,cs),
(521,740,o),
(542,715,o),
(533,665,cs)
);
},
{
closed = 1;
nodes = (
(251,125,o),
(297,175,o),
(311,255,cs),
(318,295,ls),
(330,365,o),
(312,425,o),
(260,425,cs),
(189,425,o),
(151,341,o),
(139,273,cs),
(127,207,o),
(138,125,o),
(201,125,cs)
);
}
);
width = 600;
},
{
layerId = "DDB6E94A-FF9F-44FE-9E50-A37C641AA6D0";
shapes = (
{
closed = 1;
nodes = (
(546,550,o),
(535,562,o),
(543,587,cs),
(569,688,ls),
(576,716,o),
(594,730,o),
(622,730,cs),
(650,730,o),
(659,716,o),
(650,688,cs),
(620,587,ls),
(611,562,o),
(596,550,o),
(571,550,cs)
);
},
{
closed = 1;
nodes = (
(403,95,ls),
(399,75,o),
(401,55,o),
(406,35,cs),
(413,5,o),
(399,-10,o),
(369,-10,cs),
(339,-10,o),
(324,5,o),
(316,35,cs),
(311,54,o),
(310,75,o),
(313,94,c),
(276,28,o),
(229,-10,o),
(172,-10,cs),
(19,-10,o),
(4,132,o),
(26,256,cs),
(52,400,o),
(124,560,o),
(283,560,cs),
(346,560,o),
(370,515,o),
(381,456,c),
(424,695,ls),
(429,725,o),
(446,740,o),
(476,740,cs),
(506,740,o),
(520,725,o),
(514,695,cs)
);
},
{
closed = 1;
nodes = (
(260,80,o),
(326,143,o),
(337,206,cs),
(357,316,ls),
(368,380,o),
(344,470,o),
(282,470,cs),
(178,470,o),
(135,364,o),
(117,262,cs),
(99,157,o),
(118,80,o),
(197,80,cs)
);
}
);
width = 600;
},
{
layerId = "888E2163-DF89-49B9-A98A-97103207B079";
shapes = (
{
closed = 1;
nodes = (
(555,550,o),
(550,557,o),
(554,571,cs),
(596,704,ls),
(601,721,o),
(614,730,o),
(631,730,cs),
(648,730,o),
(653,721,o),
(647,704,cs),
(597,571,ls),
(592,557,o),
(583,550,o),
(569,550,cs)
);
},
{
closed = 1;
nodes = (
(386,88,ls),
(381,60,o),
(385,42,o),
(392,15,cs),
(396,-1,o),
(389,-10,o),
(372,-10,cs),
(355,-10,o),
(346,-1,o),
(342,15,cs),
(335,43,o),
(336,55,o),
(338,88,c),
(316,49,o),
(273,-10,o),
(185,-10,cs),
(37,-10,o),
(17,125,o),
(40,255,cs),
(66,404,o),
(138,560,o),
(289,560,cs),
(352,560,o),
(385,521,o),
(399,449,c),
(446,715,ls),
(449,732,o),
(458,740,o),
(475,740,cs),
(492,740,o),
(499,732,o),
(496,715,cs)
);
},
{
closed = 1;
nodes = (
(273,38,o),
(341,119,o),
(354,194,cs),
(383,355,ls),
(395,425,o),
(351,512,o),
(287,512,cs),
(162,512,o),
(113,383,o),
(90,255,cs),
(71,147,o),
(86,38,o),
(195,38,cs)
);
}
);
width = 600;
}
);
unicode = 271;
},
{
color = (153, 254, 255, 255);
glyphname = dcroat;
layers = (
{
anchors = (
{
name = t.uni0308;
position = "{453, 700}";
}
);
layerId = "7B80DEB9-A0FA-491E-8DCF-B8BAEA8A01AC";
shapes = (
{
closed = 1;
nodes = (
(302,45,o),
(245,-10,o),
(153,-10,cs),
(13,-10,o),
(-16,108,o),
(8,244,cs),
(30,366,o),
(96,500,o),
(271,500,cs),
(345,500,o),
(382,463,o),
(380,399,c),
(427,665,ls),
(436,715,o),
(465,740,o),
(515,740,cs),
(565,740,o),
(586,715,o),
(577,665,cs),
(477,101,ls),
(475,88,o),
(476,76,o),
(478,63,cs),
(485,14,o),
(466,-10,o),
(417,-10,cs),
(368,-10,o),
(341,15,o),
(333,63,cs),
(331,75,o),
(331,94,o),
(334,110,c)
);
},
{
closed = 1;
nodes = (
(313,555,ls),
(276,555,o),
(261,573,o),
(268,610,cs),
(274,647,o),
(295,665,o),
(332,665,cs),
(592,665,ls),
(629,665,o),
(644,647,o),
(638,610,cs),
(631,573,o),
(610,555,o),
(573,555,cs)
);
},
{
closed = 1;
nodes = (
(285,125,o),
(339,165,o),
(350,225,cs),
(357,265,ls),
(366,315,o),
(335,365,o),
(273,365,cs),
(192,365,o),
(166,291,o),
(158,243,cs),
(148,187,o),
(162,125,o),
(225,125,cs)
);
}
);
width = 600;
},
{
anchors = (
{
name = _m.uni0308;
position = "{426, 488}";
},
{
name = _t.uni0308;
position = "{426, 488}";
},
{
name = t.uni0308;
position = "{464, 703}";
}
);
layerId = "DDB6E94A-FF9F-44FE-9E50-A37C641AA6D0";
shapes = (
{
closed = 1;
nodes = (
(319,28,o),
(258,-10,o),
(191,-10,cs),
(38,-10,o),
(20,112,o),
(40,226,cs),
(63,360,o),
(132,500,o),
(291,500,cs),
(364,500,o),
(408,455,o),
(410,396,c),
(463,695,ls),
(468,725,o),
(485,740,o),
(515,740,cs),
(545,740,o),
(558,725,o),
(553,695,cs),
(446,95,ls),
(442,75,o),
(444,55,o),
(449,35,cs),
(456,5,o),
(442,-10,o),
(412,-10,cs),
(382,-10,o),
(367,5,o),
(359,35,cs),
(354,54,o),
(353,75,o),
(356,94,c)
);
},
{
closed = 1;
nodes = (
(318,572,ls),
(293,572,o),
(283,585,o),
(288,610,cs),
(292,635,o),
(306,647,o),
(331,647,cs),
(586,647,ls),
(611,647,o),
(622,635,o),
(618,610,cs),
(613,585,o),
(598,572,o),
(573,572,cs)
);
},
{
closed = 1;
nodes = (
(289,80,o),
(363,133,o),
(375,196,cs),
(387,266,ls),
(398,330,o),
(362,410,o),
(290,410,cs),
(186,410,o),
(145,314,o),
(131,232,cs),
(116,147,o),
(137,80,o),
(216,80,cs)
);
}
);
width = 600;
},
{
anchors = (
{
name = t.uni0308;
position = "{481, 687}";
}
);
layerId = "888E2163-DF89-49B9-A98A-97103207B079";
shapes = (
{
closed = 1;
nodes = (
(356,49,o),
(303,-10,o),
(205,-10,cs),
(67,-10,o),
(34,105,o),
(55,225,cs),
(79,364,o),
(157,500,o),
(298,500,cs),
(371,500,o),
(424,461,o),
(429,389,c),
(486,715,ls),
(489,732,o),
(498,740,o),
(515,740,cs),
(532,740,o),
(539,732,o),
(536,715,cs),
(426,88,ls),
(421,60,o),
(425,42,o),
(432,15,cs),
(436,-1,o),
(429,-10,o),
(412,-10,cs),
(395,-10,o),
(386,-1,o),
(382,15,cs),
(375,43,o),
(376,55,o),
(378,88,c)
);
},
{
closed = 1;
nodes = (
(335,588,ls),
(321,588,o),
(315,596,o),
(318,610,cs),
(320,624,o),
(328,631,o),
(342,631,cs),
(590,631,ls),
(604,631,o),
(610,624,o),
(608,610,cs),
(605,596,o),
(597,588,o),
(583,588,cs)
);
},
{
closed = 1;
nodes = (
(303,38,o),
(381,119,o),
(394,194,cs),
(412,295,ls),
(424,365,o),
(371,452,o),
(297,452,cs),
(182,452,o),
(125,343,o),
(105,225,cs),
(87,127,o),
(116,38,o),
(215,38,cs)
);
}
);
width = 600;
}
);
unicode = 273;
},
{
color = (153, 254, 255, 255);
glyphname = e;
layers = (
{
layerId = "7B80DEB9-A0FA-491E-8DCF-B8BAEA8A01AC";
shapes = (
{
closed = 1;
nodes = (
(463,108,o),
(457,69,o),
(439,53,cs),
(379,-1,o),
(311,-10,o),
(223,-10,cs),
(115,-10,o),
(36,67,o),
(32,180,cs),
(24,391,o),
(124,560,o),
(339,560,cs),
(460,560,o),
(530,508,o),
(534,408,cs),
(541.55,217.44,o),
(330.67,212.23,o),
(158.05,218.42,c),
(157.75,210.3,o),
(157.73,202.14,o),
(158,194,cs),
(160,149,o),
(199,119,o),
(242,119,cs),
(303,119,o),
(329,128,o),
(373,155,cs),
(389,165,o),
(423,169,o),
(440,143,cs)
);
},
{
closed = 1;
nodes = (
(298.92,323.44,o),
(415.02,333.13,o),
(412,389,cs),
(410,419,o),
(381,434,o),
(335,434,cs),
(258.63,434,o),
(207.68,388.1,o),
(180.74,325.05,c)
);
}
);
width = 600;
},
{
layerId = "DDB6E94A-FF9F-44FE-9E50-A37C641AA6D0";
shapes = (
{
closed = 1;
nodes = (
(459,89,o),
(453,63,o),
(425,44,c),
(366,1,o),
(306,-10,o),
(225,-10,cs),
(119,-10,o),
(44,66,o),
(40,178,cs),
(30,455,o),
(192,560,o),
(341,560,cs),
(449,560,o),
(505,504,o),
(513,412,cs),
(529.01,224.04,o),
(289.31,228.61,o),
(131.54,236.48,c),
(130.22,220.06,o),
(129.67,202.59,o),
(130,184,cs),
(131,118,o),
(180,80,o),
(237,80,cs),
(297,80,o),
(333,91,o),
(374,117,c),
(405,138,o),
(424,137,o),
(440,115,cs)
);
},
{
closed = 1;
nodes = (
(273.89,310.42,o),
(429.11,308.98,o),
(418,409,cs),
(414,449,o),
(382,470,o),
(334,470,cs),
(269.14,470,o),
(182.17,433.88,o),
(146.37,317.26,c)
);
}
);
width = 600;
},
{
layerId = "888E2163-DF89-49B9-A98A-97103207B079";
shapes = (
{
closed = 1;
nodes = (
(442,81,o),
(440,66,o),
(425,53,cs),
(368,2,o),
(313,-10,o),
(225,-10,cs),
(133,-10,o),
(59,62,o),
(55,167,cs),
(46,438,o),
(199,560,o),
(350,560,cs),
(436,560,o),
(498,514,o),
(505,420,cs),
(518.66,224.24,o),
(247.14,233.25,o),
(107.86,245.49,c),
(105.09,220.05,o),
(104.04,192.59,o),
(105,163,cs),
(108,90,o),
(164,40,o),
(230,40,cs),
(306,40,o),
(348,49,o),
(398,94,cs),
(413,108,o),
(424,108,o),
(433,95,c)
);
},
{
closed = 1;
nodes = (
(247.22,285.27,o),
(464.83,275.13,o),
(455,427,cs),
(451,484,o),
(400,509,o),
(347,509,cs),
(251.91,509,o),
(150.57,446.19,o),
(116.56,297.72,c)
);
}
);
width = 600;
}
);
unicode = 101;
},
{
color = (153, 254, 255, 255);
glyphname = schwa;
layers = (
{
layerId = "7B80DEB9-A0FA-491E-8DCF-B8BAEA8A01AC";
shapes = (
{
closed = 1;
nodes = (
(82,442,o),
(88,481,o),
(106,497,cs),
(166,551,o),
(234,560,o),
(322,560,cs),
(430,560,o),
(509,483,o),
(513,370,cs),
(521,159,o),
(421,-10,o),
(206,-10,cs),
(85,-10,o),
(15,46,o),
(11,146,cs),
(2,373,o),
(303,343,o),
(480,338,c),
(476,221,l),
(354,223,o),
(132,239,o),
(133,165,cs),
(133,135,o),
(164,116,o),
(210,116,cs),
(334,116,o),
(391,237,o),
(387,356,cs),
(385,401,o),
(346,431,o),
(303,431,cs),
(242,431,o),
(216,422,o),
(172,395,cs),
(156,385,o),
(122,381,o),
(105,407,cs)
);
}
);
width = 600;
},
{
layerId = "DDB6E94A-FF9F-44FE-9E50-A37C641AA6D0";
shapes = (
{
closed = 1;
nodes = (
(81,461,o),
(87,486,o),
(115,506,cs),
(174,548,o),
(234,560,o),
(315,560,cs),
(421,560,o),
(496,484,o),
(500,372,cs),
(510,95,o),
(348,-10,o),
(199,-10,cs),
(91,-10,o),
(35,41,o),
(27,133,cs),
(8,349,o),
(349,331,o),
(486,328,c),
(484,238,l),
(358,242,o),
(108,262,o),
(122,136,cs),
(126,96,o),
(158,80,o),
(206,80,cs),
(291,80,o),
(414,142,o),
(410,366,cs),
(409,432,o),
(360,470,o),
(303,470,cs),
(243,470,o),
(207,460,o),
(166,433,cs),
(135,413,o),
(116,413,o),
(100,435,cs)
);
}
);
width = 600;
},
{
layerId = "888E2163-DF89-49B9-A98A-97103207B079";
shapes = (
{
closed = 1;
nodes = (
(104,469,o),
(106,484,o),
(121,497,cs),
(178,548,o),
(233,560,o),
(321,560,cs),
(413,560,o),
(487,488,o),
(491,383,cs),
(500,112,o),
(347,-10,o),
(196,-10,cs),
(110,-10,o),
(48,36,o),
(41,130,cs),
(26,335,o),
(365,323,o),
(485,321,c),
(482,268,l),
(364,270,o),
(80,286,o),
(91,123,cs),
(95,66,o),
(146,41,o),
(199,41,cs),
(319,41,o),
(449,141,o),
(441,387,cs),
(438,460,o),
(382,510,o),
(316,510,cs),
(240,510,o),
(198,501,o),
(148,456,cs),
(133,442,o),
(122,442,o),
(113,455,cs)
);
}
);
width = 600;
}
);
unicode = 601;
},
{
color = (153, 254, 255, 255);
glyphname = f;
layers = (
{
layerId = "7B80DEB9-A0FA-491E-8DCF-B8BAEA8A01AC";
shapes = (
{
closed = 1;
nodes = (
(508,475,ls),
(553,475,o),
(571,453,o),
(564,408,cs),
(555,363,o),
(529,340,o),
(484,340,cs),
(101,340,ls),
(56,340,o),
(38,363,o),
(47,408,cs),
(54,453,o),
(80,475,o),
(125,475,cs)
);
},
{
closed = 1;
nodes = (
(300,-10,ls),
(274,-158,o),
(188,-235,o),
(43,-235,cs),
(-8,-235,ls),
(-52,-235,o),
(-70,-214,o),
(-61,-170,cs),
(-54,-126,o),
(-29,-105,o),
(15,-105,cs),
(66,-105,ls),
(106,-105,o),
(139,-72,o),
(150,-10,cs),
(247,545,ls),
(268,667,o),
(346,730,o),
(485,730,cs),
(526,730,ls),
(570,730,o),
(587,709,o),
(579,665,cs),
(571,621,o),
(547,600,o),
(503,600,cs),
(462,600,ls),
(437,600,o),
(403,581,o),
(397,545,cs)
);
}
);
width = 600;
},
{
layerId = "DDB6E94A-FF9F-44FE-9E50-A37C641AA6D0";
shapes = (
{
closed = 1;
nodes = (
(520,470,ls),
(547,470,o),
(560,452,o),
(555,425,cs),
(551,398,o),
(531,380,o),
(504,380,cs),
(97,380,ls),
(70,380,o),
(56,398,o),
(60,425,cs),
(65,452,o),
(86,470,o),
(113,470,cs)
);
},
{
closed = 1;
nodes = (
(252,-20,ls),
(232,-133,o),
(160,-210,o),
(35,-210,cs),
(-10,-210,ls),
(-37,-210,o),
(-52,-192,o),
(-48,-165,cs),
(-43,-138,o),
(-21,-120,o),
(6,-120,cs),
(51,-120,ls),
(103,-120,o),
(151,-83,o),
(162,-20,cs),
(266,570,ls),
(285,676,o),
(355,730,o),
(469,730,cs),
(534,730,ls),
(561,730,o),
(576,712,o),
(572,685,cs),
(567,658,o),
(545,640,o),
(518,640,cs),
(453,640,ls),
(409,640,o),
(364,616,o),
(356,570,cs)
);
}
);
width = 600;
},
{
layerId = "888E2163-DF89-49B9-A98A-97103207B079";
shapes = (
{
closed = 1;
nodes = (
(526,469,ls),
(541,469,o),
(549,460,o),
(546,445,cs),
(544,430,o),
(531,419,o),
(516,419,cs),
(93,419,ls),
(78,419,o),
(71,430,o),
(73,445,cs),
(76,460,o),
(88,469,o),
(103,469,cs)
);
},
{
closed = 1;
nodes = (
(232,-20,ls),
(216,-112,o),
(171,-185,o),
(51,-185,cs),
(-8,-185,ls),
(-23,-185,o),
(-30,-175,o),
(-27,-160,cs),
(-25,-145,o),
(-14,-135,o),
(1,-135,cs),
(60,-135,ls),
(120,-135,o),
(169,-95,o),
(182,-20,cs),
(290,595,ls),
(306,685,o),
(361,730,o),
(455,730,cs),
(544,730,ls),
(559,730,o),
(566,720,o),
(563,705,cs),
(561,690,o),
(550,680,o),
(535,680,cs),
(446,680,ls),
(391,680,o),
(350,652,o),
(340,595,cs)
);
}
);
width = 600;
}
);
unicode = 102;
},
{
color = (153, 254, 255, 255);
glyphname = g;
layers = (
{
layerId = "7B80DEB9-A0FA-491E-8DCF-B8BAEA8A01AC";
shapes = (
{
closed = 1;
nodes = (
(337.913,99,l),
(311.048,37,o),
(245.473,-10,o),
(163.473,-10,cs),
(3.473,-10,o),
(-8.807,148,o),
(13.627,274,cs),
(36.178,406,o),
(106.486,560,o),
(281.486,560,cs),
(345.486,560,o),
(387.438,523,o),
(395.868,459,c),
(400.037,485,l),
(409.67,535,o),
(433.486,560,o),
(483.486,560,cs),
(533.486,560,o),
(549.67,535,o),
(540.037,485,cs),
(455,0,ls),
(424.344,-172,o),
(355.783,-270,o),
(152.783,-270,cs),
(73.783,-270,o),
(7.01,-241,o),
(-34.83,-181,cs),
(-44.893,-167,o),
(-49.193,-148,o),
(-45.845,-130,cs),
(-39.797,-93,o),
(1.309,-53,o),
(43.309,-53,cs),
(56.309,-53,o),
(69.899,-57,o),
(79.372,-67,cs),
(106.44,-98,o),
(143.392,-135,o),
(197.392,-135,cs),
(258.392,-135,o),
(304.966,-88,o),
(320,0,cs)
);
},
{
closed = 1;
nodes = (
(297.372,140,o),
(346.83,181,o),
(356.874,235,cs),
(370.086,315,ls),
(380.54,373,o),
(355.115,420,o),
(293.115,420,cs),
(212.115,420,o),
(175.255,341,o),
(163.275,273,cs),
(151.999,207,o),
(161.372,140,o),
(237.372,140,cs)
);
}
);
width = 600;
},
{
layerId = "DDB6E94A-FF9F-44FE-9E50-A37C641AA6D0";
shapes = (
{
closed = 1;
nodes = (
(361,120,l),
(322,41,o),
(265,10,o),
(195,10,cs),
(36,10,o),
(28,157,o),
(50,281,cs),
(71,405,o),
(133,560,o),
(302,560,cs),
(375,560,o),
(413,519,o),
(420,456,c),
(431,515,ls),
(436,545,o),
(454,560,o),
(484,560,cs),
(514,560,o),
(526,545,o),
(521,515,cs),
(430,0,ls),
(400,-170,o),
(332,-240,o),
(170,-240,cs),
(80,-240,o),
(22,-196,o),
(-2,-154,cs),
(-9,-142,o),
(-11,-127,o),
(-9,-115,cs),
(-5,-88,o),
(16,-64,o),
(48,-64,cs),
(63,-64,o),
(72,-70,o),
(79,-82,cs),
(101,-117,o),
(123,-150,o),
(198,-150,cs),
(267,-150,o),
(320,-114,o),
(340,0,cs)
);
},
{
closed = 1;
nodes = (
(292,95,o),
(369,163,o),
(380,226,cs),
(396,316,ls),
(407,380,o),
(374,475,o),
(302,475,cs),
(188,475,o),
(155,369,o),
(141,287,cs),
(126,202,o),
(122,95,o),
(219,95,cs)
);
}
);
width = 600;
},
{
layerId = "888E2163-DF89-49B9-A98A-97103207B079";
shapes = (
{
closed = 1;
nodes = (
(383,128,l),
(369,87,o),
(320,30,o),
(212,30,cs),
(64,30,o),
(44,165,o),
(65,285,cs),
(86,404,o),
(158,560,o),
(309,560,cs),
(382,560,o),
(425,521,o),
(439,449,c),
(454,535,ls),
(457,552,o),
(467,560,o),
(484,560,cs),
(501,560,o),
(507,552,o),
(504,535,cs),
(410,0,ls),
(380,-173,o),
(290,-210,o),
(179,-210,cs),
(93,-210,o),
(44,-176,o),
(22,-147,cs),
(13,-135,o),
(10,-126,o),
(12,-114,cs),
(15,-97,o),
(26,-85,o),
(42,-85,cs),
(48,-85,o),
(55,-87,o),
(63,-97,cs),
(86,-127,o),
(128,-160,o),
(190,-160,cs),
(268,-160,o),
(337,-128,o),
(360,0,cs)
);
},
{
closed = 1;
nodes = (
(310,78,o),
(388,159,o),
(401,234,cs),
(423,355,ls),
(435,425,o),
(381,512,o),
(307,512,cs),
(182,512,o),
(133,383,o),
(115,285,cs),
(98,187,o),
(106,78,o),
(222,78,cs)
);
}
);
width = 600;
}
);
unicode = 103;
},
{
color = (153, 254, 255, 255);
glyphname = h;
layers = (
{
layerId = "7B80DEB9-A0FA-491E-8DCF-B8BAEA8A01AC";
shapes = (
{
closed = 1;
nodes = (
(143,65,ls),
(135,15,o),
(105,-10,o),
(55,-10,cs),
(5,-10,o),
(-15,15,o),
(-7,65,cs),
(100,667,ls),
(108,716,o),
(137,740,o),
(182,740,cs),
(227,740,o),
(253,716,o),
(245,667,cs),
(206,450,l),
(240,520,o),
(294,560,o),
(358,560,cs),
(486,560,o),
(541,469,o),
(521,355,cs),
(469,65,ls),
(461,15,o),
(431,-10,o),
(381,-10,cs),
(331,-10,o),
(311,15,o),
(319,65,cs),
(365,325,ls),
(373,371,o),
(362,420,o),
(307,420,cs),
(245,420,o),
(198,373,o),
(188,315,cs)
);
}
);
width = 600;
},
{
layerId = "DDB6E94A-FF9F-44FE-9E50-A37C641AA6D0";
shapes = (
{
closed = 1;
nodes = (
(111,35,ls),
(106,5,o),
(88,-10,o),
(58,-10,cs),
(28,-10,o),
(16,5,o),
(21,35,cs),
(138,695,ls),
(143,725,o),
(161,740,o),
(191,740,cs),
(221,740,o),
(233,725,o),
(228,695,cs),
(185,456,l),
(216,519,o),
(268,560,o),
(341,560,cs),
(447,560,o),
(510,484,o),
(490,370,cs),
(431,35,ls),
(426,5,o),
(408,-10,o),
(378,-10,cs),
(348,-10,o),
(336,5,o),
(341,35,cs),
(396,344,ls),
(408,413,o),
(382,475,o),
(311,475,cs),
(239,475,o),
(172,380,o),
(161,316,cs)
);
}
);
width = 600;
},
{
layerId = "888E2163-DF89-49B9-A98A-97103207B079";
shapes = (
{
closed = 1;
nodes = (
(88,15,ls),
(85,-2,o),
(75,-10,o),
(58,-10,cs),
(41,-10,o),
(35,-2,o),
(38,15,cs),
(161,715,ls),
(164,732,o),
(174,740,o),
(191,740,cs),
(208,740,o),
(214,732,o),
(211,715,cs),
(164,449,l),
(204,521,o),
(261,560,o),
(334,560,cs),
(442,560,o),
(489,476,o),
(470,367,cs),
(408,15,ls),
(405,-2,o),
(395,-10,o),
(378,-10,cs),
(361,-10,o),
(355,-2,o),
(358,15,cs),
(418,355,ls),
(432,438,o),
(401,512,o),
(318,512,cs),
(244,512,o),
(160,425,o),
(148,355,cs)
);
}
);
width = 600;
}
);
unicode = 104;
},
{
color = (153, 254, 255, 255);
glyphname = idotless;
layers = (
{
layerId = "7B80DEB9-A0FA-491E-8DCF-B8BAEA8A01AC";
shapes = (
{
closed = 1;
nodes = (
(127,362,ls),
(86,352,o),
(60,372,o),
(50,415,cs),
(41,455,o),
(56,487,o),
(98,498,cs),
(245,535,ls),
(334,557,o),
(385,500,o),
(364,420,cs),
(306,194,ls),
(291,137,o),
(308,125,o),
(335,125,cs),
(362,125,o),
(380,141,o),
(408,172,cs),
(435,202,o),
(461,202,o),
(490,178,cs),
(521,152,o),
(519,127,o),
(498,97,cs),
(443,20,o),
(389,-10,o),
(284,-10,cs),
(180,-10,o),
(129,59,o),
(158,170,cs),
(206,351,ls),
(211,368,o),
(204,380,o),
(187,376,cs)
);
}
);
width = 600;
},
{
layerId = "DDB6E94A-FF9F-44FE-9E50-A37C641AA6D0";
shapes = (
{
closed = 1;
nodes = (
(133,408,ls),
(107,401,o),
(87,416,o),
(82,444,cs),
(77,474,o),
(87,491,o),
(119,499,cs),
(264,535,ls),
(327,551,o),
(362,514,o),
(349,460,cs),
(290,224,ls),
(260,105,o),
(276,80,o),
(316,80,cs),
(353,80,o),
(390,103,o),
(418,134,cs),
(441,158,o),
(463,155,o),
(479,141,cs),
(496,127,o),
(497,95,o),
(479,72,cs),
(430,12,o),
(381,-10,o),
(301,-10,cs),
(211,-10,o),
(151,40,o),
(182,161,cs),
(246,408,ls),
(251,426,o),
(239,435,o),
(223,431,cs)
);
}
);
width = 600;
},
{
layerId = "888E2163-DF89-49B9-A98A-97103207B079";
shapes = (
{
closed = 1;
nodes = (
(131,448,ls),
(115,444,o),
(104,449,o),
(101,466,cs),
(98,483,o),
(104,493,o),
(121,497,cs),
(277,538,ls),
(322,550,o),
(349,520,o),
(339,480,cs),
(265,196,ls),
(236,83,o),
(237,40,o),
(303,40,cs),
(348,40,o),
(383,71,o),
(419,112,cs),
(430,124,o),
(445,124,o),
(454,118,cs),
(464,111,o),
(467,92,o),
(457,81,cs),
(408,23,o),
(374,-10,o),
(290,-10,cs),
(208,-10,o),
(175,40,o),
(204,155,cs),
(282,464,ls),
(286,480,o),
(275,488,o),
(261,484,cs)
);
}
);
width = 600;
}
);
unicode = 305;
},
{
color = (153, 254, 255, 255);
glyphname = ij;
layers = (
{
layerId = "7B80DEB9-A0FA-491E-8DCF-B8BAEA8A01AC";
shapes = (
{
closed = 1;
nodes = (
(40,-180,ls),
(-5,-180,o),
(-23,-158,o),
(-15,-113,cs),
(-7,-68,o),
(19,-45,o),
(64,-45,cs),
(192,-45,ls),
(230,-45,o),
(286,5,o),
(293,45,qs),
(369,475,ls),
(379,525,o),
(408,550,o),
(458,550,cs),
(508,550,o),
(529,525,o),
(519,475,cs),
(443,40,ls),
(424,-62,o),
(283,-180,o),
(179,-180,qs)
);
},
{
closed = 1;
nodes = (
(89,475,ls),
(99,525,o),
(128,550,o),
(178,550,cs),
(228,550,o),
(249,525,o),
(239,475,cs),
(180,140,ls),
(171,90,o),
(142,65,o),
(92,65,cs),
(42,65,o),
(21,90,o),
(30,140,cs)
);
},
{
closed = 1;
nodes = (
(152,637,o),
(110,679,o),
(117,715,qs),
(124,751,o),
(180,793,o),
(221,793,qs),
(262,793,o),
(304,751,o),
(297,715,qs),
(290,679,o),
(234,637,o),
(193,637,qs)
);
},
{
closed = 1;
nodes = (
(432,637,o),
(390,679,o),
(397,715,qs),
(404,751,o),
(460,793,o),
(501,793,qs),
(542,793,o),
(584,751,o),
(577,715,qs),
(570,679,o),
(514,637,o),
(473,637,qs)
);
}
);
width = 600;
},
{
layerId = "DDB6E94A-FF9F-44FE-9E50-A37C641AA6D0";
shapes = (
{
closed = 1;
nodes = (
(37,-180,ls),
(10,-180,o),
(-1,-166,o),
(3,-139,cs),
(8,-112,o),
(24,-98,o),
(51,-98,cs),
(176,-98,ls),
(238,-98,o),
(320,-30,o),
(331,31,qs),
(414,505,ls),
(420,535,o),
(438,550,o),
(468,550,cs),
(498,550,o),
(510,535,o),
(504,505,cs),
(421,31,ls),
(403,-66,o),
(263,-180,o),
(162,-180,qs)
);
},
{
closed = 1;
nodes = (
(117,505,ls),
(123,535,o),
(141,550,o),
(171,550,cs),
(201,550,o),
(213,535,o),
(207,505,cs),
(126,45,ls),
(120,15,o),
(103,0,o),
(73,0,cs),
(43,0,o),
(30,15,o),
(36,45,cs)
);
},
{
closed = 1;
nodes = (
(153,649,o),
(121,683,o),
(126,712,qs),
(132,742,o),
(176,777,o),
(209,777,qs),
(242,777,o),
(274,742,o),
(268,712,qs),
(263,683,o),
(219,649,o),
(186,649,qs)
);
},
{
closed = 1;
nodes = (
(451,649,o),
(419,683,o),
(424,712,qs),
(430,742,o),
(474,777,o),
(507,777,qs),
(540,777,o),
(572,742,o),
(566,712,qs),
(561,683,o),
(517,649,o),
(484,649,qs)
);
}
);
width = 600;
},
{
layerId = "888E2163-DF89-49B9-A98A-97103207B079";
shapes = (
{
closed = 1;
nodes = (
(38,-180,ls),
(23,-180,o),
(16,-173,o),
(19,-158,cs),
(22,-143,o),
(31,-135,o),
(46,-135,cs),
(177,-135,ls),
(248,-135,o),
(334,-60,o),
(347,10,qs),
(439,525,ls),
(441,542,o),
(451,550,o),
(468,550,cs),
(485,550,o),
(491,542,o),
(489,525,cs),
(397,10,ls),
(381,-79,o),
(261,-180,o),
(169,-180,qs)
);
},
{
closed = 1;
nodes = (
(141,525,ls),
(143,542,o),
(153,550,o),
(170,550,cs),
(187,550,o),
(193,542,o),
(191,525,cs),
(101,25,ls),
(99,8,o),
(89,0,o),
(72,0,cs),
(55,0,o),
(49,8,o),
(51,25,cs)
);
},
{
closed = 1;
nodes = (
(162,655,o),
(136,685,o),
(140,710,qs),
(144,735,o),
(182,765,o),
(208,765,qs),
(234,765,o),
(260,735,o),
(256,710,qs),
(252,685,o),
(214,655,o),
(188,655,qs)
);
},
{
closed = 1;
nodes = (
(458,655,o),
(432,685,o),
(436,710,qs),
(440,735,o),
(478,765,o),
(504,765,qs),
(530,765,o),
(556,735,o),
(552,710,qs),
(548,685,o),
(510,655,o),
(484,655,qs)
);
}
);
width = 600;
}
);
unicode = 307;
},
{
color = (153, 254, 255, 255);
glyphname = ij_acute;
layers = (
{
anchors = (
{
name = m.uni0308;
position = "{555, 785}";
}
);
layerId = "7B80DEB9-A0FA-491E-8DCF-B8BAEA8A01AC";
shapes = (
{
closed = 1;
nodes = (
(-7,-68,o),
(19,-45,o),
(64,-45,cs),
(192,-45,ls),
(230,-45,o),
(286,5,o),
(293,45,qs),
(369,475,ls),
(379,525,o),
(408,550,o),
(458,550,cs),
(508,550,o),
(529,525,o),
(519,475,cs),
(443,40,ls),
(424,-62,o),
(283,-180,o),
(179,-180,qs),
(40,-180,ls),
(-5,-180,o),
(-23,-158,o),
(-15,-113,cs)
);
},
{
closed = 1;
nodes = (
(42,65,o),
(21,90,o),
(30,140,cs),
(89,475,ls),
(99,525,o),
(128,550,o),
(178,550,cs),
(228,550,o),
(249,525,o),
(239,475,cs),
(180,140,ls),
(171,90,o),
(142,65,o),
(92,65,cs)
);
},
{
closed = 1;
nodes = (
(428,645,o),
(422,671,o),
(471,724,cs),
(489,745,ls),
(519,778,o),
(549,785,o),
(588,785,cs),
(655,785,o),
(661,759,o),
(609,708,cs),
(584,683,ls),
(559,657,o),
(528,645,o),
(495,645,cs)
);
},
{
closed = 1;
nodes = (
(144,645,o),
(138,671,o),
(187,724,cs),
(205,745,ls),
(235,778,o),
(265,785,o),
(304,785,cs),
(371,785,o),
(377,759,o),
(325,708,cs),
(300,683,ls),
(275,657,o),
(244,645,o),
(211,645,cs)
);
}
);
width = 600;
},
{
anchors = (
{
name = m.uni0308;
position = "{555, 785}";
}
);
layerId = "DDB6E94A-FF9F-44FE-9E50-A37C641AA6D0";
shapes = (
{
closed = 1;
nodes = (
(8,-112,o),
(24,-98,o),
(51,-98,cs),
(176,-98,ls),
(238,-98,o),
(320,-30,o),
(331,31,qs),
(414,505,ls),
(420,535,o),
(438,550,o),
(468,550,cs),
(498,550,o),
(510,535,o),
(504,505,cs),
(421,31,ls),
(403,-66,o),
(263,-180,o),
(162,-180,qs),
(37,-180,ls),
(10,-180,o),
(-1,-166,o),
(3,-139,cs)
);
},
{
closed = 1;
nodes = (
(43,0,o),
(30,15,o),
(36,45,cs),
(117,505,ls),
(123,535,o),
(141,550,o),
(171,550,cs),
(201,550,o),
(213,535,o),
(207,505,cs),
(126,45,ls),
(120,15,o),
(103,0,o),
(73,0,cs)
);
},
{
closed = 1;
nodes = (
(451,645,o),
(446,661,o),
(478,694,cs),
(537,759,ls),
(554,776,o),
(573,785,o),
(595,785,cs),
(638,785,o),
(643,768,o),
(610,734,cs),
(547,669,ls),
(531,653,o),
(513,645,o),
(492,645,cs)
);
},
{
closed = 1;
nodes = (
(162,645,o),
(157,661,o),
(189,694,cs),
(248,759,ls),
(265,776,o),
(284,785,o),
(306,785,cs),
(349,785,o),
(354,768,o),
(321,734,cs),
(258,669,ls),
(242,653,o),
(224,645,o),
(203,645,cs)
);
}
);
width = 600;
},
{
anchors = (
{
name = m.uni0308;
position = "{559, 785}";
}
);
layerId = "888E2163-DF89-49B9-A98A-97103207B079";
shapes = (
{
closed = 1;
nodes = (
(22,-143,o),
(31,-135,o),
(46,-135,cs),
(177,-135,ls),
(248,-135,o),
(334,-60,o),
(347,10,qs),
(439,525,ls),
(441,542,o),
(451,550,o),
(468,550,cs),
(485,550,o),
(491,542,o),
(489,525,cs),
(397,10,ls),
(381,-79,o),
(261,-180,o),
(169,-180,qs),
(38,-180,ls),
(23,-180,o),
(16,-173,o),
(19,-158,cs)
);
},
{
closed = 1;
nodes = (
(55,0,o),
(49,8,o),
(51,25,cs),
(141,525,ls),
(143,542,o),
(153,550,o),
(170,550,cs),
(187,550,o),
(193,542,o),
(191,525,cs),
(101,25,ls),
(99,8,o),
(89,0,o),
(72,0,cs)
);
},
{
closed = 1;
nodes = (
(465,645,o),
(463,654,o),
(480,673,cs),
(570,769,ls),
(581,780,o),
(593,785,o),
(606,785,cs),
(632,785,o),
(634,775,o),
(614,754,cs),
(521,659,ls),
(512,650,o),
(501,645,o),
(489,645,cs)
);
},
{
closed = 1;
nodes = (
(170,645,o),
(168,654,o),
(185,673,cs),
(275,769,ls),
(286,780,o),
(298,785,o),
(311,785,cs),
(337,785,o),
(339,775,o),
(319,754,cs),
(226,659,ls),
(217,650,o),
(206,645,o),
(194,645,cs)
);
}
);
width = 600;
}
);
},
{
color = (153, 254, 255, 255);
glyphname = jdotless;
layers = (
{
layerId = "7B80DEB9-A0FA-491E-8DCF-B8BAEA8A01AC";
shapes = (
{
closed = 1;
nodes = (
(311,351,ls),
(314,368,o),
(309,380,o),
(292,376,cs),
(232,362,ls),
(191,352,o),
(165,372,o),
(155,415,cs),
(146,455,o),
(161,487,o),
(203,498,cs),
(350,535,ls),
(439,557,o),
(483,501,o),
(469,420,cs),
(403,46,ls),
(359,-201,o),
(312,-270,o),
(107,-270,cs),
(64,-270,o),
(1,-264,o),
(-60,-181,cs),
(-71,-167,o),
(-73,-145,o),
(-70,-129,cs),
(-64,-95,o),
(-24,-53,o),
(16,-53,cs),
(37,-53,o),
(51,-65,o),
(68,-87,cs),
(83,-105,o),
(100,-135,o),
(140,-135,cs),
(196,-135,o),
(228,-89,o),
(249,22,cs)
);
}
);
width = 600;
},
{
layerId = "DDB6E94A-FF9F-44FE-9E50-A37C641AA6D0";
shapes = (
{
closed = 1;
nodes = (
(343,410,ls),
(346,428,o),
(332,436,o),
(316,432,cs),
(226,409,ls),
(200,402,o),
(180,417,o),
(175,445,cs),
(170,475,o),
(180,492,o),
(212,500,cs),
(357,536,ls),
(420,552,o),
(452,516,o),
(442,461,cs),
(354,-33,ls),
(328,-180,o),
(253,-240,o),
(117,-240,cs),
(39,-240,o),
(-8,-198,o),
(-45,-148,cs),
(-51,-139,o),
(-53,-129,o),
(-52,-121,cs),
(-49,-99,o),
(-26,-68,o),
(6,-68,cs),
(23,-68,o),
(34,-81,o),
(41,-92,cs),
(63,-123,o),
(86,-150,o),
(131,-150,cs),
(189,-150,o),
(250,-113,o),
(262,-47,cs)
);
}
);
width = 600;
},
{
layerId = "888E2163-DF89-49B9-A98A-97103207B079";
shapes = (
{
closed = 1;
nodes = (
(368,458,ls),
(372,478,o),
(363,483,o),
(344,478,cs),
(214,446,ls),
(193,441,o),
(181,445,o),
(177,462,cs),
(173,479,o),
(180,493,o),
(202,498,cs),
(372,538,ls),
(412,547,o),
(429,518,o),
(422,478,cs),
(325,-63,ls),
(307,-161,o),
(236,-220,o),
(120,-220,cs),
(32,-220,o),
(-10,-170,o),
(-31,-144,cs),
(-35,-139,o),
(-34,-131,o),
(-34,-127,cs),
(-31,-114,o),
(-17,-94,o),
(-5,-94,cs),
(2,-94,o),
(10,-101,o),
(17,-111,cs),
(48,-146,o),
(78,-170,o),
(127,-170,cs),
(196,-170,o),
(264,-123,o),
(274,-67,cs)
);
}
);
width = 600;
}
);
unicode = 567;
},
{
color = (153, 254, 255, 255);
glyphname = k;
layers = (
{
layerId = "7B80DEB9-A0FA-491E-8DCF-B8BAEA8A01AC";
shapes = (
{
closed = 1;
nodes = (
(481.401,76,ls),
(527.174,18,o),
(509.237,-10,o),
(439.237,-10,cs),
(385.237,-10,o),
(352,0,o),
(326.819,33,cs),
(154.434,252,l),
(317.901,283,l)
);
},
{
closed = 1;
nodes = (
(168.461,65,ls),
(159.645,15,o),
(130.237,-10,o),
(80.237,-10,cs),
(30.237,-10,o),
(9.645,15,o),
(18.461,65,cs),
(124.081,664,ls),
(132.897,714,o),
(162.306,739,o),
(212.306,739,cs),
(262.306,739,o),
(282.897,714,o),
(274.081,664,cs)
);
},
{
closed = 1;
nodes = (
(119.251,302,l),
(176.016,295,o),
(364.251,302,o),
(376.77,373,cs),
(380.649,395,o),
(374.294,410,o),
(345.294,410,cs),
(291.294,410,o),
(218.239,387,o),
(189.543,315,c),
(141.644,429,l),
(200.043,522,o),
(276.743,560,o),
(381.743,560,cs),
(506.743,560,o),
(545.813,481,o),
(528.181,381,cs),
(492.915,181,o),
(250.215,143,o),
(99.034,176,c)
);
}
);
width = 600;
},
{
layerId = "DDB6E94A-FF9F-44FE-9E50-A37C641AA6D0";
shapes = (
{
closed = 1;
nodes = (
(453.64,49,ls),
(483.94,11,o),
(470.237,-10,o),
(426.237,-10,cs),
(399.237,-10,o),
(380,0,o),
(364.35,19,cs),
(196.026,227,l),
(294.553,247,l)
);
},
{
closed = 1;
nodes = (
(137.171,35,ls),
(131.882,5,o),
(114.237,-10,o),
(84.237,-10,cs),
(54.237,-10,o),
(41.882,5,o),
(47.171,35,cs),
(163.547,695,ls),
(168.837,725,o),
(186.482,740,o),
(216.482,740,cs),
(246.482,740,o),
(258.837,725,o),
(253.547,695,cs)
);
},
{
closed = 1;
nodes = (
(148.137,273,l),
(220.198,262,o),
(379.311,291,o),
(398.886,385,cs),
(408.173,432,o),
(392.994,448,o),
(357.994,448,cs),
(310.994,448,o),
(224.412,405,o),
(179.012,329,c),
(144.178,398,l),
(210.516,502,o),
(294.864,538,o),
(377.864,538,cs),
(478.864,538,o),
(512.519,485,o),
(496.473,394,cs),
(468.613,236,o),
(283.918,164,o),
(134.855,192,c)
);
}
);
width = 600;
},
{
layerId = "888E2163-DF89-49B9-A98A-97103207B079";
shapes = (
{
closed = 1;
nodes = (
(442.232,24,ls),
(460.353,2,o),
(452.237,-10,o),
(421.237,-10,cs),
(406.237,-10,o),
(394.295,-4,o),
(385.234,7,cs),
(220.087,216,l),
(281.379,229,l)
);
},
{
closed = 1;
nodes = (
(113.645,15,ls),
(110.647,-2,o),
(101.237,-10,o),
(84.237,-10,cs),
(67.237,-10,o),
(60.647,-2,o),
(63.645,15,cs),
(187.074,715,ls),
(190.071,732,o),
(199.482,740,o),
(216.482,740,cs),
(233.482,740,o),
(240.071,732,o),
(237.074,715,cs)
);
},
{
closed = 1;
nodes = (
(144.082,250,l),
(282.318,240,o),
(400.432,269,o),
(420.533,383,cs),
(429.702,435,o),
(410.345,467,o),
(357.345,467,cs),
(300.345,467,o),
(234.526,434,o),
(160.243,353,c),
(139.649,395,l),
(206.755,475,o),
(281.161,517,o),
(370.161,517,cs),
(452.161,517,o),
(484.816,464,o),
(472.297,393,cs),
(443.555,230,o),
(285.973,187,o),
(135.794,203,c)
);
}
);
width = 600;
}
);
unicode = 107;
},
{
color = (153, 254, 255, 255);
glyphname = l;
layers = (
{
layerId = "7B80DEB9-A0FA-491E-8DCF-B8BAEA8A01AC";
shapes = (
{
closed = 1;
nodes = (
(372,24,o),
(315,-10,o),
(240,-10,cs),
(130,-10,o),
(90,65,o),
(98,170,cs),
(126,532,o),
(201,740,o),
(389,740,cs),
(511,740,o),
(535,635,o),
(515,536,cs),
(475,331,o),
(330,197,o),
(41,78,cs),
(1,62,o),
(-24,76,o),
(-33,119,cs),
(-43,162,o),
(-28,190,o),
(13,207,cs),
(233,301,o),
(349,406,o),
(377,538,cs),
(382,562,o),
(388,605,o),
(365,605,cs),
(317,605,o),
(251,444,o),
(236,197,cs),
(234,158,o),
(248,128,o),
(271,128,cs),
(296,128,o),
(316,145,o),
(344,172,cs),
(373,200,o),
(401,200,o),
(430,176,cs),
(458,153,o),
(457,113,o),
(434,89,cs)
);
}
);
width = 600;
},
{
layerId = "DDB6E94A-FF9F-44FE-9E50-A37C641AA6D0";
shapes = (
{
closed = 1;
nodes = (
(375,19,o),
(320,-10,o),
(247,-10,cs),
(147,-10,o),
(119,60,o),
(126,161,cs),
(157,601,o),
(270,740,o),
(408,740,cs),
(507,740,o),
(527,664,o),
(514,589,cs),
(473,336,o),
(327,191,o),
(19,66,cs),
(-12,54,o),
(-29,62,o),
(-36,91,cs),
(-43,119,o),
(-32,138,o),
(-1,151,cs),
(259,259,o),
(394,389,o),
(424,585,cs),
(430,626,o),
(421,650,o),
(393,650,cs),
(339,650,o),
(233,539,o),
(215,203,cs),
(210,115,o),
(210,76,o),
(269,76,cs),
(311,76,o),
(337,98,o),
(364,129,cs),
(388,153,o),
(410,155,o),
(429,139,cs),
(450,121,o),
(448,96,o),
(428,74,cs)
);
}
);
width = 600;
},
{
layerId = "888E2163-DF89-49B9-A98A-97103207B079";
shapes = (
{
closed = 1;
nodes = (
(378,18,o),
(328,-10,o),
(255,-10,cs),
(163,-10,o),
(135,59,o),
(144,155,cs),
(181,572,o),
(272,740,o),
(421,740,cs),
(510,740,o),
(521,672,o),
(514,616,cs),
(483,324,o),
(314,185,o),
(-1,57,cs),
(-18,50,o),
(-27,56,o),
(-31,74,cs),
(-34,92,o),
(-29,103,o),
(-12,110,cs),
(272,227,o),
(427,335,o),
(464,608,cs),
(469,650,o),
(459,690,o),
(417,690,cs),
(337,690,o),
(236,568,o),
(196,196,cs),
(185,93,o),
(203,40,o),
(272,40,cs),
(327,40,o),
(361,70,o),
(397,111,cs),
(408,123,o),
(421,124,o),
(433,114,cs),
(445,103,o),
(443,87,o),
(432,76,cs)
);
}
);
width = 600;
}
);
unicode = 108;
},
{
color = (153, 254, 255, 255);
glyphname = m;
layers = (
{
layerId = "7B80DEB9-A0FA-491E-8DCF-B8BAEA8A01AC";
shapes = (
{
closed = 1;
nodes = (
(-24,-10,o),
(-45,10,o),
(-37,54,cs),
(38,480,ls),
(39,486,o),
(38,493,o),
(36,499,cs),
(25,543,o),
(57,560,o),
(94,560,cs),
(135,560,o),
(160,541,o),
(171,499,cs),
(173,493,o),
(174,486,o),
(173,480,c),
(190,529,o),
(228,560,o),
(274,560,cs),
(332,560,o),
(361,521,o),
(363,480,c),
(378,521,o),
(410,560,o),
(472,560,cs),
(539,560,o),
(575,515,o),
(562,440,cs),
(494,54,ls),
(486,10,o),
(458,-10,o),
(416,-10,cs),
(373,-10,o),
(351,11,o),
(359,55,cs),
(418,393,ls),
(423,417,o),
(416,436,o),
(395,436,cs),
(373,436,o),
(362,417,o),
(357,393,cs),
(297,49,ls),
(289,8,o),
(257,-10,o),
(218,-10,cs),
(179,-10,o),
(154,8,o),
(162,49,cs),
(222,393,ls),
(226,416,o),
(222,436,o),
(200,436,cs),
(178,436,o),
(161,416,o),
(157,393,cs),
(98,55,ls),
(90,11,o),
(62,-10,o),
(19,-10,cs)
);
}
);
width = 600;
},
{
layerId = "DDB6E94A-FF9F-44FE-9E50-A37C641AA6D0";
shapes = (
{
closed = 1;
nodes = (
(-4,0,o),
(-23,13,o),
(-18,42,cs),
(61,485,ls),
(63,497,o),
(62,508,o),
(57,520,cs),
(47,545,o),
(67,560,o),
(92,560,cs),
(118,560,o),
(137,545,o),
(147,520,cs),
(152,508,o),
(153,497,o),
(151,485,c),
(170,538,o),
(199,560,o),
(253,560,cs),
(310,560,o),
(339,525,o),
(338,485,c),
(355,527,o),
(388,560,o),
(448,560,cs),
(530,560,o),
(553,497,o),
(539,418,cs),
(472,42,ls),
(467,13,o),
(445,0,o),
(418,0,cs),
(391,0,o),
(373,13,o),
(378,42,cs),
(443,409,ls),
(449,445,o),
(443,481,o),
(401,481,cs),
(360,481,o),
(341,446,o),
(334,410,cs),
(269,37,ls),
(264,11,o),
(244,0,o),
(220,0,cs),
(196,0,o),
(180,11,o),
(185,37,cs),
(250,409,ls),
(256,444,o),
(251,481,o),
(209,481,cs),
(167,481,o),
(148,447,o),
(141,410,cs),
(76,42,ls),
(71,13,o),
(50,0,o),
(23,0,cs)
);
}
);
width = 600;
},
{
layerId = "888E2163-DF89-49B9-A98A-97103207B079";
shapes = (
{
closed = 1;
nodes = (
(2,-10,o),
(-5,-1,o),
(-2,15,cs),
(82,490,ls),
(85,506,o),
(80,522,o),
(75,538,cs),
(70,553,o),
(83,560,o),
(97,560,cs),
(113,560,o),
(120,553,o),
(125,538,cs),
(130,522,o),
(132,506,o),
(131,490,c),
(152,539,o),
(192,560,o),
(237,560,cs),
(290,560,o),
(317,534,o),
(324,490,c),
(353,534,o),
(379,560,o),
(434,560,cs),
(510,560,o),
(533,499,o),
(521,431,cs),
(447,14,ls),
(445,-2,o),
(435,-10,o),
(419,-10,cs),
(403,-10,o),
(396,-2,o),
(398,14,cs),
(470,420,ls),
(479,468,o),
(465,513,o),
(411,513,cs),
(357,513,o),
(327,468,o),
(318,420,cs),
(246,14,ls),
(244,-2,o),
(234,-10,o),
(218,-10,cs),
(202,-10,o),
(195,-2,o),
(197,14,cs),
(269,420,ls),
(278,468,o),
(264,513,o),
(210,513,cs),
(156,513,o),
(127,468,o),
(118,420,cs),
(46,14,ls),
(44,-2,o),
(34,-10,o),
(18,-10,cs)
);
}
);
width = 600;
}
);
unicode = 109;
},
{
color = (153, 254, 255, 255);
glyphname = n;
layers = (
{
layerId = "7B80DEB9-A0FA-491E-8DCF-B8BAEA8A01AC";
shapes = (
{
closed = 1;
nodes = (
(170,560,o),
(197,535,o),
(205,487,cs),
(207,475,o),
(208,462,o),
(206,450,c),
(240,520,o),
(294,560,o),
(358,560,cs),
(486,560,o),
(541,469,o),
(521,355,cs),
(469,65,ls),
(461,15,o),
(431,-10,o),
(381,-10,cs),
(331,-10,o),
(311,15,o),
(319,65,cs),
(365,325,ls),
(373,371,o),
(362,420,o),
(307,420,cs),
(245,420,o),
(198,373,o),
(188,315,cs),
(143,65,ls),
(135,15,o),
(105,-10,o),
(55,-10,cs),
(5,-10,o),
(-16,15,o),
(-7,65,cs),
(61,449,ls),
(63,462,o),
(62,474,o),
(60,487,cs),
(53,536,o),
(72,560,o),
(121,560,cs)
);
}
);
width = 600;
},
{
layerId = "DDB6E94A-FF9F-44FE-9E50-A37C641AA6D0";
shapes = (
{
closed = 1;
nodes = (
(159,560,o),
(174,545,o),
(182,515,cs),
(187,496,o),
(188,475,o),
(185,456,c),
(216,519,o),
(268,560,o),
(341,560,cs),
(447,560,o),
(510,484,o),
(490,370,cs),
(431,35,ls),
(426,5,o),
(408,-10,o),
(378,-10,cs),
(348,-10,o),
(336,5,o),
(341,35,cs),
(396,344,ls),
(408,413,o),
(382,475,o),
(311,475,cs),
(239,475,o),
(172,380,o),
(161,316,cs),
(111,35,ls),
(106,5,o),
(88,-10,o),
(58,-10,cs),
(28,-10,o),
(16,5,o),
(21,35,cs),
(95,455,ls),
(99,475,o),
(97,495,o),
(92,515,cs),
(85,545,o),
(99,560,o),
(129,560,cs)
);
}
);
width = 600;
},
{
layerId = "888E2163-DF89-49B9-A98A-97103207B079";
shapes = (
{
closed = 1;
nodes = (
(147,560,o),
(156,551,o),
(160,535,cs),
(167,507,o),
(166,480,o),
(164,447,c),
(203,520,o),
(261,560,o),
(334,560,cs),
(442,560,o),
(489,476,o),
(470,367,cs),
(408,15,ls),
(405,-2,o),
(395,-10,o),
(378,-10,cs),
(361,-10,o),
(355,-2,o),
(358,15,cs),
(418,355,ls),
(432,438,o),
(401,512,o),
(318,512,cs),
(244,512,o),
(160,425,o),
(148,355,cs),
(88,15,ls),
(85,-2,o),
(75,-10,o),
(58,-10,cs),
(41,-10,o),
(35,-2,o),
(38,15,cs),
(114,450,ls),
(119,478,o),
(117,508,o),
(110,535,cs),
(106,551,o),
(113,560,o),
(130,560,cs)
);
}
);
width = 600;
}
);
unicode = 110;
},
{
color = (153, 254, 255, 255);
glyphname = o;
layers = (
{
layerId = "7B80DEB9-A0FA-491E-8DCF-B8BAEA8A01AC";
shapes = (
{
closed = 1;
nodes = (
(53,-10,o),
(-3,123,o),
(23,275,cs),
(50,427,o),
(154,560,o),
(319,560,cs),
(484,560,o),
(541,429,o),
(513,275,cs),
(487,123,o),
(383,-10,o),
(218,-10,cs)
);
},
{
closed = 1;
nodes = (
(305,115,o),
(349,190,o),
(363,275,cs),
(379,362,o),
(362,435,o),
(297,435,cs),
(232,435,o),
(188,360,o),
(173,275,cs),
(159,190,o),
(175,115,o),
(240,115,cs)
);
}
);
width = 600;
},
{
layerId = "DDB6E94A-FF9F-44FE-9E50-A37C641AA6D0";
shapes = (
{
closed = 1;
nodes = (
(64,-10,o),
(14,110,o),
(44,276,cs),
(73,440,o),
(163,560,o),
(319,560,cs),
(476,560,o),
(523,440,o),
(494,276,cs),
(464,110,o),
(373,-10,o),
(218,-10,cs)
);
},
{
closed = 1;
nodes = (
(328,80,o),
(383,160,o),
(404,276,cs),
(424,390,o),
(398,470,o),
(303,470,cs),
(208,470,o),
(154,390,o),
(133,275,cs),
(113,160,o),
(140,80,o),
(234,80,cs)
);
}
);
width = 600;
},
{
layerId = "888E2163-DF89-49B9-A98A-97103207B079";
shapes = (
{
closed = 1;
nodes = (
(84,-10,o),
(28,100,o),
(58,275,cs),
(89,450,o),
(185,560,o),
(321,560,cs),
(457,560,o),
(509,450,o),
(479,278,cs),
(448,100,o),
(351,-10,o),
(218,-10,cs)
);
},
{
closed = 1;
nodes = (
(328,40,o),
(403,130,o),
(429,278,cs),
(454,420,o),
(416,510,o),
(312,510,cs),
(209,510,o),
(134,420,o),
(108,275,cs),
(83,130,o),
(125,40,o),
(227,40,cs)
);
}
);
width = 600;
}
);
unicode = 111;
},
{
color = (153, 254, 255, 255);
glyphname = oe;
layers = (
{
layerId = "7B80DEB9-A0FA-491E-8DCF-B8BAEA8A01AC";
shapes = (
{
closed = 1;
nodes = (
(547,350,ls),
(535,283,o),
(496,250,o),
(429,250,cs),
(321,250,l),
(302,140,l),
(297,115,o),
(317,87,o),
(339,87,qs),
(361,87,o),
(376,101,qs),
(377,102,o),
(378,103,qs),
(403,130,o),
(418,140,o),
(433,140,cs),
(489,140,o),
(509,108,o),
(480,65,cs),
(468,47,o),
(451,32,qs),
(403,-10,o),
(338,-10,qs),
(300,-10,o),
(254,14,o),
(236,49,o),
(231,65,q),
(222,49,o),
(188,14,o),
(135,-10,o),
(98,-10,qs),
(33,-10,o),
(-25,73,o),
(-20,140,qs),
(-15,229,o),
(2,321,o),
(27,410,cs),
(47,478,o),
(134,560,o),
(199,560,qs),
(236,560,o),
(281,536,o),
(301,501,o),
(306,485,q),
(315,501,o),
(347,536,o),
(401,560,o),
(439,560,qs),
(504,560,o),
(569,478,o),
(557,410,qs)
);
},
{
closed = 1;
nodes = (
(154,87,o),
(180,115,o),
(188,140,qs),
(213,229,o),
(230,321,o),
(235,410,cs),
(237,436,o),
(221,463,o),
(199,463,qs),
(177,463,o),
(150,435,o),
(142,410,qs),
(117,321,o),
(100,229,o),
(95,140,cs),
(93,115,o),
(110,87,o),
(132,87,qs)
);
},
{
closed = 1;
nodes = (
(335,330,l),
(378,330,ls),
(412,330,o),
(431,346,o),
(437,380,cs),
(442,410,ls),
(447,436,o),
(428,463,o),
(406,463,qs),
(384,463,o),
(354,435,o),
(349,410,q)
);
}
);
width = 600;
},
{
layerId = "DDB6E94A-FF9F-44FE-9E50-A37C641AA6D0";
shapes = (
{
closed = 1;
nodes = (
(543,330,ls),
(534,276,o),
(503,250,o),
(449,250,cs),
(307,250,l),
(289,150,l),
(283,112,o),
(311,67,o),
(342,67,qs),
(369,67,o),
(390,83,qs),
(399,89,o),
(405,98,qs),
(421,118,o),
(431,125,o),
(447,125,cs),
(487,125,o),
(500,104,o),
(479,71,cs),
(462,46,o),
(439,27,qs),
(394,-10,o),
(338,-10,qs),
(298,-10,o),
(252,16,o),
(233,53,o),
(232,70,q),
(226,53,o),
(194,16,o),
(138,-10,o),
(98,-10,qs),
(31,-10,o),
(-22,78,o),
(-19,150,qs),
(-14,233,o),
(1,318,o),
(26,400,cs),
(47,473,o),
(132,560,o),
(199,560,qs),
(239,560,o),
(285,534,o),
(305,497,o),
(305,480,q),
(312,497,o),
(343,534,o),
(399,560,o),
(439,560,qs),
(506,560,o),
(569,474,o),
(556,400,qs)
);
},
{
closed = 1;
nodes = (
(153,67,o),
(187,112,o),
(198,150,qs),
(223,233,o),
(238,318,o),
(243,400,cs),
(244,438,o),
(226,483,o),
(195,483,qs),
(163,483,o),
(122,438,o),
(111,400,qs),
(86,318,o),
(71,233,o),
(66,150,cs),
(65,112,o),
(90,67,o),
(122,67,qs)
);
},
{
closed = 1;
nodes = (
(320,323,l),
(417,323,ls),
(444,323,o),
(459,336,o),
(464,363,cs),
(471,400,ls),
(477,438,o),
(447,483,o),
(415,483,qs),
(384,483,o),
(340,438,o),
(334,400,q)
);
}
);
width = 600;
},
{
layerId = "888E2163-DF89-49B9-A98A-97103207B079";
shapes = (
{
closed = 1;
nodes = (
(541,320,ls),
(534,280,o),
(511,260,o),
(471,260,cs),
(293,260,l),
(272,140,ls),
(263,93,o),
(306,34,o),
(349,34,qs),
(391,35,o),
(422,60,qs),
(443,78,o),
(454,101,qs),
(463,118,o),
(472,125,o),
(488,125,cs),
(505,125,o),
(510,116,o),
(505,100,cs),
(488,56,o),
(452,27,qs),
(406,-10,o),
(344,-10,qs),
(306,-10,o),
(259,17,o),
(238,57,o),
(236,75,q),
(228,57,o),
(191,17,o),
(133,-10,o),
(92,-10,qs),
(28,-10,o),
(-24,71,o),
(-20,139,qs),
(-15,228,o),
(1,319,o),
(27,408,cs),
(47,477,o),
(133,560,o),
(199,560,qs),
(238,560,o),
(284,532,o),
(306,493,o),
(307,474,q),
(316,493,o),
(352,532,o),
(407,560,o),
(442,560,qs),
(507,560,o),
(569,478,o),
(557,410,qs)
);
},
{
closed = 1;
nodes = (
(152,34,o),
(204,93,o),
(218,140,qs),
(243,229,o),
(260,321,o),
(265,410,cs),
(269,457,o),
(237,516,o),
(194,516,qs),
(151,516,o),
(92,457,o),
(78,408,qs),
(52,319,o),
(36,228,o),
(31,139,cs),
(27,92,o),
(66,34,o),
(109,34,qs)
);
},
{
closed = 1;
nodes = (
(302,310,l),
(460,310,ls),
(480,310,o),
(491,320,o),
(495,340,cs),
(507,410,ls),
(516,457,o),
(474,516,o),
(431,516,qs),
(389,516,o),
(328,457,o),
(319,410,qs)
);
}
);
width = 600;
}
);
unicode = 339;
},
{
color = (153, 254, 255, 255);
glyphname = p;
layers = (
{
layerId = "7B80DEB9-A0FA-491E-8DCF-B8BAEA8A01AC";
shapes = (
{
closed = 1;
nodes = (
(236,505,o),
(287,560,o),
(384,560,cs),
(534,560,o),
(553,442,o),
(524,276,cs),
(500,144,o),
(430,-10,o),
(255,-10,cs),
(191,-10,o),
(155,27,o),
(146,91,c),
(110,-115,ls),
(101,-165,o),
(71,-190,o),
(21,-190,cs),
(-29,-190,o),
(-49,-165,o),
(-40,-115,cs),
(61,449,ls),
(63,462,o),
(62,474,o),
(60,487,cs),
(53,536,o),
(72,560,o),
(121,560,cs),
(170,560,o),
(197,535,o),
(205,487,cs),
(207,475,o),
(206,452,o),
(204,440,c)
);
},
{
closed = 1;
nodes = (
(252,425,o),
(196,375,o),
(182,295,cs),
(175,255,ls),
(163,185,o),
(191,125,o),
(253,125,cs),
(334,125,o),
(362,209,o),
(374,277,cs),
(385,343,o),
(385,425,o),
(312,425,cs)
);
}
);
width = 600;
},
{
layerId = "DDB6E94A-FF9F-44FE-9E50-A37C641AA6D0";
shapes = (
{
closed = 1;
nodes = (
(216,516,o),
(269,560,o),
(346,560,cs),
(509,560,o),
(514,418,o),
(492,294,cs),
(466,150,o),
(404,-10,o),
(235,-10,cs),
(162,-10,o),
(128,35,o),
(117,94,c),
(74,-145,ls),
(69,-175,o),
(51,-190,o),
(21,-190,cs),
(-9,-190,o),
(-21,-175,o),
(-16,-145,cs),
(91,455,ls),
(95,475,o),
(93,495,o),
(88,515,cs),
(81,545,o),
(95,560,o),
(125,560,cs),
(155,560,o),
(170,545,o),
(178,515,cs),
(183,496,o),
(182,469,o),
(179,450,c)
);
},
{
closed = 1;
nodes = (
(248,470,o),
(172,407,o),
(161,344,cs),
(141,234,ls),
(130,170,o),
(164,80,o),
(236,80,cs),
(350,80,o),
(383,186,o),
(401,288,cs),
(419,393,o),
(410,470,o),
(321,470,cs)
);
}
);
width = 600;
},
{
layerId = "888E2163-DF89-49B9-A98A-97103207B079";
shapes = (
{
closed = 1;
nodes = (
(182,501,o),
(234,560,o),
(332,560,cs),
(480,560,o),
(500,425,o),
(477,295,cs),
(451,146,o),
(379,-10,o),
(228,-10,cs),
(155,-10,o),
(112,29,o),
(98,101,c),
(51,-165,ls),
(48,-182,o),
(38,-190,o),
(21,-190,cs),
(4,-190,o),
(-2,-182,o),
(1,-165,cs),
(111,462,ls),
(116,490,o),
(112,508,o),
(105,535,cs),
(101,551,o),
(108,560,o),
(125,560,cs),
(142,560,o),
(151,551,o),
(155,535,cs),
(162,507,o),
(162,495,o),
(160,462,c)
);
},
{
closed = 1;
nodes = (
(234,512,o),
(156,431,o),
(143,356,cs),
(114,195,ls),
(102,125,o),
(156,38,o),
(230,38,cs),
(355,38,o),
(404,167,o),
(427,295,cs),
(446,403,o),
(431,512,o),
(322,512,cs)
);
}
);
width = 600;
}
);
unicode = 112;
},
{
color = (153, 254, 255, 255);
glyphname = thorn;
layers = (
{
anchors = (
{
name = m.uni0308;
position = "{300, 730}";
},
{
name = m.uni0325_2;
position = "{300, 0}";
}
);
layerId = "7B80DEB9-A0FA-491E-8DCF-B8BAEA8A01AC";
shapes = (
{
closed = 1;
nodes = (
(99,665,ls),
(108,715,o),
(134,740,o),
(184,740,cs),
(234,740,o),
(253,715,o),
(244,665,cs),
(204,440,l),
(236,505,o),
(287,560,o),
(384,560,cs),
(534,560,o),
(553,442,o),
(524,276,cs),
(500,144,o),
(430,-10,o),
(255,-10,cs),
(191,-10,o),
(155,27,o),
(146,91,c),
(110,-115,ls),
(101,-165,o),
(71,-190,o),
(21,-190,cs),
(-29,-190,o),
(-49,-165,o),
(-40,-115,cs)
);
},
{
closed = 1;
nodes = (
(252,425,o),
(196,375,o),
(182,295,cs),
(175,255,ls),
(163,185,o),
(191,125,o),
(253,125,cs),
(334,125,o),
(362,209,o),
(374,277,cs),
(385,343,o),
(385,425,o),
(312,425,cs)
);
}
);
width = 600;
},
{
anchors = (
{
name = m.uni0308;
position = "{300, 730}";
},
{
name = m.uni0325_2;
position = "{300, 0}";
}
);
layerId = "DDB6E94A-FF9F-44FE-9E50-A37C641AA6D0";
shapes = (
{
closed = 1;
nodes = (
(133,695,ls),
(138,725,o),
(155,740,o),
(185,740,cs),
(215,740,o),
(228,725,o),
(223,695,cs),
(179,450,l),
(216,516,o),
(269,560,o),
(346,560,cs),
(509,560,o),
(514,418,o),
(492,294,cs),
(466,150,o),
(404,-10,o),
(235,-10,cs),
(162,-10,o),
(128,35,o),
(117,94,c),
(74,-145,ls),
(69,-175,o),
(51,-190,o),
(21,-190,cs),
(-9,-190,o),
(-21,-175,o),
(-16,-145,cs)
);
},
{
closed = 1;
nodes = (
(248,470,o),
(172,407,o),
(161,344,cs),
(141,234,ls),
(130,170,o),
(164,80,o),
(236,80,cs),
(350,80,o),
(383,186,o),
(401,288,cs),
(419,393,o),
(410,470,o),
(321,470,cs)
);
}
);
width = 600;
},
{
anchors = (
{
name = m.uni0308;
position = "{305, 730}";
},
{
name = m.uni0325_2;
position = "{305, 0}";
}
);
layerId = "888E2163-DF89-49B9-A98A-97103207B079";
shapes = (
{
closed = 1;
nodes = (
(156,715,ls),
(159,732,o),
(168,740,o),
(185,740,cs),
(202,740,o),
(209,732,o),
(206,715,cs),
(160,462,l),
(182,501,o),
(234,560,o),
(332,560,cs),
(480,560,o),
(500,425,o),
(477,295,cs),
(451,146,o),
(379,-10,o),
(228,-10,cs),
(155,-10,o),
(112,29,o),
(98,101,c),
(51,-165,ls),
(48,-182,o),
(38,-190,o),
(21,-190,cs),
(4,-190,o),
(-2,-182,o),
(1,-165,cs)
);
},
{
closed = 1;
nodes = (
(234,512,o),
(156,431,o),
(143,356,cs),
(114,195,ls),
(102,125,o),
(156,38,o),
(230,38,cs),
(355,38,o),
(404,167,o),
(427,295,cs),
(446,403,o),
(431,512,o),
(322,512,cs)
);
}
);
width = 600;
}
);
unicode = 254;
},
{
color = (153, 254, 255, 255);
glyphname = q;
layers = (
{
layerId = "7B80DEB9-A0FA-491E-8DCF-B8BAEA8A01AC";
shapes = (
{
closed = 1;
nodes = (
(536,560,o),
(555,536,o),
(546,487,cs),
(440,-115,ls),
(431,-165,o),
(401,-190,o),
(351,-190,cs),
(301,-190,o),
(281,-165,o),
(290,-115,cs),
(326,91,l),
(295,27,o),
(245,-10,o),
(181,-10,cs),
(6,-10,o),
(-10,144,o),
(14,276,cs),
(43,442,o),
(104,560,o),
(254,560,cs),
(351,560,o),
(378,506,o),
(388,441,c),
(396,487,ls),
(405,536,o),
(436,560,o),
(486,560,cs)
);
},
{
closed = 1;
nodes = (
(205,425,o),
(175,343,o),
(164,277,cs),
(152,209,o),
(150,125,o),
(231,125,cs),
(293,125,o),
(343,185,o),
(355,255,cs),
(362,295,ls),
(376,375,o),
(338,425,o),
(278,425,cs)
);
}
);
width = 600;
},
{
layerId = "DDB6E94A-FF9F-44FE-9E50-A37C641AA6D0";
shapes = (
{
closed = 1;
nodes = (
(514,560,o),
(526,545,o),
(521,514,cs),
(404,-145,ls),
(399,-175,o),
(381,-190,o),
(351,-190,cs),
(321,-190,o),
(309,-175,o),
(314,-145,cs),
(357,94,l),
(324,35,o),
(274,-10,o),
(201,-10,cs),
(32,-10,o),
(26,150,o),
(52,294,cs),
(74,418,o),
(129,560,o),
(292,560,cs),
(369,560,o),
(406,516,o),
(419,450,c),
(431,514,ls),
(436,545,o),
(454,560,o),
(484,560,cs)
);
},
{
closed = 1;
nodes = (
(196,470,o),
(159,393,o),
(141,288,cs),
(123,186,o),
(118,80,o),
(232,80,cs),
(304,80,o),
(370,170,o),
(381,234,cs),
(401,344,ls),
(412,407,o),
(358,470,o),
(285,470,cs)
);
}
);
width = 600;
},
{
layerId = "888E2163-DF89-49B9-A98A-97103207B079";
shapes = (
{
closed = 1;
nodes = (
(501,560,o),
(507,552,o),
(504,535,cs),
(381,-165,ls),
(378,-182,o),
(368,-190,o),
(351,-190,cs),
(334,-190,o),
(328,-182,o),
(331,-165,cs),
(378,101,l),
(338,29,o),
(281,-10,o),
(208,-10,cs),
(57,-10,o),
(41,146,o),
(67,295,cs),
(90,425,o),
(158,560,o),
(306,560,cs),
(404,560,o),
(433,501,o),
(441,462,c),
(454,535,ls),
(457,552,o),
(467,560,o),
(484,560,cs)
);
},
{
closed = 1;
nodes = (
(189,512,o),
(136,403,o),
(117,295,cs),
(94,167,o),
(99,38,o),
(224,38,cs),
(298,38,o),
(382,125,o),
(394,195,cs),
(423,356,ls),
(436,431,o),
(386,512,o),
(298,512,cs)
);
}
);
width = 600;
}
);
unicode = 113;
},
{
color = (153, 254, 255, 255);
glyphname = r;
layers = (
{
anchors = (
{
name = bottom;
position = "{65, 0}";
},
{
name = top;
position = "{337, 550}";
}
);
layerId = "7B80DEB9-A0FA-491E-8DCF-B8BAEA8A01AC";
shapes = (
{
closed = 1;
nodes = (
(25,-10,o),
(4,15,o),
(13,65,cs),
(86,449,ls),
(88,462,o),
(87,474,o),
(85,487,cs),
(78,536,o),
(97,560,o),
(146,560,cs),
(195,560,o),
(219,535,o),
(227,487,cs),
(229,475,o),
(230,462,o),
(228,450,c),
(262,520,o),
(332,560,o),
(421,560,cs),
(535,560,o),
(569,481,o),
(545,360,cs),
(543,350,ls),
(533,299,o),
(505,275,o),
(455,275,cs),
(405,275,o),
(385,301,o),
(394,347,cs),
(395,352,ls),
(404,395,o),
(401,430,o),
(353,430,cs),
(299,430,o),
(219,387,o),
(208,328,cs),
(158,65,ls),
(148,15,o),
(125,-10,o),
(75,-10,cs)
);
}
);
width = 600;
},
{
anchors = (
{
name = bottom;
position = "{65, 0}";
},
{
name = top;
position = "{337, 550}";
}
);
layerId = "DDB6E94A-FF9F-44FE-9E50-A37C641AA6D0";
shapes = (
{
closed = 1;
nodes = (
(45,-10,o),
(33,5,o),
(38,35,cs),
(112,455,ls),
(116,475,o),
(114,495,o),
(109,515,cs),
(102,545,o),
(116,560,o),
(146,560,cs),
(176,560,o),
(191,545,o),
(199,515,cs),
(204,496,o),
(205,475,o),
(202,456,c),
(236,519,o),
(305,560,o),
(403,560,cs),
(524,560,o),
(533,468,o),
(514,362,cs),
(512,350,ls),
(506,320,o),
(489,305,o),
(459,305,cs),
(429,305,o),
(416,320,o),
(422,350,cs),
(424,362,ls),
(435,423,o),
(434,482,o),
(358,482,cs),
(289,482,o),
(198,432,o),
(184,350,cs),
(128,35,ls),
(123,5,o),
(105,-10,o),
(75,-10,cs)
);
}
);
width = 600;
},
{
anchors = (
{
name = bottom;
position = "{65, 0}";
},
{
name = top;
position = "{337, 550}";
}
);
layerId = "888E2163-DF89-49B9-A98A-97103207B079";
shapes = (
{
closed = 1;
nodes = (
(58,-10,o),
(52,-2,o),
(55,15,cs),
(130,450,ls),
(135,478,o),
(133,508,o),
(126,535,cs),
(122,551,o),
(129,560,o),
(146,560,cs),
(163,560,o),
(172,551,o),
(176,535,cs),
(183,507,o),
(182,480,o),
(180,447,c),
(219,514,o),
(294,560,o),
(387,560,cs),
(498,560,o),
(511,469,o),
(492,365,cs),
(491,355,ls),
(488,338,o),
(478,330,o),
(461,330,cs),
(444,330,o),
(438,338,o),
(441,355,cs),
(442,365,ls),
(456,443,o),
(456,517,o),
(365,517,cs),
(286,517,o),
(181,450,o),
(165,360,cs),
(105,15,ls),
(102,-2,o),
(92,-10,o),
(75,-10,cs)
);
}
);
width = 600;
}
);
unicode = 114;
},
{
color = (153, 254, 255, 255);
glyphname = s;
layers = (
{
layerId = "7B80DEB9-A0FA-491E-8DCF-B8BAEA8A01AC";
shapes = (
{
closed = 1;
nodes = (
(127,-10,o),
(69,7,o),
(28,61,cs),
(13,80,o),
(6,98,o),
(11,125,cs),
(18,165,o),
(45,191,o),
(79,191,cs),
(91,191,o),
(107,188,o),
(118,177,cs),
(151,143,o),
(193,120,o),
(241,120,cs),
(290,120,o),
(338,124,o),
(343,155,cs),
(346,169,o),
(338,182,o),
(317,190,cs),
(151,252,ls),
(90,275,o),
(56,315,o),
(70,398,cs),
(92,520,o),
(183,560,o),
(319,560,cs),
(400,560,o),
(473,536,o),
(503,493,cs),
(511,482,o),
(518,467,o),
(513,439,cs),
(506,397,o),
(479,374,o),
(444,374,cs),
(426,374,o),
(408,380,o),
(397,393,cs),
(383,410,o),
(349,430,o),
(296,430,cs),
(250,430,o),
(223,415,o),
(219,391,cs),
(216,375,o),
(224,371,o),
(241,364,cs),
(382,307,ls),
(457,277,o),
(504,251,o),
(488,157,cs),
(464,21,o),
(341,-10,o),
(218,-10,cs)
);
}
);
width = 600;
},
{
layerId = "DDB6E94A-FF9F-44FE-9E50-A37C641AA6D0";
shapes = (
{
closed = 1;
nodes = (
(138,-10,o),
(76,10,o),
(34,71,cs),
(23,86,o),
(20,106,o),
(23,124,cs),
(28,153,o),
(49,162,o),
(68,162,cs),
(82,162,o),
(92,157,o),
(104,144,cs),
(143,102,o),
(169,80,o),
(234,80,cs),
(280,80,o),
(366,88,o),
(376,150,cs),
(384,190,o),
(358,209,o),
(321,222,cs),
(181,270,ls),
(129,288,o),
(79,321,o),
(94,406,cs),
(113,517,o),
(217,560,o),
(319,560,cs),
(405,560,o),
(476,530,o),
(501,475,cs),
(507,460,o),
(508,448,o),
(506,439,cs),
(503,418,o),
(485,399,o),
(459,399,cs),
(447,399,o),
(430,403,o),
(419,417,cs),
(392,449,o),
(364,470,o),
(303,470,cs),
(244,470,o),
(192,451,o),
(184,407,cs),
(179,382,o),
(192,363,o),
(215,354,cs),
(355,303,ls),
(425,278,o),
(483,242,o),
(466,149,cs),
(445,31,o),
(335,-10,o),
(219,-10,cs)
);
}
);
width = 600;
},
{
layerId = "888E2163-DF89-49B9-A98A-97103207B079";
shapes = (
{
closed = 1;
nodes = (
(154,-10,o),
(82,0,o),
(50,55,cs),
(40,70,o),
(31,95,o),
(34,112,cs),
(36,125,o),
(46,135,o),
(62,135,cs),
(73,135,o),
(83,131,o),
(88,119,cs),
(110,65,o),
(155,40,o),
(227,40,cs),
(299,40,o),
(390,65,o),
(405,148,cs),
(413,195,o),
(391,230,o),
(348,241,cs),
(197,280,ls),
(136,296,o),
(88,330,o),
(103,413,cs),
(121,518,o),
(218,560,o),
(319,560,cs),
(409,560,o),
(466,528,o),
(491,472,cs),
(496,461,o),
(498,453,o),
(496,445,cs),
(494,431,o),
(483,425,o),
(470,425,cs),
(460,425,o),
(452,428,o),
(448,437,cs),
(420,494,o),
(369,510,o),
(310,510,cs),
(232,510,o),
(166,482,o),
(154,414,cs),
(145,363,o),
(174,337,o),
(220,325,cs),
(372,285,ls),
(431,270,o),
(470,227,o),
(457,152,cs),
(437,39,o),
(323,-10,o),
(218,-10,cs)
);
}
);
width = 600;
}
);
unicode = 115;
},
{
color = (153, 254, 255, 255);
glyphname = germandbls;
layers = (
{
layerId = "7B80DEB9-A0FA-491E-8DCF-B8BAEA8A01AC";
shapes = (
{
closed = 1;
nodes = (
(143,75,ls),
(134,25,o),
(105,0,o),
(55,0,cs),
(5,0,o),
(-16,25,o),
(-7,75,cs),
(71,512,ls),
(95,647,o),
(210,740,o),
(355,740,cs),
(496,740,o),
(581,659,o),
(560,541,cs),
(546,462,o),
(488,398,o),
(418,386,c),
(494,368,o),
(537,295,o),
(521,207,cs),
(499,84,o),
(391,0,o),
(257,0,cs),
(256,0,ls),
(212,0,o),
(194,21,o),
(203,65,cs),
(210,109,o),
(235,130,o),
(279,130,cs),
(282,130,ls),
(313,130,o),
(362,170,o),
(372,228,cs),
(383,286,o),
(355,325,o),
(308,325,cs),
(304,325,ls),
(267,325,o),
(252,343,o),
(259,380,cs),
(265,417,o),
(286,435,o),
(323,435,cs),
(327,435,ls),
(371,435,o),
(400,472,o),
(410,525,cs),
(419,578,o),
(387,615,o),
(333,615,cs),
(277,615,o),
(232,573,o),
(221,512,cs)
);
}
);
width = 600;
},
{
layerId = "DDB6E94A-FF9F-44FE-9E50-A37C641AA6D0";
shapes = (
{
closed = 1;
nodes = (
(110,45,ls),
(104,15,o),
(87,0,o),
(57,0,cs),
(27,0,o),
(14,15,o),
(20,45,cs),
(107,534,ls),
(128,656,o),
(229,740,o),
(354,740,cs),
(479,740,o),
(551,665,o),
(532,556,cs),
(517,477,o),
(458,408,o),
(385,391,c),
(466,376,o),
(510,300,o),
(492,204,cs),
(471,83,o),
(366,0,o),
(235,0,cs),
(218,0,ls),
(191,0,o),
(180,14,o),
(185,41,cs),
(189,68,o),
(205,82,o),
(232,82,cs),
(239,82,ls),
(321,82,o),
(388,135,o),
(402,212,cs),
(415,289,o),
(372,342,o),
(295,342,cs),
(278,342,ls),
(251,342,o),
(240,355,o),
(245,382,cs),
(250,409,o),
(265,422,o),
(292,422,cs),
(298,422,ls),
(369,422,o),
(427,470,o),
(439,541,cs),
(452,612,o),
(411,660,o),
(340,660,cs),
(268,660,o),
(210,609,o),
(197,534,cs)
);
}
);
width = 600;
},
{
layerId = "888E2163-DF89-49B9-A98A-97103207B079";
shapes = (
{
closed = 1;
nodes = (
(84,25,ls),
(82,8,o),
(72,0,o),
(55,0,cs),
(38,0,o),
(32,8,o),
(34,25,cs),
(126,543,ls),
(147,660,o),
(241,740,o),
(358,740,cs),
(474,740,o),
(540,663,o),
(520,550,cs),
(505,468,o),
(444,398,o),
(370,383,c),
(450,367,o),
(494,292,o),
(477,198,cs),
(456,81,o),
(354,0,o),
(227,0,cs),
(208,0,ls),
(193,0,o),
(187,8,o),
(189,23,cs),
(192,38,o),
(201,45,o),
(216,45,cs),
(235,45,ls),
(332,45,o),
(409,109,o),
(426,202,cs),
(443,295,o),
(387,359,o),
(290,359,cs),
(271,359,ls),
(256,359,o),
(250,367,o),
(253,382,cs),
(255,397,o),
(265,404,o),
(280,404,cs),
(299,404,ls),
(385,404,o),
(454,463,o),
(470,550,cs),
(485,636,o),
(437,695,o),
(351,695,cs),
(264,695,o),
(193,633,o),
(176,543,cs)
);
}
);
width = 600;
}
);
unicode = 223;
},
{
color = (153, 254, 255, 255);
glyphname = longs;
layers = (
{
layerId = "7B80DEB9-A0FA-491E-8DCF-B8BAEA8A01AC";
shapes = (
{
closed = 1;
nodes = (
(217,65,ls),
(207,15,o),
(178,-10,o),
(128,-10,cs),
(78,-10,o),
(57,15,o),
(67,65,cs),
(149,525,ls),
(170,650,o),
(269,730,o),
(400,730,cs),
(520,730,ls),
(564,730,o),
(581,709,o),
(573,665,cs),
(565,621,o),
(541,600,o),
(497,600,cs),
(387,600,ls),
(342,600,o),
(306,570,o),
(299,525,cs)
);
}
);
width = 600;
},
{
layerId = "DDB6E94A-FF9F-44FE-9E50-A37C641AA6D0";
shapes = (
{
closed = 1;
nodes = (
(181,35,ls),
(176,5,o),
(158,-10,o),
(128,-10,cs),
(98,-10,o),
(86,5,o),
(91,35,cs),
(186,571,ls),
(204,666,o),
(283,730,o),
(384,730,cs),
(520,730,ls),
(547,730,o),
(557,717,o),
(553,690,cs),
(548,663,o),
(532,650,o),
(505,650,cs),
(369,650,ls),
(322,650,o),
(284,618,o),
(276,570,cs)
);
}
);
width = 600;
},
{
layerId = "888E2163-DF89-49B9-A98A-97103207B079";
shapes = (
{
closed = 1;
nodes = (
(152,15,ls),
(150,-2,o),
(140,-10,o),
(123,-10,cs),
(106,-10,o),
(100,-2,o),
(102,15,cs),
(205,595,ls),
(220,678,o),
(283,730,o),
(366,730,cs),
(522,730,ls),
(537,730,o),
(544,723,o),
(540,708,cs),
(538,693,o),
(530,685,o),
(515,685,cs),
(357,685,ls),
(307,685,o),
(265,648,o),
(255,595,cs)
);
}
);
width = 600;
}
);
unicode = 383;
},
{
color = (153, 254, 255, 255);
glyphname = t;
layers = (
{
layerId = "7B80DEB9-A0FA-491E-8DCF-B8BAEA8A01AC";
shapes = (
{
closed = 1;
nodes = (
(486,530,ls),
(531,530,o),
(550,508,o),
(542,463,cs),
(534,418,o),
(507,395,o),
(462,395,cs),
(93,395,ls),
(49,395,o),
(31,417,o),
(39,461,cs),
(47,507,o),
(74,530,o),
(120,530,cs)
);
},
{
closed = 1;
nodes = (
(217,630,ls),
(227,680,o),
(255,705,o),
(305,705,cs),
(355,705,o),
(377,680,o),
(367,630,cs),
(279,194,ls),
(272,157,o),
(282,134,o),
(308,134,cs),
(332,134,o),
(353,138,o),
(381,172,cs),
(404,200,o),
(438,199,o),
(463,178,cs),
(492,153,o),
(489,124,o),
(471,97,cs),
(408,0,o),
(342,-9,o),
(257,-9,cs),
(147,-9,o),
(104,63,o),
(125,170,cs)
);
}
);
width = 600;
},
{
layerId = "DDB6E94A-FF9F-44FE-9E50-A37C641AA6D0";
shapes = (
{
closed = 1;
nodes = (
(493,530,ls),
(520,530,o),
(531,512,o),
(526,485,cs),
(521,458,o),
(505,440,o),
(478,440,cs),
(97,440,ls),
(70,440,o),
(58,458,o),
(63,485,cs),
(68,512,o),
(85,530,o),
(112,530,cs)
);
},
{
closed = 1;
nodes = (
(252,660,ls),
(258,690,o),
(275,705,o),
(305,705,cs),
(335,705,o),
(348,690,o),
(342,660,cs),
(255,224,ls),
(235,123,o),
(237,80,o),
(281,80,cs),
(318,80,o),
(355,103,o),
(383,134,cs),
(406,158,o),
(428,155,o),
(444,141,cs),
(461,127,o),
(463,101,o),
(443,79,cs),
(390,24,o),
(339,-10,o),
(266,-10,cs),
(166,-10,o),
(133,57,o),
(153,161,cs)
);
}
);
width = 600;
},
{
layerId = "888E2163-DF89-49B9-A98A-97103207B079";
shapes = (
{
closed = 1;
nodes = (
(496,530,ls),
(511,530,o),
(518,520,o),
(514,505,cs),
(512,490,o),
(502,480,o),
(487,480,cs),
(100,480,ls),
(85,480,o),
(79,490,o),
(81,505,cs),
(85,520,o),
(94,530,o),
(109,530,cs)
);
},
{
closed = 1;
nodes = (
(276,680,l),
(279,697,o),
(288,705,o),
(305,705,cs),
(322,705,o),
(330,697,o),
(326,680,cs),
(231,196,ls),
(207,71,o),
(228,40,o),
(277,40,cs),
(312,40,o),
(353,71,o),
(389,112,cs),
(400,124,o),
(415,124,o),
(424,118,cs),
(434,111,o),
(438,92,o),
(427,81,cs),
(373,23,o),
(333,-10,o),
(260,-10,cs),
(178,-10,o),
(156,60,o),
(174,155,cs)
);
}
);
width = 600;
}
);
unicode = 116;
},
{
color = (153, 254, 255, 255);
glyphname = u;
layers = (
{
layerId = "7B80DEB9-A0FA-491E-8DCF-B8BAEA8A01AC";
shapes = (
{
closed = 1;
nodes = (
(366,-10,o),
(339,15,o),
(331,63,cs),
(329,75,o),
(328,88,o),
(330,100,c),
(296,30,o),
(242,-10,o),
(178,-10,cs),
(50,-10,o),
(-5,81,o),
(15,195,cs),
(67,485,ls),
(75,535,o),
(105,560,o),
(155,560,cs),
(205,560,o),
(225,535,o),
(217,485,cs),
(171,225,ls),
(163,179,o),
(174,130,o),
(229,130,cs),
(291,130,o),
(338,177,o),
(348,235,cs),
(393,485,ls),
(401,535,o),
(431,560,o),
(481,560,cs),
(531,560,o),
(552,535,o),
(543,485,cs),
(475,101,ls),
(473,88,o),
(474,76,o),
(476,63,cs),
(483,14,o),
(464,-10,o),
(415,-10,cs)
);
}
);
width = 600;
},
{
layerId = "DDB6E94A-FF9F-44FE-9E50-A37C641AA6D0";
shapes = (
{
closed = 1;
nodes = (
(378,-10,o),
(363,5,o),
(355,35,cs),
(350,54,o),
(349,75,o),
(352,94,c),
(321,31,o),
(269,-10,o),
(196,-10,cs),
(90,-10,o),
(27,66,o),
(47,180,cs),
(106,515,ls),
(111,545,o),
(129,560,o),
(159,560,cs),
(189,560,o),
(201,545,o),
(196,515,cs),
(141,206,ls),
(129,137,o),
(155,75,o),
(226,75,cs),
(298,75,o),
(365,170,o),
(376,234,cs),
(426,515,ls),
(431,545,o),
(449,560,o),
(479,560,cs),
(509,560,o),
(521,545,o),
(516,515,cs),
(442,95,ls),
(438,75,o),
(440,55,o),
(445,35,cs),
(452,5,o),
(438,-10,o),
(408,-10,cs)
);
}
);
width = 600;
},
{
layerId = "888E2163-DF89-49B9-A98A-97103207B079";
shapes = (
{
closed = 1;
nodes = (
(390,-10,o),
(381,-1,o),
(377,15,cs),
(370,43,o),
(371,70,o),
(373,103,c),
(334,30,o),
(276,-10,o),
(203,-10,cs),
(95,-10,o),
(48,74,o),
(67,183,cs),
(129,535,ls),
(132,552,o),
(142,560,o),
(159,560,cs),
(176,560,o),
(182,552,o),
(179,535,cs),
(119,195,ls),
(105,112,o),
(136,38,o),
(219,38,cs),
(293,38,o),
(377,125,o),
(389,195,cs),
(449,535,ls),
(452,552,o),
(462,560,o),
(479,560,cs),
(496,560,o),
(502,552,o),
(499,535,cs),
(423,100,ls),
(418,72,o),
(420,42,o),
(427,15,cs),
(431,-1,o),
(424,-10,o),
(407,-10,cs)
);
}
);
width = 600;
}
);
unicode = 117;
},
{
color = (153, 254, 255, 255);
glyphname = v;
layers = (
{
layerId = "7B80DEB9-A0FA-491E-8DCF-B8BAEA8A01AC";
shapes = (
{
closed = 1;
nodes = (
(61,482,ls),
(52,532,o),
(101,560,o),
(135,560,cs),
(171,560,o),
(192,540,o),
(198,508,cs),
(244,243,ls),
(248,220,o),
(267,222,o),
(282,243,cs),
(338,320,o),
(386,411,o),
(422,508,cs),
(434,542,o),
(467,560,o),
(503,560,cs),
(537,560,o),
(572,535,o),
(549,482,cs),
(485,333,o),
(409,191,o),
(325,62,cs),
(296,17,o),
(268,-10,o),
(218,-10,cs),
(168,-10,o),
(146,15,o),
(137,62,cs)
);
}
);
width = 600;
},
{
layerId = "DDB6E94A-FF9F-44FE-9E50-A37C641AA6D0";
shapes = (
{
closed = 1;
nodes = (
(84,508,ls),
(79,534,o),
(102,560,o),
(133,560,cs),
(157,560,o),
(173,548,o),
(177,525,cs),
(240,171,ls),
(243,157,o),
(254,159,o),
(262,171,cs),
(332,273,o),
(399,403,o),
(449,525,cs),
(459,549,o),
(481,560,o),
(505,560,cs),
(536,560,o),
(547,534,o),
(536,508,cs),
(467,343,o),
(381,183,o),
(290,38,cs),
(271,8,o),
(252,-10,o),
(218,-10,cs),
(185,-10,o),
(169,6,o),
(164,38,cs)
);
}
);
width = 600;
},
{
layerId = "888E2163-DF89-49B9-A98A-97103207B079";
shapes = (
{
closed = 1;
nodes = (
(102,531,ls),
(99,547,o),
(119,560,o),
(129,560,cs),
(142,560,o),
(154,554,o),
(155,541,cs),
(228,100,ls),
(231,83,o),
(238,83,o),
(248,100,cs),
(333,236,o),
(410,385,o),
(475,541,cs),
(481,554,o),
(496,560,o),
(509,560,cs),
(519,560,o),
(533,547,o),
(526,531,cs),
(449,352,o),
(358,178,o),
(261,19,cs),
(250,0,o),
(238,-10,o),
(218,-10,cs),
(198,-10,o),
(189,0,o),
(185,19,cs)
);
}
);
width = 600;
}
);
unicode = 118;
},
{
color = (153, 254, 255, 255);
glyphname = w;
layers = (
{
anchors = (
{
name = bottom;
position = "{220, 0}";
},
{
name = top;
position = "{317, 550}";
}
);
layerId = "7B80DEB9-A0FA-491E-8DCF-B8BAEA8A01AC";
shapes = (
{
closed = 1;
nodes = (
(33,-10,o),
(7,17,o),
(8,70,cs),
(22,491,ls),
(23,537,o),
(46,560,o),
(91,560,cs),
(130,560,o),
(149,542,o),
(147,505,cs),
(131,185,ls),
(130,168,o),
(134,169,o),
(140,185,cs),
(209,385,ls),
(223,428,o),
(255,450,o),
(299,450,cs),
(343,450,o),
(367,428,o),
(367,385,cs),
(366,185,ls),
(366,169,o),
(367,169,o),
(375,185,cs),
(427,291,o),
(459,399,o),
(471,505,cs),
(475,544,o),
(508,560,o),
(547,560,cs),
(592,560,o),
(601,539,o),
(592,491,cs),
(567,352,o),
(520,208,o),
(455,69,cs),
(431,19,o),
(403,-10,o),
(349,-10,cs),
(295,-10,o),
(267,16,o),
(267,68,cs),
(269,251,ls),
(269,267,o),
(265,267,o),
(259,251,cs),
(197,69,ls),
(179,16,o),
(141,-10,o),
(87,-10,cs)
);
}
);
width = 600;
},
{
anchors = (
{
name = bottom;
position = "{220, 0}";
},
{
name = top;
position = "{317, 550}";
}
);
layerId = "DDB6E94A-FF9F-44FE-9E50-A37C641AA6D0";
shapes = (
{
closed = 1;
nodes = (
(57,-10,o),
(39,9,o),
(39,47,cs),
(48,511,ls),
(49,544,o),
(65,560,o),
(97,560,cs),
(126,560,o),
(138,547,o),
(138,520,cs),
(120,130,ls),
(120,117,o),
(122,117,o),
(127,130,cs),
(228,391,ls),
(241,424,o),
(264,440,o),
(298,440,cs),
(332,440,o),
(349,424,o),
(350,391,cs),
(359,130,ls),
(360,117,o),
(360,117,o),
(366,130,cs),
(426,259,o),
(466,391,o),
(486,520,cs),
(490,547,o),
(512,560,o),
(541,560,cs),
(573,560,o),
(579,545,o),
(572,511,cs),
(541,358,o),
(488,200,o),
(417,47,cs),
(400,11,o),
(380,-10,o),
(341,-10,cs),
(302,-10,o),
(282,8,o),
(281,46,cs),
(275,290,ls),
(274,303,o),
(272,303,o),
(267,290,cs),
(175,46,ls),
(160,8,o),
(135,-10,o),
(96,-10,cs)
);
}
);
width = 600;
},
{
anchors = (
{
name = bottom;
position = "{220, 0}";
},
{
name = top;
position = "{317, 550}";
}
);
layerId = "888E2163-DF89-49B9-A98A-97103207B079";
shapes = (
{
closed = 1;
nodes = (
(73,-10,o),
(61,1,o),
(61,25,cs),
(68,530,ls),
(69,550,o),
(80,560,o),
(100,560,cs),
(116,560,o),
(124,552,o),
(124,536,cs),
(111,75,ls),
(111,65,o),
(113,65,o),
(117,75,cs),
(254,401,ls),
(262,420,o),
(276,430,o),
(296,430,cs),
(316,430,o),
(326,420,o),
(328,401,cs),
(349,75,ls),
(349,65,o),
(350,65,o),
(355,75,cs),
(425,227,o),
(476,384,o),
(506,536,cs),
(509,552,o),
(522,560,o),
(538,560,cs),
(558,560,o),
(563,550,o),
(558,530,cs),
(521,363,o),
(463,192,o),
(386,25,cs),
(376,3,o),
(363,-10,o),
(339,-10,cs),
(315,-10,o),
(302,1,o),
(300,24,cs),
(281,325,ls),
(281,335,o),
(277,335,o),
(273,325,cs),
(148,25,ls),
(138,2,o),
(121,-10,o),
(97,-10,cs)
);
}
);
width = 600;
}
);
unicode = 119;
},
{
color = (153, 254, 255, 255);
glyphname = x;
layers = (
{
layerId = "7B80DEB9-A0FA-491E-8DCF-B8BAEA8A01AC";
shapes = (
{
closed = 1;
nodes = (
(127,36,ls),
(101,6,o),
(71,-10,o),
(35,-10,cs),
(-10,-10,o),
(-52,22,o),
(1,84,cs),
(367,512,ls),
(393,543,o),
(422,560,o),
(459,560,cs),
(504,560,o),
(547,528,o),
(494,466,cs)
);
},
{
closed = 1;
nodes = (
(350,197,ls),
(362,144,o),
(370,120,o),
(400,120,cs),
(420,120,o),
(432,125,o),
(448,140,cs),
(466,156,o),
(501,150,o),
(518,125,cs),
(536,98,o),
(532,55,o),
(507,29,cs),
(485,7,o),
(462,-10,o),
(405,-10,cs),
(317,-10,o),
(264,20,o),
(227,187,cs),
(190,353,ls),
(178,406,o),
(170,430,o),
(140,430,cs),
(120,430,o),
(108,425,o),
(92,410,cs),
(74,394,o),
(39,400,o),
(22,425,cs),
(4,452,o),
(8,495,o),
(33,521,cs),
(55,543,o),
(78,560,o),
(135,560,cs),
(223,560,o),
(276,530,o),
(313,363,cs)
);
}
);
width = 600;
},
{
layerId = "DDB6E94A-FF9F-44FE-9E50-A37C641AA6D0";
shapes = (
{
closed = 1;
nodes = (
(83,20,ls),
(67,1,o),
(48,-10,o),
(24,-10,cs),
(-3,-10,o),
(-30,11,o),
(2,49,cs),
(412,530,ls),
(429,550,o),
(448,560,o),
(472,560,cs),
(500,560,o),
(528,540,o),
(494,500,cs)
);
},
{
closed = 1;
nodes = (
(336,173,ls),
(352,103,o),
(360,80,o),
(400,80,cs),
(419,80,o),
(435,85,o),
(450,97,cs),
(462,107,o),
(483,105,o),
(498,88,cs),
(512,73,o),
(514,41,o),
(490,19,cs),
(469,-1,o),
(448,-10,o),
(405,-10,cs),
(323,-10,o),
(288,14,o),
(253,163,cs),
(203,377,ls),
(184,457,o),
(170,470,o),
(140,470,cs),
(121,470,o),
(105,465,o),
(90,453,cs),
(78,443,o),
(57,445,o),
(42,462,cs),
(28,477,o),
(26,509,o),
(50,531,cs),
(71,551,o),
(92,560,o),
(135,560,cs),
(217,560,o),
(251,536,o),
(286,387,cs)
);
}
);
width = 600;
},
{
layerId = "888E2163-DF89-49B9-A98A-97103207B079";
shapes = (
{
closed = 1;
nodes = (
(55,5,ls),
(46,-5,o),
(30,-10,o),
(17,-10,cs),
(1,-10,o),
(-19,0,o),
(0,22,cs),
(439,543,ls),
(449,554,o),
(465,560,o),
(478,560,cs),
(495,560,o),
(515,550,o),
(496,528,cs)
);
},
{
closed = 1;
nodes = (
(329,151,ls),
(353,59,o),
(370,40,o),
(400,40,cs),
(424,40,o),
(435,47,o),
(448,60,cs),
(457,69,o),
(472,65,o),
(480,53,cs),
(488,41,o),
(483,24,o),
(470,11,cs),
(455,-3,o),
(440,-10,o),
(405,-10,cs),
(340,-10,o),
(311,11,o),
(279,135,cs),
(211,399,ls),
(187,491,o),
(170,510,o),
(140,510,cs),
(116,510,o),
(105,503,o),
(92,490,cs),
(83,481,o),
(68,485,o),
(60,497,cs),
(52,509,o),
(57,526,o),
(70,539,cs),
(85,553,o),
(100,560,o),
(135,560,cs),
(200,560,o),
(229,540,o),
(261,415,cs)
);
}
);
width = 600;
}
);
unicode = 120;
},
{
color = (153, 254, 255, 255);
glyphname = y;
layers = (
{
layerId = "7B80DEB9-A0FA-491E-8DCF-B8BAEA8A01AC";
shapes = (
{
closed = 1;
nodes = (
(340,101,l),
(306,31,o),
(251,-10,o),
(187,-10,cs),
(59,-10,o),
(2,81,o),
(24,195,cs),
(81,485,ls),
(91,535,o),
(119,560,o),
(169,560,cs),
(219,560,o),
(241,535,o),
(231,485,cs),
(180,225,ls),
(171,179,o),
(183,130,o),
(238,130,cs),
(300,130,o),
(347,177,o),
(357,235,cs),
(402,485,ls),
(411,535,o),
(440,560,o),
(490,560,cs),
(540,560,o),
(561,535,o),
(552,485,cs),
(465,0,ls),
(434,-172,o),
(356,-270,o),
(153,-270,cs),
(74,-270,o),
(7,-241,o),
(-35,-181,cs),
(-45,-167,o),
(-49,-148,o),
(-46,-130,cs),
(-40,-93,o),
(1,-53,o),
(43,-53,cs),
(56,-53,o),
(70,-57,o),
(79,-67,cs),
(106,-98,o),
(143,-135,o),
(197,-135,cs),
(258,-135,o),
(303,-88,o),
(320,0,cs)
);
}
);
width = 600;
},
{
layerId = "DDB6E94A-FF9F-44FE-9E50-A37C641AA6D0";
shapes = (
{
closed = 1;
nodes = (
(365,134,l),
(334,71,o),
(282,30,o),
(209,30,cs),
(103,30,o),
(38,106,o),
(60,220,cs),
(116,515,ls),
(122,545,o),
(139,560,o),
(169,560,cs),
(199,560,o),
(212,545,o),
(206,515,cs),
(154,246,ls),
(141,177,o),
(168,115,o),
(239,115,cs),
(311,115,o),
(378,210,o),
(389,274,cs),
(431,515,ls),
(436,545,o),
(454,560,o),
(484,560,cs),
(514,560,o),
(526,545,o),
(521,515,cs),
(430,0,ls),
(400,-170,o),
(332,-240,o),
(170,-240,cs),
(80,-240,o),
(22,-196,o),
(-2,-154,cs),
(-9,-142,o),
(-11,-127,o),
(-9,-115,cs),
(-5,-88,o),
(16,-64,o),
(48,-64,cs),
(63,-64,o),
(72,-70,o),
(79,-82,cs),
(101,-117,o),
(123,-150,o),
(198,-150,cs),
(267,-150,o),
(320,-114,o),
(340,0,cs)
);
}
);
width = 600;
},
{
layerId = "888E2163-DF89-49B9-A98A-97103207B079";
shapes = (
{
closed = 1;
nodes = (
(392,163,l),
(353,90,o),
(295,50,o),
(222,50,cs),
(114,50,o),
(65,134,o),
(86,243,cs),
(141,535,ls),
(144,552,o),
(154,560,o),
(171,560,cs),
(188,560,o),
(194,552,o),
(191,535,cs),
(138,255,ls),
(122,172,o),
(155,98,o),
(238,98,cs),
(312,98,o),
(396,185,o),
(408,255,cs),
(456,535,ls),
(459,552,o),
(469,560,o),
(486,560,cs),
(503,560,o),
(509,552,o),
(506,535,cs),
(412,0,ls),
(382,-173,o),
(292,-210,o),
(181,-210,cs),
(95,-210,o),
(46,-176,o),
(24,-147,cs),
(15,-135,o),
(12,-126,o),
(14,-114,cs),
(17,-97,o),
(28,-85,o),
(44,-85,cs),
(50,-85,o),
(57,-87,o),
(65,-97,cs),
(88,-127,o),
(130,-160,o),
(192,-160,cs),
(270,-160,o),
(339,-128,o),
(362,0,cs)
);
}
);
width = 600;
}
);
unicode = 121;
},
{
color = (153, 254, 255, 255);
glyphname = z;
layers = (
{
layerId = "7B80DEB9-A0FA-491E-8DCF-B8BAEA8A01AC";
shapes = (
{
closed = 1;
nodes = (
(77,0,ls),
(19,0,o),
(-5,29,o),
(5,84,cs),
(10,116,o),
(25,141,o),
(49,162,cs),
(286,371,ls),
(300,383,o),
(307,392,o),
(308,399,cs),
(310,409,o),
(299,415,o),
(275,415,cs),
(138,415,ls),
(94,415,o),
(77,438,o),
(85,482,cs),
(93,526,o),
(118,550,o),
(162,550,cs),
(449,550,ls),
(507,550,o),
(531,521,o),
(521,466,cs),
(516,434,o),
(501,409,o),
(477,388,cs),
(240,179,ls),
(226,167,o),
(219,158,o),
(218,151,cs),
(216,141,o),
(227,135,o),
(251,135,cs),
(409,135,ls),
(453,135,o),
(470,112,o),
(462,68,cs),
(454,24,o),
(429,0,o),
(385,0,cs)
);
}
);
width = 600;
},
{
layerId = "DDB6E94A-FF9F-44FE-9E50-A37C641AA6D0";
shapes = (
{
closed = 1;
nodes = (
(70,0,ls),
(30,0,o),
(14,20,o),
(20,59,cs),
(24,80,o),
(33,97,o),
(49,113,cs),
(369,429,ls),
(377,437,o),
(381,443,o),
(382,448,cs),
(383,456,o),
(376,460,o),
(359,460,cs),
(143,460,ls),
(116,460,o),
(102,478,o),
(107,505,cs),
(112,532,o),
(132,550,o),
(159,550,cs),
(456,550,ls),
(496,550,o),
(512,530,o),
(506,491,cs),
(502,470,o),
(493,452,o),
(477,437,cs),
(152,121,ls),
(144,113,o),
(140,106,o),
(139,101,cs),
(138,94,o),
(145,90,o),
(161,90,cs),
(402,90,ls),
(429,90,o),
(443,72,o),
(438,45,cs),
(433,18,o),
(413,0,o),
(386,0,cs)
);
}
);
width = 600;
},
{
layerId = "888E2163-DF89-49B9-A98A-97103207B079";
shapes = (
{
closed = 1;
nodes = (
(54,0,ls),
(33,0,o),
(25,10,o),
(28,31,cs),
(30,41,o),
(35,51,o),
(42,59,cs),
(414,475,ls),
(419,480,o),
(422,485,o),
(422,489,cs),
(423,496,o),
(417,500,o),
(405,500,cs),
(145,500,ls),
(130,500,o),
(122,510,o),
(125,525,cs),
(127,540,o),
(138,550,o),
(153,550,cs),
(470,550,ls),
(491,550,o),
(499,540,o),
(496,519,cs),
(494,509,o),
(489,499,o),
(481,490,cs),
(109,74,ls),
(104,68,o),
(101,64,o),
(101,60,cs),
(99,53,o),
(106,50,o),
(118,50,cs),
(401,50,ls),
(416,50,o),
(424,40,o),
(421,25,cs),
(419,10,o),
(407,0,o),
(392,0,cs)
);
}
);
width = 600;
}
);
unicode = 122;
},
{
color = (153, 254, 255, 255);
glyphname = ordfeminine;
layers = (
{
layerId = "7B80DEB9-A0FA-491E-8DCF-B8BAEA8A01AC";
shapes = (
{
closed = 1;
nodes = (
(361,473,o),
(310,452,o),
(275,452,cs),
(184,452,o),
(186,526,o),
(195,576,cs),
(206,639,o),
(258,742,o),
(367,742,cs),
(391,742,o),
(405,740,o),
(418,724,c),
(429,740,o),
(441,742,o),
(454,742,cs),
(478,742,o),
(483,726,o),
(480,713,cs),
(477,695,o),
(472,684,o),
(469,673,cs),
(452,619,o),
(438,552,o),
(450,500,cs),
(451,493,o),
(451,484,o),
(450,476,cs),
(448,462,o),
(432,452,o),
(413,452,cs),
(395,452,o),
(386,458,o),
(383,467,cs),
(380,473,o),
(380,495,o),
(380,509,c)
);
},
{
closed = 1;
nodes = (
(323,527,o),
(339,543,o),
(352,566,cs),
(364,588,o),
(372,613,o),
(374,628,cs),
(378,648,o),
(377,668,o),
(351,668,cs),
(314,668,o),
(286,610,o),
(281,581,cs),
(277,562,o),
(273,527,o),
(299,527,cs)
);
}
);
width = 600;
},
{
layerId = "DDB6E94A-FF9F-44FE-9E50-A37C641AA6D0";
shapes = (
{
closed = 1;
nodes = (
(367,470,o),
(326,446,o),
(276,446,cs),
(197,446,o),
(194,517,o),
(204,570,cs),
(216,637,o),
(278,745,o),
(372,745,cs),
(388,745,o),
(408,739,o),
(421,728,c),
(427,742,o),
(440,745,o),
(454,745,cs),
(474,745,o),
(482,732,o),
(479,715,cs),
(476,696,o),
(472,688,o),
(468,679,cs),
(455,633,o),
(431,535,o),
(446,496,cs),
(449,489,o),
(449,481,o),
(448,473,cs),
(444,453,o),
(427,446,o),
(411,446,cs),
(394,446,o),
(389,452,o),
(386,465,cs),
(383,476,o),
(383,496,o),
(382,504,c)
);
},
{
closed = 1;
nodes = (
(325,510,o),
(358,538,o),
(372,567,cs),
(383,586,o),
(390,607,o),
(393,628,cs),
(399,660,o),
(389,681,o),
(357,681,cs),
(315,681,o),
(276,616,o),
(269,574,cs),
(264,548,o),
(260,510,o),
(295,510,cs)
);
}
);
width = 600;
},
{
layerId = "888E2163-DF89-49B9-A98A-97103207B079";
shapes = (
{
closed = 1;
nodes = (
(364,474,o),
(307,446,o),
(273,446,cs),
(197,446,o),
(201,518,o),
(210,568,cs),
(223,640,o),
(278,746,o),
(373,746,cs),
(389,746,o),
(411,742,o),
(423,728,c),
(427,736,o),
(435,746,o),
(450,746,cs),
(464,746,o),
(470,734,o),
(468,722,cs),
(466,712,o),
(462,702,o),
(459,694,cs),
(441,642,o),
(411,535,o),
(429,487,cs),
(432,480,o),
(434,476,o),
(433,468,cs),
(430,454,o),
(421,446,o),
(407,446,cs),
(395,446,o),
(389,454,o),
(386,462,cs),
(383,472,o),
(380,495,o),
(379,508,c)
);
},
{
closed = 1;
nodes = (
(320,491,o),
(365,540,o),
(381,574,cs),
(388,592,o),
(394,610,o),
(397,629,cs),
(405,669,o),
(400,701,o),
(361,701,cs),
(310,701,o),
(263,619,o),
(255,569,cs),
(249,536,o),
(243,491,o),
(288,491,cs)
);
}
);
width = 600;
}
);
unicode = 170;
},
{
color = (153, 254, 255, 255);
glyphname = ordmasculine;
layers = (
{
layerId = "7B80DEB9-A0FA-491E-8DCF-B8BAEA8A01AC";
shapes = (
{
closed = 1;
nodes = (
(342,490,o),
(360,535,o),
(368,580,cs),
(376,625,o),
(374,670,o),
(339,670,cs),
(305,670,o),
(286,625,o),
(278,580,cs),
(270,535,o),
(272,490,o),
(307,490,cs)
);
},
{
closed = 1;
nodes = (
(200,420,o),
(180,500,o),
(194,580,cs),
(208,659,o),
(257,740,o),
(351,740,cs),
(447,740,o),
(468,660,o),
(454,580,cs),
(440,500,o),
(389,420,o),
(294,420,cs)
);
}
);
width = 600;
},
{
layerId = "DDB6E94A-FF9F-44FE-9E50-A37C641AA6D0";
shapes = (
{
closed = 1;
nodes = (
(354,506,o),
(374,550,o),
(380,590,cs),
(388,630,o),
(385,675,o),
(340,675,cs),
(299,675,o),
(277,630,o),
(269,590,cs),
(263,550,o),
(269,506,o),
(310,506,cs)
);
},
{
closed = 1;
nodes = (
(208,440,o),
(193,520,o),
(205,590,cs),
(218,660,o),
(261,740,o),
(352,740,cs),
(448,740,o),
(458,660,o),
(445,590,cs),
(433,520,o),
(394,440,o),
(299,440,cs)
);
}
);
width = 600;
},
{
layerId = "888E2163-DF89-49B9-A98A-97103207B079";
shapes = (
{
closed = 1;
nodes = (
(359,500,o),
(382,550,o),
(391,600,cs),
(400,652,o),
(394,700,o),
(345,700,cs),
(294,700,o),
(270,650,o),
(261,600,cs),
(253,550,o),
(259,500,o),
(309,500,cs)
);
},
{
closed = 1;
nodes = (
(217,460,o),
(205,536,o),
(217,600,cs),
(229,665,o),
(266,740,o),
(351,740,cs),
(436,740,o),
(449,667,o),
(437,600,cs),
(425,535,o),
(387,460,o),
(302,460,cs)
);
}
);
width = 600;
}
);
unicode = 186;
},
{
color = (153, 254, 255, 255);
glyphname = "Be-cy";
layers = (
{
layerId = "7B80DEB9-A0FA-491E-8DCF-B8BAEA8A01AC";
shapes = (
{
closed = 1;
nodes = (
(86,0,ls),
(19,0,o),
(-8,33,o),
(4,100,cs),
(97,630,ls),
(109,697,o),
(148,730,o),
(215,730,cs),
(509,730,ls),
(554,730,o),
(573,708,o),
(565,663,cs),
(557,618,o),
(530,595,o),
(485,595,cs),
(286,595,ls),
(252,595,o),
(233,578,o),
(227,545,cs),
(211,451,l),
(309,451,ls),
(385,451,o),
(487,396,o),
(532,296,o),
(520,228,qs),
(509,162,o),
(427,59,o),
(305,0,o),
(230,0,qs)
);
},
{
closed = 1;
nodes = (
(163,180,ls),
(157,147,o),
(171,130,o),
(204,130,cs),
(253,130,ls),
(299,130,o),
(362,184,o),
(370,228,qs),
(378,273,o),
(333,326,o),
(287,326,qs),
(188,326,l)
);
}
);
width = 600;
},
{
layerId = "DDB6E94A-FF9F-44FE-9E50-A37C641AA6D0";
shapes = (
{
closed = 1;
nodes = (
(94,0,ls),
(40,0,o),
(19,26,o),
(28,80,cs),
(129,650,ls),
(138,704,o),
(169,730,o),
(223,730,cs),
(508,730,ls),
(535,730,o),
(546,716,o),
(541,689,cs),
(537,662,o),
(520,648,o),
(493,648,cs),
(258,648,ls),
(231,648,o),
(216,635,o),
(211,608,cs),
(180,432,l),
(301,432,ls),
(371,432,o),
(462,378,o),
(500,281,o),
(488,216,qs),
(477,151,o),
(405,54,o),
(295,0,o),
(225,0,qs)
);
},
{
closed = 1;
nodes = (
(126,122,ls),
(121,95,o),
(131,82,o),
(158,82,cs),
(239,82,ls),
(301,82,o),
(384,155,o),
(395,216,qs),
(406,278,o),
(349,350,o),
(287,350,qs),
(166,350,l)
);
}
);
width = 600;
},
{
layerId = "888E2163-DF89-49B9-A98A-97103207B079";
shapes = (
{
closed = 1;
nodes = (
(90,0,ls),
(50,0,o),
(34,20,o),
(41,60,cs),
(148,670,ls),
(155,710,o),
(179,730,o),
(219,730,cs),
(512,730,ls),
(527,730,o),
(533,723,o),
(531,708,cs),
(528,693,o),
(519,685,o),
(504,685,cs),
(231,685,ls),
(211,685,o),
(199,675,o),
(195,655,cs),
(154,420,l),
(300,420,ls),
(363,420,o),
(448,367,o),
(484,273,o),
(473,210,qs),
(462,148,o),
(392,53,o),
(289,0,o),
(226,0,qs)
);
},
{
closed = 1;
nodes = (
(93,75,ls),
(90,55,o),
(98,45,o),
(118,45,cs),
(234,45,ls),
(305,45,o),
(410,137,o),
(423,210,qs),
(436,284,o),
(363,375,o),
(292,375,qs),
(146,375,l)
);
}
);
width = 600;
}
);
unicode = 1041;
},
{
color = (153, 254, 255, 255);
glyphname = "Ge-cy";
layers = (
{
layerId = "7B80DEB9-A0FA-491E-8DCF-B8BAEA8A01AC";
shapes = (
{
closed = 1;
nodes = (
(58,-10,o),
(38,15,o),
(46,65,cs),
(146,630,ls),
(158,697,o),
(197,730,o),
(264,730,cs),
(541,730,ls),
(586,730,o),
(605,708,o),
(597,663,cs),
(589,618,o),
(563,595,o),
(518,595,cs),
(340,595,ls),
(307,595,o),
(287,579,o),
(281,545,cs),
(196,65,ls),
(188,15,o),
(158,-10,o),
(108,-10,cs)
);
}
);
width = 600;
},
{
anchors = (
{
name = m.uni0308;
position = "{369, 730}";
}
);
layerId = "DDB6E94A-FF9F-44FE-9E50-A37C641AA6D0";
shapes = (
{
closed = 1;
nodes = (
(63.237,-10,o),
(50.882,5,o),
(56.171,35,cs),
(164.613,650,ls),
(174.134,704,o),
(204.719,730,o),
(258.719,730,cs),
(562.719,730,ls),
(589.719,730,o),
(601.25,716,o),
(596.489,689,cs),
(591.728,662,o),
(575.26,648,o),
(548.26,648,cs),
(294.26,648,ls),
(267.26,648,o),
(251.968,635,o),
(247.207,608,cs),
(146.171,35,ls),
(140.882,5,o),
(123.237,-10,o),
(93.237,-10,cs)
);
}
);
width = 600;
},
{
layerId = "888E2163-DF89-49B9-A98A-97103207B079";
shapes = (
{
closed = 1;
nodes = (
(66,-10,o),
(60,-2,o),
(63,15,cs),
(178,670,ls),
(185,710,o),
(209,730,o),
(249,730,cs),
(571,730,ls),
(586,730,o),
(592,723,o),
(590,708,cs),
(587,693,o),
(578,685,o),
(563,685,cs),
(261,685,ls),
(241,685,o),
(229,675,o),
(225,655,cs),
(113,15,ls),
(110,-2,o),
(100,-10,o),
(83,-10,cs)
);
}
);
width = 600;
}
);
unicode = 1043;
},
{
color = (153, 254, 255, 255);
glyphname = "Gheupturn-cy";
layers = (
{
layerId = "7B80DEB9-A0FA-491E-8DCF-B8BAEA8A01AC";
shapes = (
{
closed = 1;
nodes = (
(58,-10,o),
(37,15,o),
(47,65,cs),
(147,630,ls),
(159,697,o),
(198,730,o),
(265,730,cs),
(438,730,ls),
(456,730,o),
(466,739,o),
(470,757,cs),
(470,758,ls),
(478,803,o),
(503,825,o),
(548,825,cs),
(601,825,o),
(622,800,o),
(613,747,cs),
(603,690,ls),
(590,623,o),
(551,590,o),
(484,590,cs),
(339,590,ls),
(306,590,o),
(287,574,o),
(281,540,cs),
(197,65,ls),
(187,15,o),
(158,-10,o),
(108,-10,cs)
);
}
);
width = 600;
},
{
layerId = "DDB6E94A-FF9F-44FE-9E50-A37C641AA6D0";
shapes = (
{
closed = 1;
nodes = (
(63,-10,o),
(51,5,o),
(56,35,cs),
(165,650,ls),
(175,704,o),
(206,730,o),
(260,730,cs),
(488,730,ls),
(509,730,o),
(522,741,o),
(525,762,cs),
(530,787,ls),
(535,812,o),
(549,825,o),
(574,825,cs),
(606,825,o),
(619,810,o),
(613,778,cs),
(605,728,ls),
(594,674,o),
(564,648,o),
(510,648,cs),
(295,648,ls),
(268,648,o),
(253,635,o),
(248,608,cs),
(146,35,ls),
(141,5,o),
(123,-10,o),
(93,-10,cs)
);
}
);
width = 600;
},
{
layerId = "888E2163-DF89-49B9-A98A-97103207B079";
shapes = (
{
closed = 1;
nodes = (
(66,-10,o),
(60,-2,o),
(62,15,cs),
(179,670,ls),
(186,710,o),
(210,730,o),
(250,730,cs),
(515,730,ls),
(535,730,o),
(546,740,o),
(550,760,cs),
(557,800,ls),
(560,817,o),
(569,825,o),
(586,825,cs),
(603,825,o),
(610,817,o),
(607,800,cs),
(597,745,ls),
(590,705,o),
(567,685,o),
(527,685,cs),
(262,685,ls),
(242,685,o),
(229,675,o),
(226,655,cs),
(112,15,ls),
(110,-2,o),
(100,-10,o),
(83,-10,cs)
);
}
);
width = 600;
}
);
unicode = 1168;
},
{
color = (153, 254, 255, 255);
glyphname = "De-cy";
layers = (
{
layerId = "7B80DEB9-A0FA-491E-8DCF-B8BAEA8A01AC";
shapes = (
{
closed = 1;
nodes = (
(-60,-140,o),
(-79,-117,o),
(-70,-70,cs),
(-41,95,ls),
(-38,115,o),
(-26,125,o),
(-6,125,cs),
(-5,125,l),
(9,143,o),
(45,207,o),
(78,292,o),
(87,340,qs),
(142,630,ls),
(155,697,o),
(195,730,o),
(262,730,cs),
(466,730,ls),
(533,730,o),
(560,697,o),
(548,630,cs),
(459,125,l),
(460,125,l),
(500,125,o),
(517,105,o),
(509,65,cs),
(486,-70,ls),
(477,-117,o),
(450,-140,o),
(403,-140,cs),
(356,-140,o),
(337,-117,o),
(346,-70,cs),
(349,-50,ls),
(355,-17,o),
(342,0,o),
(308,0,cs),
(132,0,ls),
(98,0,o),
(79,-17,o),
(73,-50,cs),
(70,-70,ls),
(61,-117,o),
(34,-140,o),
(-13,-140,cs)
);
},
{
closed = 1;
nodes = (
(395,555,ls),
(401,589,o),
(387,605,o),
(354,605,cs),
(328,605,ls),
(294,605,o),
(275,588,o),
(268,555,cs),
(227,341,ls),
(219,295,o),
(188,210,o),
(155,144,o),
(142,125,q),
(319,125,l)
);
}
);
width = 600;
},
{
layerId = "DDB6E94A-FF9F-44FE-9E50-A37C641AA6D0";
shapes = (
{
closed = 1;
nodes = (
(-67,-140,o),
(-77,-127,o),
(-73,-100,cs),
(-48,37,ls),
(-44,64,o),
(-28,77,o),
(-1,77,cs),
(4,77,l),
(18,97,o),
(54,165,o),
(87,251,o),
(97,298,qs),
(165,650,ls),
(175,704,o),
(206,730,o),
(260,730,cs),
(474,730,ls),
(528,730,o),
(549,704,o),
(540,650,cs),
(439,77,l),
(449,77,ls),
(489,77,o),
(505,57,o),
(498,17,cs),
(477,-100,ls),
(473,-127,o),
(457,-140,o),
(430,-140,cs),
(403,-140,o),
(393,-127,o),
(397,-100,cs),
(408,-40,ls),
(413,-13,o),
(402,0,o),
(375,0,cs),
(65,0,ls),
(38,0,o),
(23,-13,o),
(18,-40,cs),
(7,-100,ls),
(3,-127,o),
(-13,-140,o),
(-40,-140,cs)
);
},
{
closed = 1;
nodes = (
(443,610,ls),
(447,637,o),
(437,650,o),
(410,650,cs),
(292,650,ls),
(265,650,o),
(248,637,o),
(244,610,cs),
(185,298,ls),
(175,247,o),
(144,159,o),
(111,94,o),
(98,77,q),
(349,77,l)
);
}
);
width = 600;
},
{
layerId = "888E2163-DF89-49B9-A98A-97103207B079";
shapes = (
{
closed = 1;
nodes = (
(-49,-140,o),
(-55,-133,o),
(-53,-118,cs),
(-29,15,ls),
(-26,35,o),
(-14,45,o),
(6,45,cs),
(10,45,l),
(27,63,o),
(70,131,o),
(109,222,o),
(120,276,qs),
(198,670,ls),
(206,710,o),
(230,730,o),
(270,730,cs),
(467,730,ls),
(507,730,o),
(523,710,o),
(516,670,cs),
(406,45,l),
(418,45,ls),
(458,45,o),
(474,25,o),
(467,-15,cs),
(449,-118,ls),
(447,-133,o),
(438,-140,o),
(423,-140,cs),
(408,-140,o),
(402,-132,o),
(404,-117,cs),
(420,-30,ls),
(423,-10,o),
(415,0,o),
(395,0,cs),
(43,0,ls),
(23,0,o),
(11,-10,o),
(8,-30,cs),
(-8,-117,ls),
(-10,-132,o),
(-19,-140,o),
(-34,-140,cs)
);
},
{
closed = 1;
nodes = (
(463,655,ls),
(467,675,o),
(459,685,o),
(439,685,cs),
(282,685,ls),
(262,685,o),
(249,675,o),
(245,655,cs),
(170,276,ls),
(159,222,o),
(121,131,o),
(80,63,o),
(63,45,q),
(356,45,l)
);
}
);
width = 600;
}
);
unicode = 1044;
},
{
color = (153, 254, 255, 255);
glyphname = "Zhe-cy";
layers = (
{
anchors = (
{
name = bottomright;
position = "{500, 0}";
},
{
name = top;
position = "{349, 730}";
}
);
layerId = "7B80DEB9-A0FA-491E-8DCF-B8BAEA8A01AC";
shapes = (
{
closed = 1;
nodes = (
(52,29,ls),
(41,3,o),
(21,-10,o),
(-6,-10,cs),
(-60,-10,o),
(-74,16,o),
(-51,68,cs),
(78,353,ls),
(85,369,o),
(88,385,o),
(87,401,cs),
(60,663,ls),
(54,715,o),
(78,740,o),
(132,740,cs),
(159,740,o),
(174,727,o),
(177,701,cs),
(203,450,ls),
(204,438,o),
(211,432,o),
(224,432,cs),
(244,432,l),
(288,689,ls),
(294,723,o),
(314,740,o),
(348,740,cs),
(382,740,o),
(396,723,o),
(390,689,cs),
(345,432,l),
(365,432,ls),
(378,432,o),
(388,438,o),
(395,451,cs),
(510,702,ls),
(521,727,o),
(540,740,o),
(566,740,cs),
(619,740,o),
(633,715,o),
(609,665,cs),
(487,404,ls),
(479,388,o),
(477,372,o),
(479,356,cs),
(514,67,ls),
(520,16,o),
(497,-10,o),
(443,-10,cs),
(416,-10,o),
(401,2,o),
(398,28,cs),
(366,307,ls),
(364,319,o),
(358,325,o),
(345,325,cs),
(325,325,l),
(280,41,ls),
(275,7,o),
(255,-10,o),
(221,-10,cs),
(187,-10,o),
(172,7,o),
(178,41,cs),
(224,325,l),
(204,325,ls),
(191,325,o),
(182,319,o),
(176,306,cs)
);
}
);
width = 600;
},
{
anchors = (
{
name = bottomright;
position = "{500, 0}";
},
{
name = top;
position = "{349, 730}";
}
);
layerId = "DDB6E94A-FF9F-44FE-9E50-A37C641AA6D0";
shapes = (
{
closed = 1;
nodes = (
(31,19,ls),
(22,0,o),
(6,-10,o),
(-15,-10,cs),
(-56,-10,o),
(-65,9,o),
(-46,48,cs),
(116,360,ls),
(123,373,o),
(125,385,o),
(123,398,cs),
(77,681,ls),
(70,721,o),
(87,740,o),
(129,740,cs),
(150,740,o),
(163,730,o),
(165,710,cs),
(206,430,ls),
(208,417,o),
(215,411,o),
(228,411,cs),
(254,411,l),
(306,702,ls),
(310,727,o),
(325,740,o),
(350,740,cs),
(375,740,o),
(386,727,o),
(382,702,cs),
(330,411,l),
(358,411,ls),
(371,411,o),
(382,417,o),
(388,430,cs),
(525,710,ls),
(535,730,o),
(550,740,o),
(571,740,cs),
(613,740,o),
(624,721,o),
(603,681,cs),
(456,397,ls),
(450,384,o),
(447,372,o),
(449,359,cs),
(501,48,ls),
(508,9,o),
(492,-10,o),
(450,-10,cs),
(429,-10,o),
(418,-1,o),
(414,19,cs),
(367,324,ls),
(365,337,o),
(357,343,o),
(344,343,cs),
(318,343,l),
(263,28,ls),
(259,3,o),
(243,-10,o),
(218,-10,cs),
(193,-10,o),
(183,3,o),
(187,28,cs),
(242,343,l),
(214,343,ls),
(201,343,o),
(191,337,o),
(185,324,cs)
);
}
);
width = 600;
},
{
anchors = (
{
name = bottomright;
position = "{500, 0}";
},
{
name = top;
position = "{349, 730}";
}
);
layerId = "888E2163-DF89-49B9-A98A-97103207B079";
shapes = (
{
closed = 1;
nodes = (
(-6,6,ls),
(-12,-5,o),
(-20,-10,o),
(-32,-10,cs),
(-55,-10,o),
(-61,0,o),
(-49,22,cs),
(143,370,ls),
(148,379,o),
(150,389,o),
(147,398,cs),
(82,708,ls),
(77,730,o),
(86,740,o),
(109,740,cs),
(121,740,o),
(128,735,o),
(130,724,cs),
(193,415,ls),
(196,406,o),
(202,401,o),
(212,401,cs),
(268,401,l),
(324,718,ls),
(326,733,o),
(334,740,o),
(349,740,cs),
(364,740,o),
(370,733,o),
(368,718,cs),
(312,401,l),
(368,401,ls),
(378,401,o),
(386,406,o),
(391,415,cs),
(566,724,ls),
(572,735,o),
(580,740,o),
(591,740,cs),
(614,740,o),
(619,729,o),
(607,708,cs),
(431,398,ls),
(426,389,o),
(423,379,o),
(425,370,cs),
(496,23,ls),
(500,1,o),
(492,-10,o),
(468,-10,cs),
(456,-10,o),
(449,-5,o),
(447,6,cs),
(378,344,ls),
(375,353,o),
(370,358,o),
(360,358,cs),
(304,358,l),
(243,12,ls),
(240,-3,o),
(232,-10,o),
(217,-10,cs),
(202,-10,o),
(196,-3,o),
(199,12,cs),
(260,358,l),
(204,358,ls),
(194,358,o),
(186,353,o),
(182,344,cs)
);
}
);
width = 600;
}
);
unicode = 1046;
},
{
color = (153, 254, 255, 255);
glyphname = "Ze-cy";
layers = (
{
layerId = "7B80DEB9-A0FA-491E-8DCF-B8BAEA8A01AC";
shapes = (
{
closed = 1;
nodes = (
(152,696,o),
(247,740,o),
(345,740,cs),
(466,740,o),
(575,676,o),
(551,541,cs),
(539,469,o),
(485,399,o),
(409,386,c),
(490,368,o),
(527,291,o),
(512,207,cs),
(486,59,o),
(341,-10,o),
(209,-10,cs),
(109,-10,o),
(20,31,o),
(-7,114,cs),
(-25,168,o),
(15,210,o),
(86,210,cs),
(109,210,o),
(123,198,o),
(140,163,cs),
(154,132,o),
(193,118,o),
(232,118,cs),
(292,118,o),
(351,152,o),
(362,217,cs),
(375,288,o),
(330,316,o),
(275,316,cs),
(247,316,ls),
(205,316,o),
(188,336,o),
(196,378,cs),
(203,420,o),
(227,440,o),
(269,440,cs),
(297,440,ls),
(344,440,o),
(388,465,o),
(399,529,cs),
(409,583,o),
(374,616,o),
(322,616,cs),
(283,616,o),
(249,598,o),
(229,568,cs),
(204,531,o),
(188,520,o),
(161,520,cs),
(90,520,o),
(64,561,o),
(100,616,cs)
);
}
);
width = 600;
},
{
anchors = (
{
name = m.uni0308;
position = "{349, 730}";
},
{
name = m.uni0325_2;
position = "{220, 0}";
}
);
layerId = "DDB6E94A-FF9F-44FE-9E50-A37C641AA6D0";
shapes = (
{
closed = 1;
nodes = (
(145,685,o),
(239,740,o),
(345,740,cs),
(459,740,o),
(550,674,o),
(528,551,cs),
(515,477,o),
(460,403,o),
(382,384,c),
(469,368,o),
(504,286,o),
(489,199,cs),
(465,61,o),
(335,-10,o),
(209,-10,cs),
(102,-10,o),
(17,43,o),
(6,141,cs),
(1,178,o),
(25,200,o),
(67,200,cs),
(86,200,o),
(94,191,o),
(95,170,cs),
(98,104,o),
(155,70,o),
(224,70,cs),
(306,70,o),
(383,118,o),
(398,205,cs),
(413,292,o),
(354,340,o),
(272,340,cs),
(226,340,ls),
(199,340,o),
(188,353,o),
(193,380,cs),
(198,407,o),
(213,420,o),
(240,420,cs),
(286,420,ls),
(344,420,o),
(420,448,o),
(437,542,cs),
(450,616,o),
(402,660,o),
(331,660,cs),
(263,660,o),
(207,622,o),
(184,560,cs),
(176,539,o),
(164,530,o),
(145,530,cs),
(103,530,o),
(87,553,o),
(103,590,cs)
);
}
);
width = 600;
},
{
layerId = "888E2163-DF89-49B9-A98A-97103207B079";
shapes = (
{
closed = 1;
nodes = (
(136,670,o),
(229,740,o),
(344,740,cs),
(459,740,o),
(534,665,o),
(513,547,cs),
(500,471,o),
(443,397,o),
(363,381,c),
(446,360,o),
(487,282,o),
(471,194,cs),
(448,63,o),
(331,-10,o),
(208,-10,cs),
(94,-10,o),
(10,52,o),
(14,163,cs),
(14,184,o),
(28,196,o),
(51,196,cs),
(62,196,o),
(67,190,o),
(66,179,cs),
(57,86,o),
(124,35,o),
(216,35,cs),
(313,35,o),
(403,93,o),
(422,196,cs),
(440,299,o),
(370,356,o),
(273,356,cs),
(231,356,ls),
(216,356,o),
(209,364,o),
(212,379,cs),
(214,394,o),
(223,401,o),
(238,401,cs),
(285,401,ls),
(374,401,o),
(448,458,o),
(464,549,cs),
(480,639,o),
(425,696,o),
(337,696,cs),
(245,696,o),
(172,635,o),
(149,547,cs),
(147,536,o),
(139,530,o),
(128,530,cs),
(105,530,o),
(96,541,o),
(103,563,cs)
);
}
);
width = 600;
}
);
unicode = 1047;
},
{
color = (153, 254, 255, 255);
glyphname = "Ii-cy";
layers = (
{
layerId = "7B80DEB9-A0FA-491E-8DCF-B8BAEA8A01AC";
shapes = (
{
closed = 1;
nodes = (
(581,629,ls),
(594,703,o),
(563,740,o),
(489,740,cs),
(439,740,o),
(405,716,o),
(381,669,cs),
(162,240,ls),
(161,236,o),
(158,234,o),
(155,234,cs),
(152,234,o),
(152,236,o),
(152,240,cs),
(228,670,ls),
(236,717,o),
(217,740,o),
(170,740,cs),
(123,740,o),
(96,717,o),
(88,670,cs),
(-12,101,ls),
(-25,27,o),
(5,-10,o),
(79,-10,cs),
(129,-10,o),
(163,14,o),
(188,61,cs),
(406,490,ls),
(408,494,o),
(410,496,o),
(413,496,cs),
(416,496,o),
(417,494,o),
(416,490,cs),
(341,60,ls),
(332,13,o),
(351,-10,o),
(398,-10,cs),
(445,-10,o),
(472,13,o),
(481,60,cs)
);
}
);
width = 600;
},
{
anchors = (
{
name = m.uni0308;
position = "{349, 730}";
}
);
layerId = "DDB6E94A-FF9F-44FE-9E50-A37C641AA6D0";
shapes = (
{
closed = 1;
nodes = (
(557,662,ls),
(566,714,o),
(544,740,o),
(492,740,cs),
(457,740,o),
(433,723,o),
(416,690,cs),
(125,150,ls),
(124,146,o),
(122,144,o),
(119,144,cs),
(116,144,o),
(116,146,o),
(116,150,cs),
(213,695,ls),
(218,725,o),
(205,740,o),
(175,740,cs),
(145,740,o),
(128,725,o),
(123,695,cs),
(12,68,ls),
(3,16,o),
(24,-10,o),
(76,-10,cs),
(111,-10,o),
(135,7,o),
(153,40,cs),
(443,580,ls),
(445,584,o),
(446,586,o),
(449,586,cs),
(452,586,o),
(453,584,o),
(452,580,cs),
(356,35,ls),
(351,5,o),
(363,-10,o),
(393,-10,cs),
(423,-10,o),
(441,5,o),
(446,35,cs)
);
}
);
width = 600;
},
{
layerId = "888E2163-DF89-49B9-A98A-97103207B079";
shapes = (
{
closed = 1;
nodes = (
(532,693,ls),
(538,724,o),
(524,740,o),
(493,740,cs),
(469,740,o),
(453,729,o),
(441,707,cs),
(104,80,ls),
(102,76,o),
(100,74,o),
(97,74,cs),
(94,74,o),
(93,76,o),
(94,80,cs),
(206,715,ls),
(209,732,o),
(202,740,o),
(185,740,cs),
(168,740,o),
(159,732,o),
(156,715,cs),
(37,37,ls),
(31,6,o),
(44,-10,o),
(75,-10,cs),
(99,-10,o),
(116,1,o),
(128,23,cs),
(465,650,ls),
(466,654,o),
(469,656,o),
(472,656,cs),
(475,656,o),
(475,654,o),
(475,650,cs),
(363,15,ls),
(360,-2,o),
(366,-10,o),
(383,-10,cs),
(400,-10,o),
(410,-2,o),
(413,15,cs)
);
}
);
width = 600;
}
);
unicode = 1048;
},
{
color = (153, 254, 255, 255);
glyphname = "El-cy";
layers = (
{
layerId = "7B80DEB9-A0FA-491E-8DCF-B8BAEA8A01AC";
shapes = (
{
closed = 1;
nodes = (
(144,630,ls),
(157,697,o),
(197,730,o),
(264,730,cs),
(484,730,ls),
(551,730,o),
(578,697,o),
(566,630,cs),
(466,65,ls),
(456,15,o),
(427,-10,o),
(377,-10,cs),
(327,-10,o),
(306,15,o),
(316,65,cs),
(401,545,ls),
(407,579,o),
(393,595,o),
(359,595,cs),
(336,595,ls),
(302,595,o),
(284,578,o),
(277,545,cs),
(214,220,ls),
(189,90,o),
(126,18,o),
(23,-6,cs),
(-35,-20,o),
(-63,11,o),
(-52,75,cs),
(-48,101,o),
(-33,115,o),
(3,126,cs),
(39,138,o),
(55,168,o),
(65,220,cs)
);
}
);
width = 600;
},
{
layerId = "DDB6E94A-FF9F-44FE-9E50-A37C641AA6D0";
shapes = (
{
closed = 1;
nodes = (
(164,650,ls),
(175,704,o),
(206,730,o),
(260,730,cs),
(476,730,ls),
(530,730,o),
(551,704,o),
(541,650,cs),
(432,35,ls),
(427,5,o),
(409,-10,o),
(379,-10,cs),
(349,-10,o),
(337,5,o),
(342,35,cs),
(444,608,ls),
(449,635,o),
(438,648,o),
(411,648,cs),
(294,648,ls),
(267,648,o),
(251,635,o),
(246,608,cs),
(175,246,ls),
(152,120,o),
(117,12,o),
(-14,-9,cs),
(-46,-14,o),
(-60,2,o),
(-54,35,cs),
(-50,57,o),
(-38,68,o),
(-11,76,cs),
(61,96,o),
(72,176,o),
(85,246,cs)
);
}
);
width = 600;
},
{
layerId = "888E2163-DF89-49B9-A98A-97103207B079";
shapes = (
{
closed = 1;
nodes = (
(185,670,ls),
(193,710,o),
(217,730,o),
(257,730,cs),
(480,730,ls),
(520,730,o),
(536,710,o),
(529,670,cs),
(412,15,ls),
(410,-2,o),
(400,-10,o),
(383,-10,cs),
(366,-10,o),
(360,-2,o),
(362,15,cs),
(476,654,ls),
(479,674,o),
(471,684,o),
(451,684,cs),
(268,684,ls),
(248,684,o),
(236,674,o),
(233,654,cs),
(137,158,ls),
(116,52,o),
(65,-10,o),
(-32,-10,cs),
(-48,-10,o),
(-56,-3,o),
(-52,14,cs),
(-50,30,o),
(-39,40,o),
(-22,40,cs),
(43,40,o),
(72,82,o),
(87,158,cs)
);
}
);
width = 600;
}
);
unicode = 1051;
},
{
color = (153, 254, 255, 255);
glyphname = "Pe-cy";
layers = (
{
layerId = "7B80DEB9-A0FA-491E-8DCF-B8BAEA8A01AC";
shapes = (
{
closed = 1;
nodes = (
(9,-10,o),
(-11,15,o),
(-3,65,cs),
(97,630,ls),
(109,697,o),
(148,730,o),
(215,730,cs),
(483,730,ls),
(550,730,o),
(577,697,o),
(565,630,cs),
(465,65,ls),
(457,15,o),
(427,-10,o),
(377,-10,cs),
(327,-10,o),
(307,15,o),
(315,65,cs),
(400,545,ls),
(406,579,o),
(393,595,o),
(359,595,cs),
(291,595,ls),
(257,595,o),
(238,579,o),
(232,545,cs),
(147,65,ls),
(139,15,o),
(109,-10,o),
(59,-10,cs)
);
}
);
width = 600;
},
{
layerId = "DDB6E94A-FF9F-44FE-9E50-A37C641AA6D0";
shapes = (
{
closed = 1;
nodes = (
(27,-10,o),
(15,5,o),
(20,35,cs),
(129,650,ls),
(138,704,o),
(169,730,o),
(223,730,cs),
(475,730,ls),
(529,730,o),
(550,704,o),
(541,650,cs),
(432,35,ls),
(427,5,o),
(409,-10,o),
(379,-10,cs),
(349,-10,o),
(337,5,o),
(342,35,cs),
(443,608,ls),
(448,635,o),
(437,648,o),
(410,648,cs),
(258,648,ls),
(231,648,o),
(216,635,o),
(211,608,cs),
(110,35,ls),
(105,5,o),
(87,-10,o),
(57,-10,cs)
);
}
);
width = 600;
},
{
layerId = "888E2163-DF89-49B9-A98A-97103207B079";
shapes = (
{
closed = 1;
nodes = (
(36,-10,o),
(30,-2,o),
(33,15,cs),
(148,670,ls),
(155,710,o),
(179,730,o),
(219,730,cs),
(479,730,ls),
(519,730,o),
(535,710,o),
(528,670,cs),
(413,15,ls),
(410,-2,o),
(400,-10,o),
(383,-10,cs),
(366,-10,o),
(360,-2,o),
(363,15,cs),
(475,655,ls),
(479,675,o),
(471,685,o),
(451,685,cs),
(231,685,ls),
(211,685,o),
(199,675,o),
(195,655,cs),
(83,15,ls),
(80,-2,o),
(70,-10,o),
(53,-10,cs)
);
}
);
width = 600;
}
);
unicode = 1055;
},
{
color = (153, 254, 255, 255);
glyphname = "U-cy";
layers = (
{
anchors = (
{
name = top;
position = "{349, 730}";
}
);
layerId = "7B80DEB9-A0FA-491E-8DCF-B8BAEA8A01AC";
shapes = (
{
closed = 1;
nodes = (
(117,-10,o),
(96,12,o),
(132,83,cs),
(173,165,ls),
(181,181,o),
(184,195,o),
(181,211,cs),
(95,647,ls),
(82,710,o),
(108,740,o),
(175,740,cs),
(214,740,o),
(239,734,o),
(245,693,cs),
(288,391,ls),
(290,375,o),
(295,375,o),
(303,391,cs),
(445,692,ls),
(463,730,o),
(488,740,o),
(525,740,cs),
(592,740,o),
(608,709,o),
(576,646,cs),
(262,37,ls),
(245,5,o),
(219,-10,o),
(186,-10,cs)
);
}
);
width = 600;
},
{
anchors = (
{
name = top;
position = "{349, 730}";
}
);
layerId = "DDB6E94A-FF9F-44FE-9E50-A37C641AA6D0";
shapes = (
{
closed = 1;
nodes = (
(130,-10,o),
(121,10,o),
(143,50,cs),
(208,170,ls),
(214,182,o),
(218,196,o),
(215,208,cs),
(114,679,ls),
(105,720,o),
(121,740,o),
(165,740,cs),
(187,740,o),
(201,730,o),
(204,709,cs),
(276,307,ls),
(279,294,o),
(283,294,o),
(289,307,cs),
(487,709,ls),
(498,730,o),
(513,740,o),
(535,740,cs),
(579,740,o),
(589,720,o),
(568,679,cs),
(222,20,ls),
(211,0,o),
(194,-10,o),
(173,-10,cs)
);
}
);
width = 600;
},
{
anchors = (
{
name = top;
position = "{349, 730}";
}
);
layerId = "888E2163-DF89-49B9-A98A-97103207B079";
shapes = (
{
closed = 1;
nodes = (
(140,-10,o),
(134,1,o),
(147,25,cs),
(230,177,ls),
(235,186,o),
(237,196,o),
(234,205,cs),
(126,705,ls),
(122,729,o),
(131,740,o),
(156,740,cs),
(169,740,o),
(176,734,o),
(179,722,cs),
(270,269,ls),
(272,260,o),
(276,260,o),
(280,269,cs),
(519,723,ls),
(525,734,o),
(534,740,o),
(546,740,cs),
(570,740,o),
(577,729,o),
(564,706,cs),
(194,8,ls),
(188,-4,o),
(178,-10,o),
(165,-10,cs)
);
}
);
width = 600;
}
);
unicode = 1059;
},
{
color = (153, 254, 255, 255);
glyphname = "Ef-cy";
layers = (
{
layerId = "7B80DEB9-A0FA-491E-8DCF-B8BAEA8A01AC";
shapes = (
{
closed = 1;
nodes = (
(165,-25,o),
(144,-5,o),
(153,48,cs),
(155,55,l),
(45,59,o),
(-9,145,o),
(-6,274,cs),
(-4,341,o),
(8,409,o),
(30,476,cs),
(72,606,o),
(157,691,o),
(268,695,c),
(268,697,ls),
(277,750,o),
(305,770,o),
(356,770,cs),
(405,770,o),
(427,746,o),
(418,697,cs),
(418,695,l),
(527,691,o),
(582,605,o),
(578,476,cs),
(576,409,o),
(564,341,o),
(542,274,cs),
(501,145,o),
(415,59,o),
(305,55,c),
(303,48,ls),
(295,-1,o),
(265,-25,o),
(216,-25,cs)
);
},
{
closed = 1;
nodes = (
(265,580,l),
(218,580,o),
(175,539,o),
(155,476,cs),
(133,409,o),
(121,341,o),
(119,274,cs),
(117,212,o),
(146,171,o),
(193,171,c)
);
},
{
closed = 1;
nodes = (
(307,171,l),
(354,171,o),
(397,212,o),
(417,274,cs),
(439,341,o),
(451,409,o),
(453,476,cs),
(455,539,o),
(426,580,o),
(379,580,c)
);
}
);
width = 600;
},
{
layerId = "DDB6E94A-FF9F-44FE-9E50-A37C641AA6D0";
shapes = (
{
closed = 1;
nodes = (
(186,-25,o),
(173,-10,o),
(179,20,cs),
(185,55,l),
(75,55,o),
(7,138,o),
(12,263,cs),
(15,335,o),
(28,410,o),
(51,482,cs),
(92,610,o),
(187,695,o),
(298,695,c),
(303,725,ls),
(308,755,o),
(326,770,o),
(356,770,cs),
(386,770,o),
(398,755,o),
(393,725,cs),
(388,695,l),
(499,695,o),
(564,610,o),
(559,482,cs),
(556,410,o),
(543,335,o),
(520,263,cs),
(481,138,o),
(385,55,o),
(275,55,c),
(269,20,ls),
(263,-10,o),
(246,-25,o),
(216,-25,cs)
);
},
{
closed = 1;
nodes = (
(288,619,l),
(223,619,o),
(162,566,o),
(135,482,cs),
(112,410,o),
(99,335,o),
(96,263,cs),
(93,182,o),
(137,131,o),
(202,131,c)
);
},
{
closed = 1;
nodes = (
(284,131,l),
(349,131,o),
(411,182,o),
(436,263,cs),
(459,335,o),
(472,410,o),
(475,482,cs),
(478,566,o),
(435,619,o),
(370,619,c)
);
}
);
width = 600;
},
{
layerId = "888E2163-DF89-49B9-A98A-97103207B079";
shapes = (
{
closed = 1;
nodes = (
(199,-25,o),
(192,-17,o),
(195,0,cs),
(205,55,l),
(86,55,o),
(19,133,o),
(25,257,cs),
(29,336,o),
(44,417,o),
(67,496,cs),
(104,618,o),
(198,695,o),
(318,695,c),
(326,745,ls),
(329,762,o),
(339,770,o),
(356,770,cs),
(373,770,o),
(379,762,o),
(376,745,cs),
(368,695,l),
(488,695,o),
(554,617,o),
(547,496,cs),
(544,417,o),
(529,336,o),
(505,257,cs),
(468,134,o),
(374,55,o),
(255,55,c),
(245,0,ls),
(242,-17,o),
(233,-25,o),
(216,-25,cs)
);
},
{
closed = 1;
nodes = (
(310,651,l),
(226,651,o),
(144,585,o),
(117,496,cs),
(94,417,o),
(79,336,o),
(75,257,cs),
(70,166,o),
(130,100,o),
(213,100,c)
);
},
{
closed = 1;
nodes = (
(263,100,l),
(346,100,o),
(428,167,o),
(455,257,cs),
(479,336,o),
(494,417,o),
(497,496,cs),
(502,584,o),
(444,651,o),
(360,651,c)
);
}
);
width = 600;
}
);
unicode = 1060;
},
{
color = (153, 254, 255, 255);
glyphname = "Che-cy";
layers = (
{
layerId = "7B80DEB9-A0FA-491E-8DCF-B8BAEA8A01AC";
shapes = (
{
closed = 1;
nodes = (
(344,250,l),
(234,250,ls),
(129,250,o),
(33,355,o),
(49,450,qs),
(87,665,ls),
(96,715,o),
(125,740,o),
(175,740,cs),
(225,740,o),
(246,715,o),
(237,665,cs),
(201,460,ls),
(195,426,o),
(236,385,o),
(277,385,qs),
(368,385,l),
(417,665,l),
(426,715,o),
(455,740,o),
(505,740,cs),
(555,740,o),
(576,715,o),
(567,665,cs),
(461,65,ls),
(453,15,o),
(423,-10,o),
(373,-10,cs),
(323,-10,o),
(303,15,o),
(311,65,c)
);
}
);
width = 600;
},
{
anchors = (
{
name = m.uni0308;
position = "{349, 730}";
}
);
layerId = "DDB6E94A-FF9F-44FE-9E50-A37C641AA6D0";
shapes = (
{
closed = 1;
nodes = (
(383,271,l),
(243,271,ls),
(149,271,o),
(60,367,o),
(75,451,qs),
(118,695,ls),
(123,725,o),
(140,740,o),
(170,740,cs),
(200,740,o),
(213,725,o),
(208,695,cs),
(165,451,ls),
(156,403,o),
(210,351,o),
(267,351,qs),
(397,351,l),
(458,695,l),
(463,725,o),
(480,740,o),
(510,740,cs),
(540,740,o),
(553,725,o),
(548,695,cs),
(431,35,ls),
(426,5,o),
(408,-10,o),
(378,-10,cs),
(348,-10,o),
(336,5,o),
(341,35,c)
);
}
);
width = 600;
},
{
layerId = "888E2163-DF89-49B9-A98A-97103207B079";
shapes = (
{
closed = 1;
nodes = (
(412,289,l),
(271,289,ls),
(168,289,o),
(78,385,o),
(94,479,qs),
(136,715,ls),
(139,732,o),
(148,740,o),
(165,740,cs),
(182,740,o),
(189,732,o),
(186,715,cs),
(144,479,ls),
(132,408,o),
(200,334,o),
(279,334,qs),
(419,334,l),
(486,715,l),
(489,732,o),
(498,740,o),
(515,740,cs),
(532,740,o),
(539,732,o),
(536,715,cs),
(413,15,ls),
(410,-2,o),
(400,-10,o),
(383,-10,cs),
(366,-10,o),
(360,-2,o),
(363,15,c)
);
}
);
width = 600;
}
);
unicode = 1063;
},
{
color = (153, 254, 255, 255);
glyphname = "Tse-cy";
layers = (
{
layerId = "7B80DEB9-A0FA-491E-8DCF-B8BAEA8A01AC";
shapes = (
{
closed = 1;
nodes = (
(486,-70,ls),
(477,-117,o),
(450,-140,o),
(403,-140,cs),
(356,-140,o),
(337,-117,o),
(346,-70,cs),
(351,-40,ls),
(356,-13,o),
(345,0,o),
(318,0,cs),
(86,0,ls),
(19,0,o),
(-8,33,o),
(4,100,cs),
(103,665,ls),
(112,715,o),
(141,740,o),
(191,740,cs),
(241,740,o),
(262,715,o),
(253,665,cs),
(164,160,ls),
(161,143,o),
(168,135,o),
(185,135,cs),
(297,135,l),
(390,665,ls),
(399,715,o),
(428,740,o),
(478,740,cs),
(528,740,o),
(549,715,o),
(540,665,cs),
(447,135,l),
(450,135,ls),
(498,135,o),
(518,111,o),
(509,63,cs)
);
}
);
width = 600;
},
{
layerId = "DDB6E94A-FF9F-44FE-9E50-A37C641AA6D0";
shapes = (
{
closed = 1;
nodes = (
(467,-100,ls),
(463,-127,o),
(447,-140,o),
(420,-140,cs),
(393,-140,o),
(383,-127,o),
(387,-100,cs),
(398,-40,ls),
(403,-13,o),
(392,0,o),
(365,0,cs),
(94,0,ls),
(40,0,o),
(19,26,o),
(28,80,cs),
(137,695,ls),
(142,725,o),
(159,740,o),
(189,740,cs),
(219,740,o),
(232,725,o),
(227,695,cs),
(122,100,ls),
(119,87,o),
(125,80,o),
(138,80,cs),
(334,80,l),
(443,695,ls),
(448,725,o),
(465,740,o),
(495,740,cs),
(525,740,o),
(538,725,o),
(533,695,cs),
(424,80,l),
(439,80,ls),
(479,80,o),
(496,60,o),
(489,20,cs)
);
}
);
width = 600;
},
{
layerId = "888E2163-DF89-49B9-A98A-97103207B079";
shapes = (
{
closed = 1;
nodes = (
(450,-115,ls),
(447,-132,o),
(437,-140,o),
(420,-140,cs),
(403,-140,o),
(397,-132,o),
(400,-115,cs),
(415,-30,ls),
(418,-10,o),
(410,0,o),
(390,0,cs),
(90,0,ls),
(50,0,o),
(34,20,o),
(41,60,cs),
(156,715,ls),
(159,732,o),
(168,740,o),
(185,740,cs),
(202,740,o),
(209,732,o),
(206,715,cs),
(91,60,ls),
(89,50,o),
(93,45,o),
(103,45,cs),
(351,45,l),
(469,715,ls),
(472,732,o),
(481,740,o),
(498,740,cs),
(515,740,o),
(522,732,o),
(519,715,cs),
(401,45,l),
(418,45,ls),
(458,45,o),
(474,25,o),
(467,-15,cs)
);
}
);
width = 600;
}
);
unicode = 1062;
},
{
color = (153, 254, 255, 255);
glyphname = "Sha-cy";
layers = (
{
layerId = "7B80DEB9-A0FA-491E-8DCF-B8BAEA8A01AC";
shapes = (
{
closed = 1;
nodes = (
(58,0,ls),
(-9,0,o),
(-36,33,o),
(-24,100,cs),
(77,676,ls),
(85,719,o),
(110,740,o),
(153,740,cs),
(196,740,o),
(214,718,o),
(206,675,cs),
(115,157,ls),
(110,132,o),
(119,120,o),
(144,120,cs),
(182,120,l),
(281,681,ls),
(288,721,o),
(310,740,o),
(350,740,cs),
(390,740,o),
(406,721,o),
(399,681,cs),
(300,120,l),
(337,120,ls),
(362,120,o),
(376,132,o),
(381,157,cs),
(472,675,ls),
(480,718,o),
(505,740,o),
(548,740,cs),
(591,740,o),
(609,719,o),
(601,676,cs),
(500,100,ls),
(488,33,o),
(449,0,o),
(382,0,cs)
);
}
);
width = 600;
},
{
layerId = "DDB6E94A-FF9F-44FE-9E50-A37C641AA6D0";
shapes = (
{
closed = 1;
nodes = (
(62,0,ls),
(8,0,o),
(-13,26,o),
(-4,80,cs),
(103,697,ls),
(108,725,o),
(125,740,o),
(153,740,cs),
(181,740,o),
(193,726,o),
(188,698,cs),
(86,118,ls),
(81,91,o),
(92,78,o),
(119,78,cs),
(198,78,l),
(308,703,ls),
(312,728,o),
(326,740,o),
(351,740,cs),
(376,740,o),
(386,728,o),
(382,703,cs),
(272,78,l),
(350,78,ls),
(377,78,o),
(392,91,o),
(397,118,cs),
(499,698,ls),
(504,726,o),
(520,740,o),
(548,740,cs),
(576,740,o),
(588,726,o),
(583,698,cs),
(474,80,ls),
(465,26,o),
(434,0,o),
(380,0,cs)
);
}
);
width = 600;
},
{
layerId = "888E2163-DF89-49B9-A98A-97103207B079";
shapes = (
{
closed = 1;
nodes = (
(55,0,ls),
(15,0,o),
(-1,20,o),
(6,60,cs),
(121,716,ls),
(124,732,o),
(133,740,o),
(149,740,cs),
(165,740,o),
(172,732,o),
(169,716,cs),
(56,73,ls),
(52,53,o),
(61,43,o),
(81,43,cs),
(204,43,l),
(322,716,ls),
(325,732,o),
(334,740,o),
(350,740,cs),
(366,740,o),
(373,732,o),
(370,716,cs),
(252,43,l),
(375,43,ls),
(395,43,o),
(406,53,o),
(410,73,cs),
(523,716,ls),
(526,732,o),
(535,740,o),
(551,740,cs),
(567,740,o),
(574,732,o),
(571,716,cs),
(456,60,ls),
(449,20,o),
(425,0,o),
(385,0,cs)
);
}
);
width = 600;
}
);
unicode = 1064;
},
{
color = (153, 254, 255, 255);
glyphname = "Shcha-cy";
layers = (
{
layerId = "7B80DEB9-A0FA-491E-8DCF-B8BAEA8A01AC";
shapes = (
{
closed = 1;
nodes = (
(386,-140,o),
(369,-119,o),
(377,-75,cs),
(381,-50,ls),
(387,-17,o),
(373,0,o),
(340,0,cs),
(58,0,ls),
(-9,0,o),
(-36,33,o),
(-24,100,cs),
(78,680,ls),
(85,720,o),
(108,740,o),
(148,740,cs),
(188,740,o),
(205,720,o),
(198,680,cs),
(104,145,ls),
(101,128,o),
(107,120,o),
(124,120,cs),
(174,120,l),
(275,690,ls),
(280,723,o),
(299,740,o),
(333,740,cs),
(367,740,o),
(380,723,o),
(375,690,cs),
(274,120,l),
(349,120,l),
(448,680,ls),
(455,720,o),
(478,740,o),
(518,740,cs),
(558,740,o),
(575,720,o),
(568,680,cs),
(469,120,l),
(472,120,ls),
(518,120,o),
(537,97,o),
(529,51,cs),
(507,-75,ls),
(499,-119,o),
(474,-140,o),
(430,-140,cs)
);
}
);
width = 600;
},
{
layerId = "DDB6E94A-FF9F-44FE-9E50-A37C641AA6D0";
shapes = (
{
closed = 1;
nodes = (
(423,-140,o),
(413,-127,o),
(417,-100,cs),
(428,-40,ls),
(433,-13,o),
(422,0,o),
(395,0,cs),
(60,0,ls),
(6,0,o),
(-15,26,o),
(-6,80,cs),
(103,700,ls),
(108,727,o),
(124,740,o),
(151,740,cs),
(178,740,o),
(189,727,o),
(184,700,cs),
(78,98,ls),
(76,85,o),
(82,78,o),
(95,78,cs),
(195,78,l),
(305,705,ls),
(309,728,o),
(323,740,o),
(346,740,cs),
(369,740,o),
(379,728,o),
(375,705,cs),
(265,78,l),
(385,78,l),
(494,700,ls),
(499,727,o),
(515,740,o),
(542,740,cs),
(569,740,o),
(580,727,o),
(575,700,cs),
(466,78,l),
(479,78,ls),
(513,78,o),
(526,62,o),
(520,28,cs),
(497,-100,ls),
(493,-127,o),
(477,-140,o),
(450,-140,cs)
);
}
);
width = 600;
},
{
layerId = "888E2163-DF89-49B9-A98A-97103207B079";
shapes = (
{
closed = 1;
nodes = (
(438,-140,o),
(432,-132,o),
(435,-115,cs),
(450,-30,ls),
(453,-10,o),
(445,0,o),
(425,0,cs),
(55,0,ls),
(15,0,o),
(-1,20,o),
(6,60,cs),
(121,716,ls),
(124,732,o),
(133,740,o),
(149,740,cs),
(165,740,o),
(172,732,o),
(169,716,cs),
(53,58,ls),
(51,48,o),
(56,43,o),
(66,43,cs),
(201,43,l),
(319,716,ls),
(322,732,o),
(331,740,o),
(347,740,cs),
(363,740,o),
(370,732,o),
(367,716,cs),
(249,43,l),
(399,43,l),
(517,716,ls),
(520,732,o),
(529,740,o),
(545,740,cs),
(561,740,o),
(568,732,o),
(565,716,cs),
(447,43,l),
(460,43,ls),
(495,43,o),
(509,25,o),
(503,-10,cs),
(485,-115,ls),
(482,-132,o),
(472,-140,o),
(455,-140,cs)
);
}
);
width = 600;
}
);
unicode = 1065;
},
{
color = (153, 254, 255, 255);
glyphname = "Dzhe-cy";
layers = (
{
layerId = "7B80DEB9-A0FA-491E-8DCF-B8BAEA8A01AC";
shapes = (
{
closed = 1;
nodes = (
(145,0,l),
(86,0,l),
(19,0,o),
(-8,33,o),
(4,100,cs),
(103,665,ls),
(112,715,o),
(141,740,o),
(191,740,cs),
(241,740,o),
(262,715,o),
(253,665,cs),
(170,190,ls),
(164,156,o),
(177,140,o),
(211,140,cs),
(279,140,ls),
(313,140,o),
(332,156,o),
(338,190,cs),
(421,665,ls),
(430,715,o),
(459,740,o),
(509,740,cs),
(559,740,o),
(580,715,o),
(571,665,cs),
(472,100,ls),
(460,33,o),
(421,0,o),
(354,0,c),
(295,0,l),
(286,-50,ls),
(277,-100,o),
(248,-125,o),
(198,-125,cs),
(148,-125,o),
(127,-100,o),
(136,-50,cs)
);
}
);
width = 600;
},
{
layerId = "DDB6E94A-FF9F-44FE-9E50-A37C641AA6D0";
shapes = (
{
closed = 1;
nodes = (
(175,0,l),
(92,0,l),
(38,0,o),
(17,26,o),
(26,80,cs),
(135,695,ls),
(140,725,o),
(157,740,o),
(187,740,cs),
(217,740,o),
(230,725,o),
(225,695,cs),
(124,122,ls),
(119,95,o),
(129,82,o),
(156,82,cs),
(312,82,ls),
(339,82,o),
(355,95,o),
(360,122,cs),
(461,695,ls),
(466,725,o),
(483,740,o),
(513,740,cs),
(543,740,o),
(556,725,o),
(551,695,cs),
(442,80,ls),
(433,26,o),
(402,0,o),
(348,0,c),
(265,0,l),
(251,-80,ls),
(246,-110,o),
(228,-125,o),
(198,-125,cs),
(168,-125,o),
(156,-110,o),
(161,-80,cs)
);
}
);
width = 600;
},
{
layerId = "888E2163-DF89-49B9-A98A-97103207B079";
shapes = (
{
closed = 1;
nodes = (
(193,0,l),
(90,0,l),
(50,0,o),
(34,20,o),
(41,60,cs),
(156,712,ls),
(159,730,o),
(170,740,o),
(188,740,cs),
(206,740,o),
(214,730,o),
(211,712,cs),
(99,80,ls),
(96,60,o),
(104,50,o),
(124,50,cs),
(334,50,ls),
(354,50,o),
(366,60,o),
(369,80,cs),
(481,712,ls),
(484,730,o),
(495,740,o),
(513,740,cs),
(531,740,o),
(539,730,o),
(536,712,cs),
(421,60,ls),
(414,20,o),
(390,0,o),
(350,0,c),
(248,0,l),
(231,-97,ls),
(228,-115,o),
(217,-125,o),
(199,-125,cs),
(181,-125,o),
(173,-115,o),
(176,-97,cs)
);
}
);
width = 600;
}
);
unicode = 1039;
},
{
color = (153, 254, 255, 255);
glyphname = "Softsign-cy";
layers = (
{
layerId = "7B80DEB9-A0FA-491E-8DCF-B8BAEA8A01AC";
shapes = (
{
closed = 1;
nodes = (
(103,665,ls),
(112,715,o),
(140,740,o),
(190,740,cs),
(240,740,o),
(262,715,o),
(253,665,c),
(214,444,l),
(313,444,ls),
(390,444,o),
(494,386,o),
(541,291,o),
(529,222,qs),
(517,152,o),
(437,58,o),
(312,0,o),
(235,0,qs),
(86,0,ls),
(19,0,o),
(-8,33,o),
(4,100,cs)
);
},
{
closed = 1;
nodes = (
(168,180,l),
(162,147,o),
(176,130,o),
(209,130,cs),
(258,130,ls),
(306,130,o),
(371,178,o),
(379,222,qs),
(387,266,o),
(338,314,o),
(290,314,qs),
(191,314,l)
);
}
);
width = 600;
},
{
layerId = "DDB6E94A-FF9F-44FE-9E50-A37C641AA6D0";
shapes = (
{
closed = 1;
nodes = (
(135,695,ls),
(140,725,o),
(157,740,o),
(187,740,cs),
(217,740,o),
(230,725,o),
(225,695,c),
(174,410,l),
(319,410,ls),
(387,410,o),
(478,357,o),
(518,270,o),
(506,205,qs),
(495,139,o),
(424,53,o),
(315,0,o),
(247,0,qs),
(92,0,ls),
(38,0,o),
(17,26,o),
(26,80,cs)
);
},
{
closed = 1;
nodes = (
(125,130,l),
(120,103,o),
(131,90,o),
(158,90,cs),
(263,90,ls),
(322,90,o),
(404,152,o),
(413,205,qs),
(422,257,o),
(362,320,o),
(303,320,qs),
(158,320,l)
);
}
);
width = 600;
},
{
layerId = "888E2163-DF89-49B9-A98A-97103207B079";
shapes = (
{
closed = 1;
nodes = (
(156,715,ls),
(159,732,o),
(168,740,o),
(185,740,cs),
(202,740,o),
(209,732,o),
(206,715,cs),
(148,386,l),
(313,386,ls),
(377,386,o),
(462,336,o),
(500,254,o),
(489,193,qs),
(478,131,o),
(412,50,o),
(309,0,o),
(245,0,qs),
(90,0,ls),
(50,0,o),
(34,20,o),
(41,60,cs)
);
},
{
closed = 1;
nodes = (
(94,80,l),
(91,60,o),
(99,50,o),
(119,50,cs),
(254,50,ls),
(328,50,o),
(427,124,o),
(439,193,qs),
(451,261,o),
(377,336,o),
(304,336,qs),
(139,336,l)
);
}
);
width = 600;
}
);
unicode = 1068;
},
{
color = (153, 254, 255, 255);
glyphname = "Yeru-cy";
layers = (
{
anchors = (
{
name = top;
position = "{349, 730}";
}
);
layerId = "7B80DEB9-A0FA-491E-8DCF-B8BAEA8A01AC";
shapes = (
{
closed = 1;
nodes = (
(165,445,l),
(195,445,ls),
(312,445,o),
(360,371,o),
(351,252,cs),
(350,232,o),
(346,211,o),
(341,191,cs),
(308,74,o),
(234,0,o),
(117,0,cs),
(58,0,ls),
(-9,0,o),
(-36,33,o),
(-24,100,cs),
(77,676,ls),
(85,719,o),
(110,740,o),
(153,740,cs),
(196,740,o),
(214,718,o),
(206,675,cs)
);
},
{
closed = 1;
nodes = (
(116,165,l),
(110,133,o),
(124,116,o),
(149,116,cs),
(157,116,ls),
(190,116,o),
(210,151,o),
(221,191,cs),
(226,211,o),
(230,232,o),
(231,252,cs),
(235,302,o),
(219,330,o),
(175,330,cs),
(145,330,l)
);
},
{
closed = 1;
nodes = (
(373,-10,o),
(355,11,o),
(363,54,cs),
(472,676,ls),
(480,719,o),
(505,740,o),
(548,740,cs),
(591,740,o),
(609,719,o),
(601,676,cs),
(492,54,ls),
(484,11,o),
(459,-10,o),
(416,-10,cs)
);
}
);
width = 600;
},
{
anchors = (
{
name = top;
position = "{349, 730}";
}
);
layerId = "DDB6E94A-FF9F-44FE-9E50-A37C641AA6D0";
shapes = (
{
closed = 1;
nodes = (
(140,430,l),
(186,430,ls),
(306,430,o),
(362,357,o),
(348,240,cs),
(346,223,o),
(343,206,o),
(339,189,cs),
(312,73,o),
(230,0,o),
(110,0,cs),
(60,0,ls),
(6,0,o),
(-15,26,o),
(-6,80,cs),
(103,698,ls),
(108,726,o),
(124,740,o),
(152,740,cs),
(180,740,o),
(192,726,o),
(187,698,cs)
);
},
{
closed = 1;
nodes = (
(85,119,l),
(80,92,o),
(91,79,o),
(118,79,cs),
(124,79,ls),
(192,79,o),
(240,122,o),
(256,190,cs),
(259,207,o),
(262,224,o),
(264,240,cs),
(272,308,o),
(240,351,o),
(172,351,cs),
(126,351,l)
);
},
{
closed = 1;
nodes = (
(388,-10,o),
(377,4,o),
(382,32,cs),
(499,698,ls),
(504,726,o),
(520,740,o),
(548,740,cs),
(576,740,o),
(588,726,o),
(583,698,cs),
(466,32,ls),
(461,4,o),
(444,-10,o),
(416,-10,cs)
);
}
);
width = 600;
},
{
anchors = (
{
name = top;
position = "{349, 730}";
}
);
layerId = "888E2163-DF89-49B9-A98A-97103207B079";
shapes = (
{
closed = 1;
nodes = (
(119,420,l),
(184,420,ls),
(303,420,o),
(357,345,o),
(346,230,cs),
(344,217,o),
(342,203,o),
(339,190,cs),
(309,75,o),
(229,0,o),
(110,0,cs),
(55,0,ls),
(15,0,o),
(-1,20,o),
(6,60,cs),
(121,715,ls),
(124,732,o),
(133,740,o),
(150,740,cs),
(167,740,o),
(174,732,o),
(171,715,cs)
);
},
{
closed = 1;
nodes = (
(58,75,l),
(55,55,o),
(63,45,o),
(83,45,cs),
(118,45,ls),
(208,45,o),
(266,100,o),
(289,190,cs),
(292,203,o),
(294,217,o),
(296,230,cs),
(304,320,o),
(266,375,o),
(176,375,cs),
(111,375,l)
);
},
{
closed = 1;
nodes = (
(401,-10,o),
(395,-2,o),
(398,15,cs),
(521,715,ls),
(524,732,o),
(533,740,o),
(550,740,cs),
(567,740,o),
(574,732,o),
(571,715,cs),
(448,15,ls),
(445,-2,o),
(435,-10,o),
(418,-10,cs)
);
}
);
width = 600;
}
);
unicode = 1067;
},
